<svg width="24" height="24" viewBox="0 0 24 24" fill="none" xmlns="http://www.w3.org/2000/svg">
<g clip-path="url(#clip0_1027_16168)">
<path d="M5.71693 12.1779H2.86034C2.54483 12.1779 2.28906 11.9221 2.28906 11.6066C2.28906 11.2911 2.54483 11.0353 2.86034 11.0353H4.37438C4.48483 11.0353 4.57438 10.9458 4.57438 10.8353V10.0928C4.57438 9.9823 4.48483 9.89276 4.37438 9.89276H2.86044C2.54488 9.89276 2.28906 9.63695 2.28906 9.32138C2.28906 9.00582 2.54488 8.75 2.86044 8.75H4.71693C5.26921 8.75 5.71693 9.19772 5.71693 9.75V12.1779Z" fill="#DFDFDF"/>
<path d="M5.71693 13.4669C5.71693 14.0192 5.26921 14.4669 4.71693 14.4669H2.86034C2.54483 14.4669 2.28906 14.2112 2.28906 13.8957C2.28906 13.5801 2.54483 13.3244 2.86034 13.3244H4.37438C4.48483 13.3244 4.57438 13.2348 4.57438 13.1244V12.3816C4.57438 12.2712 4.48483 12.1816 4.37438 12.1816H2.86034C2.54483 12.1816 2.28906 11.9258 2.28906 11.6103C2.28906 11.2948 2.54483 11.0391 2.86034 11.0391H5.71693V13.4669Z" fill="#DFDFDF"/>
<path d="M8.00193 11.6067H6.85938V9.75C6.85938 9.19772 7.30709 8.75 7.85938 8.75H10.287C10.6026 8.75 10.8584 9.00582 10.8584 9.32138C10.8584 9.63695 10.6026 9.89276 10.287 9.89276H8.20193C8.09147 9.89276 8.00193 9.9823 8.00193 10.0928V11.6067Z" fill="#DFDFDF"/>
<path d="M10.8584 13.4669C10.8584 14.0192 10.4107 14.4669 9.85841 14.4669H7.85937C7.30709 14.4669 6.85938 14.0192 6.85938 13.4669V11.0391H9.85841C10.4107 11.0391 10.8584 11.4868 10.8584 12.0391V13.4669ZM8.00193 13.1244C8.00193 13.2348 8.09147 13.3244 8.20193 13.3244H9.51586C9.62632 13.3244 9.71586 13.2348 9.71586 13.1244V12.3816C9.71586 12.2712 9.62632 12.1816 9.51586 12.1816H8.20193C8.09147 12.1816 8.00193 12.2712 8.00193 12.3816V13.1244Z" fill="#DFDFDF"/>
<path d="M15.999 13.4632C15.999 14.0155 15.5513 14.4632 14.999 14.4632H13C12.4477 14.4632 12 14.0155 12 13.4632V9.75C12 9.19771 12.4477 8.75 13 8.75H14.999C15.5513 8.75 15.999 9.19772 15.999 9.75V13.4632ZM13.1426 12.8206C13.1426 13.0968 13.3664 13.3206 13.6426 13.3206H14.3565C14.6326 13.3206 14.8565 13.0968 14.8565 12.8206V10.3928C14.8565 10.1166 14.6326 9.89276 14.3565 9.89276H13.6426C13.3664 9.89276 13.1426 10.1166 13.1426 10.3928V12.8206Z" fill="#DFDFDF"/>
<path d="M18.2832 9.32138C18.2832 9.00587 18.0274 8.75 17.7119 8.75C17.3964 8.75 17.1406 9.00587 17.1406 9.32138C17.1406 9.63689 17.3964 9.89276 17.7119 9.89276C18.0274 9.89276 18.2832 9.63689 18.2832 9.32138Z" fill="#DFDFDF"/>
<path d="M13.9334 22.6854C13.8278 22.9843 13.4994 23.1404 13.201 23.0336C12.9039 22.9274 12.7488 22.6009 12.8541 22.3036L13.9991 19.0707L10.7666 17.9319C10.4693 17.8272 10.3131 17.5015 10.4174 17.2041C10.5221 16.9061 10.8488 16.7495 11.1466 16.8548L14.5131 18.0447C15.0338 18.2288 15.3067 18.8001 15.1226 19.3208L13.9334 22.6854Z" fill="#DFDFDF"/>
<path d="M18.0832 16.4066C17.8531 16.6225 17.4913 16.6031 17.2803 16.3685C17.0692 16.1337 17.0892 15.7725 17.3192 15.5564C20.6606 12.4174 22.7646 8.74764 22.8467 5.88114C22.8825 4.60992 22.5112 3.61006 21.74 2.91754C21.0401 2.28904 20.0616 1.94613 18.8262 1.90345C15.7125 1.789 11.5135 3.5816 7.88561 6.59521C7.84586 6.62735 7.80641 6.65981 7.76715 6.69253C7.52575 6.89373 7.16979 6.86976 6.96285 6.63326C6.75435 6.39497 6.77684 6.03223 7.02022 5.82968C7.06579 5.79175 7.11146 5.75413 7.15711 5.7169C10.9992 2.53173 15.4912 0.62511 18.8762 0.760685C20.383 0.817802 21.6113 1.26072 22.5112 2.06768C23.5252 2.98177 24.0395 4.31011 23.9966 5.9096C23.9072 9.07907 21.6536 13.056 18.0832 16.4066Z" fill="#DFDFDF"/>
<path d="M5.38697 22.4637C5.29429 22.4637 5.20851 22.4637 5.12273 22.4566C3.61592 22.3995 2.38759 21.9568 1.48794 21.1498C0.473853 20.2357 -0.0404106 18.9074 0.00247957 17.3077C0.0121878 16.9373 0.0519019 16.5503 0.121489 16.1535C0.176097 15.8421 0.486884 15.6528 0.794496 15.7257C1.10259 15.7988 1.29078 16.1074 1.23871 16.4197C1.18588 16.7366 1.15402 17.0457 1.14503 17.3435C1.10925 18.6147 1.48062 19.6143 2.25202 20.3071C2.95186 20.9356 3.93017 21.2783 5.16562 21.3212C6.75109 21.364 9.27198 20.7427 11.2857 19.7643L14.4709 18.2147L14.9707 19.243L11.7858 20.7856C10.0361 21.6354 7.42227 22.4637 5.38697 22.4637Z" fill="#DFDFDF"/>
</g>
<defs>
<clipPath id="clip0_1027_16168">
<rect width="24" height="24" fill="white"/>
</clipPath>
</defs>
</svg>
