<svg width="40" height="40" viewBox="0 0 40 40" fill="none" xmlns="http://www.w3.org/2000/svg">
<path d="M19.9992 5C13.7081 5 8.58984 10.1182 8.58984 16.4094C8.58984 18.4697 9.12149 20.6569 10.17 22.9102C10.9978 24.6893 12.1491 26.5155 13.5918 28.3381C16.0376 31.4279 18.4489 33.4186 18.5504 33.5018C18.9421 33.823 19.4566 34 19.9992 34C20.5418 34 21.0564 33.823 21.4481 33.5017C21.5496 33.4184 23.9609 31.4278 26.4067 28.338C27.8494 26.5155 29.0007 24.6893 29.8285 22.9101C30.877 20.6569 31.4086 18.4697 31.4086 16.4093C31.4086 10.1182 26.2904 5 19.9992 5ZM25.3944 27.5027C23.0353 30.4877 20.6396 32.4677 20.6159 32.4871C20.4604 32.6146 20.2357 32.6878 19.9992 32.6878C19.7628 32.6878 19.5381 32.6146 19.3827 32.4871C19.2879 32.4094 9.90213 24.6146 9.90213 16.4094C9.90206 10.8418 14.4316 6.31222 19.9992 6.31222C25.5669 6.31222 30.0964 10.8418 30.0964 16.4094C30.0964 20.6606 27.5394 24.7884 25.3944 27.5027Z" fill="#898D8F"/>
<path d="M19.9997 10.3438C16.6549 10.3438 13.9336 13.065 13.9336 16.4099C13.9336 19.7548 16.6549 22.4761 19.9997 22.4761C23.3446 22.4761 26.0658 19.7548 26.0658 16.4099C26.0658 13.065 23.3446 10.3438 19.9997 10.3438ZM19.9997 21.1638C17.3784 21.1638 15.2458 19.0313 15.2458 16.4099C15.2458 13.7886 17.3784 11.656 19.9997 11.656C22.6211 11.656 24.7536 13.7886 24.7536 16.4099C24.7536 19.0313 22.6211 21.1638 19.9997 21.1638Z" fill="#898D8F"/>
</svg>
