<svg width="40" height="40" viewBox="0 0 40 40" fill="none" xmlns="http://www.w3.org/2000/svg">
<path d="M27 6H13C11.1435 6 9.36301 6.7375 8.05025 8.05025C6.7375 9.36301 6 11.1435 6 13L6 27C6 28.8565 6.7375 30.637 8.05025 31.9497C9.36301 33.2625 11.1435 34 13 34H27C28.8565 34 30.637 33.2625 31.9497 31.9497C33.2625 30.637 34 28.8565 34 27V13C34 11.1435 33.2625 9.36301 31.9497 8.05025C30.637 6.7375 28.8565 6 27 6ZM32.6875 27C32.6858 28.5079 32.086 29.9535 31.0198 31.0198C29.9535 32.086 28.5079 32.6858 27 32.6875H13C11.4921 32.6858 10.0465 32.086 8.98025 31.0198C7.91401 29.9535 7.31424 28.5079 7.3125 27V13C7.31424 11.4921 7.91401 10.0465 8.98025 8.98025C10.0465 7.91401 11.4921 7.31424 13 7.3125H27C28.5079 7.31424 29.9535 7.91401 31.0198 8.98025C32.086 10.0465 32.6858 11.4921 32.6875 13V27Z" fill="#898D8F"/>
<path d="M25.9062 24.9779L15.0221 14.0938H19.3276V12.7812H12.7812V19.3276H14.0938V15.0217L24.9783 25.9062H20.6724V27.2188H27.2188V20.6724H25.9062V24.9779Z" fill="#898D8F"/>
</svg>
