<svg width="40" height="40" viewBox="0 0 40 40" fill="none" xmlns="http://www.w3.org/2000/svg">
<path d="M5.00279 29.8636C5.00279 32.1444 6.85843 34 9.13924 34H30.3495C32.6345 34 34.4928 32.1444 34.4928 29.8636C34.4926 28.1165 34.4934 35.1126 34.4908 11.9013C34.4908 9.61983 32.6345 7.76387 30.353 7.76387H29.2544V7.68503C29.2544 6.20449 28.0502 5 26.5696 5C25.0891 5 23.8849 6.20455 23.8849 7.68503V7.76387H15.6059V7.68503C15.6059 6.20449 14.4017 5 12.9212 5C11.4406 5 10.2364 6.20455 10.2364 7.68503V7.76387H9.13784C6.85633 7.76387 5 9.61989 5 11.9013C5.00032 13.7495 4.99905 5.22865 5.00279 29.8636ZM33.0885 29.8636C33.0885 31.3701 31.8596 32.5956 30.3496 32.5956H9.13924C7.63266 32.5956 6.40723 31.3701 6.40723 29.8636V16.6183H33.0885V29.8636ZM25.2894 7.68497C25.2894 6.97897 25.864 6.40431 26.5696 6.40431C27.2753 6.40431 27.8499 6.97897 27.8499 7.68497V7.76381H25.2893V7.68497H25.2894ZM11.6409 7.68497C11.6409 6.97897 12.2155 6.40431 12.9212 6.40431C13.6268 6.40431 14.2014 6.97897 14.2014 7.68497V7.76381H11.6408L11.6409 7.68497ZM6.40444 11.9013C6.40444 10.3944 7.63057 9.16825 9.13784 9.16825H14.2014V9.24677C14.2014 9.95277 13.6268 10.5274 12.9212 10.5274C12.533 10.5274 12.219 10.8418 12.219 11.2296C12.219 11.6174 12.5331 11.9318 12.9212 11.9318C14.4017 11.9318 15.6059 10.7273 15.6059 9.24677V9.16825H27.85V9.24677C27.85 9.95277 27.2753 10.5274 26.5697 10.5274C26.1815 10.5274 25.8675 10.8418 25.8675 11.2296C25.8675 11.6174 26.1816 11.9318 26.5697 11.9318C28.0503 11.9318 29.2544 10.7273 29.2544 9.24677V9.16825H30.353C31.8603 9.16825 33.0864 10.3944 33.0864 11.9013V15.2104H6.40444V11.9013Z" fill="#898D8F"/>
<path d="M19.0303 20.6622H20.4635C20.8517 20.6622 21.1657 20.3478 21.1657 19.96C21.1657 19.5722 20.8516 19.2578 20.4635 19.2578H19.0303C18.6421 19.2578 18.3281 19.5722 18.3281 19.96C18.3281 20.3478 18.6422 20.6622 19.0303 20.6622Z" fill="#898D8F"/>
<path d="M25.9483 20.6622H27.3815C27.7696 20.6622 28.0837 20.3478 28.0837 19.96C28.0837 19.5722 27.7696 19.2578 27.3815 19.2578H25.9483C25.5601 19.2578 25.2461 19.5722 25.2461 19.96C25.2461 20.3478 25.5601 20.6622 25.9483 20.6622Z" fill="#898D8F"/>
<path d="M12.1123 25.3106H13.5455C13.9337 25.3106 14.2477 24.9962 14.2477 24.6084C14.2477 24.2207 13.9336 23.9062 13.5455 23.9062H12.1123C11.7242 23.9062 11.4102 24.2207 11.4102 24.6084C11.4102 24.9962 11.7242 25.3106 12.1123 25.3106Z" fill="#898D8F"/>
<path d="M19.0303 25.3106H20.4635C20.8517 25.3106 21.1657 24.9962 21.1657 24.6084C21.1657 24.2207 20.8516 23.9062 20.4635 23.9062H19.0303C18.6421 23.9062 18.3281 24.2207 18.3281 24.6084C18.3281 24.9962 18.6422 25.3106 19.0303 25.3106Z" fill="#898D8F"/>
<path d="M25.9483 25.3106H27.3815C27.7696 25.3106 28.0837 24.9962 28.0837 24.6084C28.0837 24.2207 27.7696 23.9062 27.3815 23.9062H25.9483C25.5601 23.9062 25.2461 24.2207 25.2461 24.6084C25.246 24.9962 25.5601 25.3106 25.9483 25.3106Z" fill="#898D8F"/>
<path d="M12.1123 29.9591H13.5455C13.9337 29.9591 14.2477 29.6447 14.2477 29.2569C14.2477 28.8691 13.9336 28.5547 13.5455 28.5547H12.1123C11.7242 28.5547 11.4102 28.8691 11.4102 29.2569C11.4102 29.6447 11.7242 29.9591 12.1123 29.9591Z" fill="#898D8F"/>
<path d="M19.0303 29.9591H20.4635C20.8517 29.9591 21.1657 29.6447 21.1657 29.2569C21.1657 28.8691 20.8516 28.5547 20.4635 28.5547H19.0303C18.6421 28.5547 18.3281 28.8691 18.3281 29.2569C18.3281 29.6447 18.6422 29.9591 19.0303 29.9591Z" fill="#898D8F"/>
</svg>
