<svg width="25" height="24" viewBox="0 0 25 24" fill="none" xmlns="http://www.w3.org/2000/svg">
<path d="M2.28125 8.37722C2.28125 8.0269 2.28125 7.85174 2.29587 7.70421C2.43685 6.28127 3.56252 5.1556 4.98546 5.01462C5.13299 5 5.31761 5 5.68683 5C5.8291 5 5.90024 5 5.96064 4.99634C6.73186 4.94963 7.4072 4.46288 7.69539 3.746C7.71796 3.68986 7.73906 3.62657 7.78125 3.5C7.82344 3.37343 7.84454 3.31014 7.86711 3.254C8.1553 2.53712 8.83064 2.05037 9.60186 2.00366C9.66226 2 9.72897 2 9.86239 2H14.7001C14.8335 2 14.9002 2 14.9606 2.00366C15.7319 2.05037 16.4072 2.53712 16.6954 3.254C16.718 3.31014 16.7391 3.37343 16.7812 3.5C16.8234 3.62657 16.8445 3.68986 16.8671 3.746C17.1553 4.46288 17.8306 4.94963 18.6019 4.99634C18.6623 5 18.7334 5 18.8757 5C19.2449 5 19.4295 5 19.577 5.01462C21 5.1556 22.1256 6.28127 22.2666 7.70421C22.2812 7.85174 22.2812 8.0269 22.2812 8.37722V16.2C22.2812 17.8802 22.2812 18.7202 21.9543 19.362C21.6666 19.9265 21.2077 20.3854 20.6432 20.673C20.0015 21 19.1614 21 17.4812 21H7.08125C5.40109 21 4.56101 21 3.91928 20.673C3.35479 20.3854 2.89585 19.9265 2.60823 19.362C2.28125 18.7202 2.28125 17.8802 2.28125 16.2V8.37722Z" stroke="#7F0E45" stroke-width="2" stroke-linecap="round" stroke-linejoin="round"/>
<path d="M12.2812 16.5C14.4904 16.5 16.2812 14.7091 16.2812 12.5C16.2812 10.2909 14.4904 8.5 12.2812 8.5C10.0721 8.5 8.28125 10.2909 8.28125 12.5C8.28125 14.7091 10.0721 16.5 12.2812 16.5Z" stroke="#7F0E45" stroke-width="2" stroke-linecap="round" stroke-linejoin="round"/>
</svg>
