<svg width="81" height="80" viewBox="0 0 81 80" fill="none" xmlns="http://www.w3.org/2000/svg">
<path d="M60.0646 9.48114C56.2775 8.47451 52.438 9.09726 49.3031 10.9148C49.7105 11.3193 49.9813 11.8655 50.0321 12.4826C50.1455 13.8586 49.1218 15.066 47.7457 15.1794L43.3791 15.539C42.3952 15.62 41.456 15.1146 40.9815 14.249C40.5071 13.3834 40.5865 12.3196 41.184 11.534C45.7285 5.55913 53.6213 2.59476 61.3491 4.64901C70.7617 7.15114 76.6541 16.2316 75.3095 25.6055C75.1135 26.9723 73.8466 27.9213 72.4798 27.7251C71.1131 27.5291 70.1641 26.2623 70.3601 24.8955C71.3451 18.029 67.0253 11.3315 60.0646 9.48114Z" fill="#898D8F"/>
<path d="M43.0885 21.1645C43.2478 19.793 42.2651 18.5522 40.8936 18.3929C39.5221 18.2335 38.2812 19.2163 38.1219 20.5878C37.0643 29.6942 42.9815 38.3903 52.2079 40.8429C59.91 42.8903 67.7848 40.0268 72.3154 34.1478C72.9182 33.3657 73.004 32.302 72.5347 31.4333C72.0653 30.5647 71.1285 30.0535 70.144 30.129L65.7842 30.4634C64.4075 30.5689 63.377 31.7705 63.4827 33.1472C63.5289 33.7508 63.7859 34.2879 64.1761 34.6918C61.0713 36.4302 57.2662 37.0139 53.4924 36.0107C46.609 34.1809 42.3242 27.745 43.0885 21.1645Z" fill="#898D8F"/>
<path d="M20.239 50.1378C22.0109 50.1378 23.4472 51.5741 23.4472 53.346C23.4472 55.1178 22.0109 56.5542 20.239 56.5542C18.4671 56.5542 17.0308 55.1178 17.0308 53.346C17.0308 51.5741 18.4671 50.1378 20.239 50.1378ZM58.7375 50.1378C60.5094 50.1378 61.9457 51.5741 61.9457 53.346C61.9457 55.1178 60.5094 56.5542 58.7375 56.5542C56.9655 56.5542 55.5293 55.1178 55.5293 53.346C55.5293 51.5741 56.9655 50.1378 58.7375 50.1378ZM13.8226 34.0968C13.5147 34.0968 13.2261 34.1663 12.9236 34.1876L16.6893 19.1241C17.6731 15.1891 21.1914 12.4414 25.2487 12.4414H37.8211L35.7349 16.107C35.5248 16.4746 35.4257 16.8693 35.2796 17.2537H25.2487C23.4064 17.2537 21.8055 18.5038 21.3575 20.2928L17.9066 34.0968H13.8226ZM73.9764 46.9296V59.7624C73.9764 63.7883 71.2515 67.1544 67.56 68.2094V72.5953C67.56 73.9236 66.4823 75.0014 65.1539 75.0014C63.8255 75.0014 62.7477 73.9236 62.7477 72.5953V68.585H16.2287V72.5953C16.2287 73.9236 15.151 75.0014 13.8226 75.0014C12.4942 75.0014 11.4164 73.9236 11.4164 72.5953V68.2094C7.72495 67.1544 5 63.7883 5 59.7624V46.9296C5 42.064 8.957 38.107 13.8226 38.107H38.7361L38.8146 38.2449C39.8799 40.1216 41.6124 41.4641 43.6927 42.0233C44.429 42.2222 45.1715 42.3209 45.9172 42.299C46.0102 42.4978 46.1643 42.6554 46.2726 42.845C46.1477 42.8649 46.0353 42.9194 45.9046 42.9194H13.8226C11.6107 42.9194 9.81231 44.7177 9.81231 46.9296V59.7624C9.81231 61.9743 11.6107 63.7727 13.8226 63.7727H65.1539C67.3658 63.7727 69.1641 61.9743 69.1641 59.7624V46.9296C69.1641 45.089 67.8939 43.6012 66.2013 43.1312C66.3779 42.8502 66.6009 42.6021 66.7423 42.299C67.5162 42.3162 68.2336 42.2222 68.9699 42.0233C69.8934 41.775 70.7326 41.3503 71.4908 40.8161C73.0229 42.4038 73.9764 44.5538 73.9764 46.9296Z" fill="black"/>
</svg>
