<svg width="40" height="40" viewBox="0 0 40 40" fill="none" xmlns="http://www.w3.org/2000/svg">
<path d="M33.1875 24.3333H27.8974L33.6298 21.0769C34.0551 20.8352 34.3584 20.4425 34.4852 19.9701C34.6109 19.4976 34.5444 19.0058 34.2979 18.5853L31.3629 13.5767C30.8651 12.7261 29.7594 12.4313 28.9039 12.9194L24.6603 15.3337L27.0781 11.0985C27.5663 10.2406 27.2727 9.13618 26.4208 8.63593L21.4135 5.70331C20.993 5.45675 20.5 5.38906 20.0287 5.51594C19.5551 5.64163 19.1624 5.94488 18.9219 6.37025L15.6667 12.0929V6.8125C15.6667 5.81319 14.8535 5 13.8542 5H7.8125C6.81319 5 6 5.81319 6 6.8125V32.1875C6 33.1868 6.81319 34 7.8125 34H33.1875C34.1868 34 35 33.1868 35 32.1875V26.1458C35 25.1466 34.1868 24.3333 33.1875 24.3333ZM14.4583 32.7917H7.8125C7.48019 32.7917 7.20831 32.521 7.20831 32.1875V24.3333H14.4583V32.7917ZM14.4583 23.125H7.20831V18.2917H14.4583V23.125ZM14.4583 17.0833H7.20831V12.25H14.4583V17.0833ZM14.4583 11.0417H7.20831V6.8125C7.20831 6.479 7.48019 6.20831 7.8125 6.20831H13.8542C14.1865 6.20831 14.4584 6.479 14.4584 6.8125V11.0417H14.4583ZM29.5009 13.9694C29.7848 13.8075 30.1546 13.9054 30.3213 14.1894L33.2551 19.1967C33.3373 19.3369 33.3603 19.5012 33.3179 19.6583C33.2769 19.8153 33.1754 19.9458 33.034 20.0268L16.6793 29.3153L23.4858 17.3915L29.5009 13.9694ZM15.6667 14.5362L19.972 6.966C20.0517 6.82462 20.1834 6.72312 20.3417 6.68206C20.4988 6.63856 20.6632 6.6615 20.8033 6.74487L25.8106 9.6775C26.0946 9.84425 26.1924 10.2128 26.0293 10.4992L15.6667 28.6507V14.5362ZM33.7917 32.1875C33.7917 32.521 33.5198 32.7917 33.1875 32.7917H15.6667V31.2801L25.7696 25.5417H33.1875C33.5198 25.5417 33.7917 25.8124 33.7917 26.1459V32.1875Z" fill="#898D8F"/>
<path d="M10.8347 31.5833C12.1675 31.5833 13.2513 30.4994 13.2513 29.1666C13.2513 27.8338 12.1675 26.75 10.8347 26.75C9.50184 26.75 8.41797 27.8339 8.41797 29.1667C8.41797 30.4995 9.5019 31.5833 10.8347 31.5833ZM10.8347 27.9583C11.5017 27.9583 12.043 28.5009 12.043 29.1666C12.043 29.8324 11.5017 30.375 10.8347 30.375C10.1677 30.375 9.62634 29.8324 9.62634 29.1667C9.62634 28.5009 10.1677 27.9583 10.8347 27.9583Z" fill="#898D8F"/>
</svg>
