<svg width="81" height="80" viewBox="0 0 81 80" fill="none" xmlns="http://www.w3.org/2000/svg">
<path d="M38.8965 8.06191C39.8248 7.3127 41.1753 7.3127 42.1038 8.06191L61.7501 23.9161V34.0444C63.4866 34.3199 65.1605 34.7835 66.7501 35.4137V27.951L73.9301 33.7451C75.0046 34.6122 76.5786 34.4441 77.4456 33.3696C78.3127 32.2951 78.1446 30.7211 77.0701 29.8541L45.2438 4.17085C42.4831 1.94305 38.5171 1.94305 35.7563 4.17085L3.93008 29.8541C2.85559 30.7211 2.68747 32.2951 3.55456 33.3696C4.42166 34.4441 5.99561 34.6122 7.07009 33.7451L14.2501 27.951V57.588C14.2501 61.7231 17.65 65 21.7501 65H35.4586C34.9272 63.402 34.561 61.7286 34.3801 60H21.7501C20.3273 60 19.2501 58.8785 19.2501 57.588V23.9161L38.8965 8.06191Z" fill="#131214"/>
<path d="M62.5646 45.4802C58.7775 44.4735 54.938 45.0963 51.8031 46.9138C52.2105 47.3183 52.4813 47.8645 52.5321 48.4817C52.6455 49.8577 51.6218 51.065 50.2457 51.1784L45.8791 51.538C44.8952 51.619 43.956 51.1137 43.4815 50.248C43.0071 49.3824 43.0865 48.3187 43.684 47.533C48.2285 41.5582 56.1213 38.5938 63.8491 40.648C73.2617 43.1502 79.1541 52.2307 77.8095 61.6045C77.6135 62.9713 76.3466 63.9203 74.9798 63.7242C73.6131 63.5282 72.6641 62.2613 72.8601 60.8945C73.8451 54.028 69.5253 47.3305 62.5646 45.4802Z" fill="#898D8F"/>
<path d="M45.5885 57.1636C45.7478 55.7921 44.7651 54.5512 43.3936 54.3919C42.0221 54.2326 40.7812 55.2153 40.6219 56.5868C39.5643 65.6932 45.4815 74.3893 54.7079 76.8419C62.41 78.8893 70.2848 76.0258 74.8154 70.1468C75.4182 69.3647 75.504 68.3011 75.0347 67.4323C74.5653 66.5637 73.6285 66.0526 72.644 66.1281L68.2842 66.4624C66.9075 66.5679 65.877 67.7696 65.9827 69.1462C66.0289 69.7498 66.2859 70.2869 66.6761 70.6908C63.5713 72.4292 59.7662 73.0129 55.9924 72.0097C49.109 70.1799 44.8242 63.7441 45.5885 57.1636Z" fill="#898D8F"/>
</svg>
