<svg width="24" height="24" viewBox="0 0 24 24" fill="none" xmlns="http://www.w3.org/2000/svg">
<g clip-path="url(#clip0_2134_6636)">
<path d="M23.5012 10.0781C22.2567 7.85203 18.6281 2.625 12 2.625C5.37188 2.625 1.74328 7.85203 0.49875 10.0781C0.170625 10.665 0 11.3273 0 12C0 12.6727 0.170625 13.335 0.49875 13.9219C1.74328 16.148 5.37188 21.375 12 21.375C18.6281 21.375 22.2567 16.148 23.5012 13.9219C23.8294 13.3345 24 12.6727 24 12C24 11.3273 23.8294 10.665 23.5012 10.0781ZM12 18.5625C8.38125 18.5625 5.4375 15.6187 5.4375 12C5.4375 8.38125 8.38125 5.4375 12 5.4375C15.6187 5.4375 18.5625 8.38125 18.5625 12C18.5625 15.6187 15.6187 18.5625 12 18.5625ZM15.5836 10.8952C15.6914 11.2444 15.75 11.6156 15.75 12C15.75 14.0677 14.0677 15.75 12 15.75C9.93234 15.75 8.25 14.0677 8.25 12C8.25 9.93234 9.93234 8.25 12 8.25C12.3844 8.25 12.7552 8.30813 13.1048 8.41641C12.4542 8.71078 12 9.36562 12 10.125C12 11.1591 12.8409 12 13.875 12C14.6344 12 15.2892 11.5458 15.5836 10.8952Z" fill="#7F0E45"/>
</g>
<defs>
<clipPath id="clip0_2134_6636">
<rect width="24" height="24" fill="white"/>
</clipPath>
</defs>
</svg>
