<svg width="120" height="120" viewBox="0 0 120 120" fill="none" xmlns="http://www.w3.org/2000/svg">
<path fill-rule="evenodd" clip-rule="evenodd" d="M26.0854 76.2587C21.3738 76.2587 17.541 72.4245 17.541 67.7128C17.541 60.4643 26.7211 57.1195 26.965 60.4924C27.0213 61.268 26.4391 61.9409 25.6643 61.9971C18.427 62.523 18.787 73.4461 26.0875 73.4461C26.9264 73.4461 28.545 72.8738 28.855 74.4446C29.1841 76.111 27.2336 76.2587 26.0854 76.2587Z" fill="#7F0E45"/>
<path fill-rule="evenodd" clip-rule="evenodd" d="M93.8873 76.258C90.4617 76.258 91.579 73.2128 93.2419 73.4089C96.5986 73.8041 99.6199 71.1456 99.6199 67.7115C99.6199 64.6332 97.2124 62.1167 94.1405 61.9852C92.3046 61.9065 92.3918 59.0954 94.2621 59.1755C98.843 59.3738 102.432 63.1229 102.432 67.7115C102.433 72.4253 98.599 76.258 93.8866 76.258H93.8873Z" fill="#7F0E45"/>
<path fill-rule="evenodd" clip-rule="evenodd" d="M60.2798 113.289C41.4177 113.289 26.0726 96.3554 26.0726 75.5435C26.0726 58.3541 18.5274 50.0277 20.2796 38.9534C20.4413 37.7201 23.1315 19.3312 39.6718 16.1805L46.0956 16.1559C62.984 -3.61252 92.071 10.3214 99.9228 33.3186C100.571 35.2177 97.4155 51.185 97.2017 52.2243C95.8053 59.0193 94.4877 65.436 94.4877 75.5442C94.4877 96.3554 79.1426 113.289 60.2798 113.289ZM40.0712 18.9684C25.1094 21.9159 23.0879 39.2438 23.052 39.4344C21.3082 48.6545 28.8844 58.274 28.8844 75.5442C28.8844 94.8064 42.9681 110.476 60.2798 110.476C77.5908 110.476 91.6738 94.8057 91.6738 75.5442C91.6738 65.1492 93.0202 58.5967 94.4462 51.6582C95.5051 46.5071 96.5985 41.1816 97.1666 33.9535C92.3016 20.0062 78.9148 9.52331 65.9168 9.52331C58.8778 9.52331 52.627 12.6121 47.8415 18.4537C47.575 18.78 47.1756 18.9677 46.7537 18.9677H40.0719V18.9691L40.0712 18.9684Z" fill="#898D8F"/>
<path fill-rule="evenodd" clip-rule="evenodd" d="M26.6332 67.0766C25.5433 67.0766 24.8458 65.8595 25.4498 64.9131L42.4887 38.183C43.0083 37.3659 44.1874 37.3069 44.7851 38.0747L51.9676 47.3061C64.0684 26.2242 70.8114 31.5532 70.5322 33.5761C70.5126 33.7153 68.7491 47.5374 78.7377 53.5323L94.3851 63.9617C95.9271 64.989 94.3633 67.3304 92.8249 66.3018L77.2337 55.9088C67.3639 49.9878 67.3696 38.0494 67.6353 34.3144C63.1564 33.8623 55.2891 46.9664 53.4062 50.5102C52.928 51.4102 51.6786 51.515 51.0549 50.7141L43.7909 41.3766L27.8229 66.4255C27.5543 66.846 27.1 67.0759 26.6353 67.0759L26.6332 67.0766Z" fill="#898D8F"/>
<path fill-rule="evenodd" clip-rule="evenodd" d="M48.1205 71.0117H42.2684C40.417 71.0117 40.417 68.1992 42.2684 68.1992H48.1205C49.9711 68.1992 49.9719 71.0117 48.1205 71.0117Z" fill="#7F0E45"/>
<path fill-rule="evenodd" clip-rule="evenodd" d="M77.7059 71.0117H71.8531C70.0017 71.0117 70.0024 68.1992 71.8531 68.1992H77.7059C79.5566 68.1992 79.5566 71.0117 77.7059 71.0117Z" fill="#7F0E45"/>
<path fill-rule="evenodd" clip-rule="evenodd" d="M60.0287 93.2041C57.8125 93.2041 49.8685 91.3549 51.5673 88.6942C51.985 88.0396 52.854 87.8463 53.51 88.2667C57.9173 91.0842 62.1515 91.0884 66.456 88.2745C68.0029 87.2634 69.5463 89.616 67.9931 90.6299C65.3641 92.3463 62.7041 93.2041 60.0294 93.2041H60.0287Z" fill="#7F0E45"/>
<path fill-rule="evenodd" clip-rule="evenodd" d="M116.616 24.8744C115.839 24.8744 115.209 24.2444 115.209 23.4681V5.52432C115.209 4.03017 113.994 2.81446 112.5 2.81446H95.2027C93.3514 2.81446 93.3521 0.00195312 95.2027 0.00195312H112.5C115.546 0.00195312 118.023 2.47907 118.023 5.52432V23.4681C118.021 24.2458 117.392 24.8744 116.615 24.8744H116.616Z" fill="#898D8F"/>
<path fill-rule="evenodd" clip-rule="evenodd" d="M3.3584 24.8744C2.58215 24.8744 1.95215 24.2444 1.95215 23.4681V5.52432C1.95215 2.47907 4.42927 0.00195312 7.47451 0.00195312H24.7722C26.6235 0.00195312 26.6235 2.81446 24.7722 2.81446H7.47381C5.97966 2.81446 4.76396 4.03017 4.76396 5.52432V23.4681C4.76466 24.2458 4.13536 24.8744 3.3584 24.8744Z" fill="#898D8F"/>
<path fill-rule="evenodd" clip-rule="evenodd" d="M112.499 120H95.2017C93.3504 120 93.3511 117.187 95.2017 117.187H112.499C113.994 117.187 115.209 115.972 115.209 114.478V96.5328C115.209 94.6814 118.021 94.6821 118.021 96.5328V114.478C118.022 117.523 115.545 120 112.499 120Z" fill="#898D8F"/>
<path fill-rule="evenodd" clip-rule="evenodd" d="M24.7712 119.998H7.47354C4.42829 119.998 1.95117 117.521 1.95117 114.476V96.5308C1.95117 94.6795 4.76368 94.6802 4.76368 96.5308V114.476C4.76368 115.97 5.97939 117.185 7.47354 117.185H24.7712C26.6225 117.185 26.6225 119.998 24.7712 119.998Z" fill="#898D8F"/>
<path fill-rule="evenodd" clip-rule="evenodd" d="M116.642 52.6602H3.35725C1.50592 52.6602 1.50592 49.8477 3.35725 49.8477H116.642C118.493 49.8477 118.494 52.6602 116.642 52.6602Z" fill="#7F0E45"/>
</svg>
