<svg width="120" height="120" viewBox="0 0 120 120" fill="none" xmlns="http://www.w3.org/2000/svg">
<path fill-rule="evenodd" clip-rule="evenodd" d="M82.4726 76.5608C81.5691 76.5608 80.8948 75.715 81.1029 74.8325C82.1203 70.521 82.0493 64.3158 82.905 59.5775C85.6325 44.4764 77.3264 33.4788 61.8808 33.6138C49.953 33.7178 42.4885 39.3829 41.9148 48.7662C41.2862 59.0206 39.5783 65.8937 36.377 71.0525C35.4003 72.6247 33.0097 71.1418 33.987 69.5696C36.9303 64.8284 38.5088 58.3596 39.1079 48.5953C39.7731 37.7383 48.4897 30.9208 61.8576 30.802C79.0638 30.6606 88.7157 43.2368 85.6732 60.0767C84.8105 64.8502 84.9406 70.817 83.8402 75.4773C83.6869 76.1242 83.1096 76.5608 82.4726 76.5608Z" fill="#7F0E45"/>
<path fill-rule="evenodd" clip-rule="evenodd" d="M69.4625 88.7134C68.4676 88.7134 67.7672 87.6756 68.1758 86.744C72.1808 77.5871 80.5157 58.5345 75.6163 48.2365C70.4363 37.3513 49.4093 38.0524 48.6049 53.2378C47.9165 66.2379 45.244 74.1678 40.1934 78.1946C38.7506 79.3421 36.9991 77.1449 38.4412 75.9952C42.7577 72.5548 45.1638 65.0623 45.7973 53.0895C46.7578 34.9389 71.742 33.5453 78.1567 47.0285C82.9464 57.0973 77.4289 72.6083 70.7527 87.8704C70.5214 88.3991 70.0046 88.7134 69.4625 88.7134Z" fill="#7F0E45"/>
<path fill-rule="evenodd" clip-rule="evenodd" d="M60.5438 89.2006C59.4371 89.2006 58.7332 87.9356 59.3907 86.9906C64.1972 80.0845 76.5674 54.703 63.6432 50.1917C58.5455 48.4128 56.1563 54.1574 55.887 59.2529C55.5143 66.292 47.3046 86.6749 44.0442 82.5771C43.5597 81.9696 43.6596 81.085 44.2678 80.6013C47.3384 78.1544 52.7721 64.8941 53.0794 59.1039C53.9407 42.8912 68.236 44.8219 71.3741 54.497C74.7167 64.8041 66.1301 82.2297 61.6997 88.5959C61.4248 88.9896 60.9875 89.1999 60.5438 89.1999V89.2006Z" fill="#7F0E45"/>
<path fill-rule="evenodd" clip-rule="evenodd" d="M52.0466 86.5533C50.8598 86.5533 50.1939 85.1484 50.9779 84.2322C62.3854 70.903 60.693 55.4391 60.6754 55.2852C60.4617 53.4402 63.2447 53.116 63.4682 54.9477C63.5512 55.6276 65.3547 71.7601 53.1154 86.0618C52.837 86.3873 52.4425 86.554 52.0466 86.554V86.5533Z" fill="#7F0E45"/>
<path fill-rule="evenodd" clip-rule="evenodd" d="M60.0008 100.458C41.7455 100.458 26.8926 85.606 26.8926 67.35C26.8926 65.4987 29.7051 65.4994 29.7051 67.35C29.7051 84.0549 43.2966 97.645 60.0008 97.645C76.7057 97.645 90.2957 84.0549 90.2957 67.35C90.2957 65.4987 93.1082 65.4994 93.1082 67.35C93.1096 85.6053 78.2568 100.458 60.0015 100.458H60.0008ZM91.7027 54.0574C90.9264 54.0574 90.2964 53.4274 90.2964 52.6511C90.2964 35.9462 76.7064 22.3555 60.0015 22.3555C43.2966 22.3555 29.7058 35.9462 29.7058 52.6511C29.7058 54.5025 26.8933 54.5025 26.8933 52.6511C26.8933 34.3958 41.7447 19.543 60.0015 19.543C78.2582 19.543 93.1096 34.3944 93.1096 52.6511C93.1082 53.4288 92.4782 54.0574 91.702 54.0574H91.7027Z" fill="#7F0E45"/>
<path fill-rule="evenodd" clip-rule="evenodd" d="M109.829 113.974H89.7033C87.852 113.974 87.8527 111.161 89.7033 111.161H109.829C113.884 111.161 117.183 107.863 117.183 103.807V86.572C117.183 84.7207 119.995 84.7214 119.995 86.572V103.807C119.996 109.413 115.436 113.974 109.829 113.974ZM30.9443 113.974H10.1711C4.56509 113.974 0.00390625 109.412 0.00390625 103.806V86.5671C0.00390625 84.7158 2.81642 84.7165 2.81642 86.5671V103.806C2.81642 107.861 6.1162 111.16 10.1711 111.16H30.9436C32.7943 111.16 32.7943 113.974 30.9443 113.974ZM118.59 36.4693C117.814 36.4693 117.184 35.8393 117.184 35.063V16.1946C117.184 12.1396 113.885 8.83985 109.83 8.83985H89.7089C87.8576 8.83985 87.8583 6.02734 89.7089 6.02734H109.83C115.436 6.02734 119.997 10.5885 119.997 16.1946V35.063C119.996 35.84 119.366 36.4686 118.59 36.4686V36.4693ZM1.41016 36.233C0.633909 36.233 0.00390625 35.603 0.00390625 34.8268V16.1953C0.00390625 10.5892 4.56509 6.02805 10.1711 6.02805H30.9809C32.8322 6.02805 32.8322 8.84056 30.9809 8.84056H10.1711C6.1162 8.84056 2.81642 12.1403 2.81642 16.1953V34.8268C2.81642 35.603 2.18641 36.233 1.41016 36.233Z" fill="#898D8F"/>
<path fill-rule="evenodd" clip-rule="evenodd" d="M111.767 63.1563H8.23368C6.38305 63.1563 6.38305 60.3438 8.23368 60.3438H111.766C113.617 60.3438 113.618 63.1563 111.768 63.1563H111.767Z" fill="#898D8F"/>
</svg>
