<svg width="20" height="16" viewBox="0 0 20 16" fill="none" xmlns="http://www.w3.org/2000/svg">
<g clip-path="url(#clip0_1668_322)">
<path d="M17.5 0H2.5C1.11929 0 0 1.19391 0 2.66667V5.3335H20V2.66667C20 1.19391 18.8807 0 17.5 0Z" fill="#82AFFF"/>
<path d="M20 10.6667V13.3333C20 14.8061 18.8807 16 17.5 16H2.5C1.11929 16 0 14.8061 0 13.3333V10.6667H20Z" fill="#73AF00"/>
<path d="M20 5.3335H0V10.6667H20V5.3335Z" fill="#F5F5F5"/>
<path d="M19.9998 4.85938H0V5.52439H19.9998V4.85938Z" fill="#FF4B55"/>
<path d="M20.0001 10.474H0.000285879V11.139H20.0001V10.474Z" fill="#FF4B55"/>
<path d="M4.24711 4.08019C3.51437 4.08019 2.92042 3.44815 2.92042 2.66938C2.92042 1.88775 3.51433 1.25286 4.24711 1.25286C4.24994 1.25286 4.2527 1.25286 4.25546 1.2529C4.2986 1.25351 4.31372 1.1924 4.27569 1.17064C4.05006 1.04163 3.79255 0.968629 3.51879 0.970748C2.64203 0.977408 1.92985 1.75238 1.93918 2.68758C1.94834 3.61315 2.65772 4.36234 3.53026 4.36234C3.80026 4.36234 4.05415 4.28947 4.27699 4.16223C4.3149 4.14056 4.29957 4.07945 4.25659 4.0801C4.25335 4.08019 4.25023 4.08019 4.24711 4.08019Z" fill="white"/>
<path d="M5.28564 3.68962L5.22641 3.87913L5.03913 3.88064C5.01488 3.88082 5.00482 3.91386 5.02433 3.92921L5.17499 4.04789L5.11847 4.23835C5.11118 4.26301 5.13749 4.28342 5.15723 4.26837L5.3096 4.1522L5.46197 4.26837C5.48172 4.28342 5.50799 4.26301 5.50074 4.23835L5.44422 4.04789L5.59484 3.92921C5.61434 3.91386 5.60429 3.88082 5.58004 3.88064L5.39276 3.87913L5.33353 3.68962C5.32586 3.66509 5.29335 3.66509 5.28564 3.68962Z" fill="white"/>
<path d="M6.60507 3.68962L6.54583 3.87913L6.35855 3.88064C6.33431 3.88082 6.32425 3.91386 6.34375 3.92921L6.49438 4.04789L6.43786 4.23835C6.43056 4.26301 6.45688 4.28342 6.47662 4.26837L6.62899 4.1522L6.78136 4.26837C6.80111 4.28342 6.82738 4.26301 6.82012 4.23835L6.7636 4.04789L6.91423 3.92921C6.93373 3.91386 6.92368 3.88082 6.89943 3.88064L6.71215 3.87913L6.65291 3.68962C6.64525 3.66509 6.61269 3.66509 6.60507 3.68962Z" fill="white"/>
<path d="M7.92465 3.68962L7.86541 3.87913L7.67813 3.88064C7.65389 3.88082 7.64383 3.91386 7.66333 3.92921L7.814 4.04789L7.75748 4.23835C7.75018 4.26301 7.7765 4.28342 7.79624 4.26837L7.94861 4.1522L8.10098 4.26837C8.12073 4.28342 8.147 4.26301 8.13974 4.23835L8.08322 4.04789L8.23385 3.92921C8.25335 3.91386 8.24329 3.88082 8.21905 3.88064L8.03177 3.87913L7.97253 3.68962C7.96487 3.66509 7.93231 3.66509 7.92465 3.68962Z" fill="white"/>
<path d="M9.24393 3.68962L9.18469 3.87913L8.99741 3.88064C8.97316 3.88082 8.96311 3.91386 8.98261 3.92921L9.13323 4.04789L9.07672 4.23835C9.06942 4.26301 9.09573 4.28342 9.11548 4.26837L9.26785 4.1522L9.42022 4.26837C9.43996 4.28342 9.46624 4.26301 9.45898 4.23835L9.40246 4.04789L9.55308 3.92921C9.57259 3.91386 9.56253 3.88082 9.53828 3.88064L9.351 3.87913L9.29177 3.68962C9.28415 3.66509 9.25159 3.66509 9.24393 3.68962Z" fill="white"/>
<path d="M10.5635 3.68962L10.5043 3.87913L10.317 3.88064C10.2927 3.88082 10.2827 3.91386 10.3022 3.92921L10.4529 4.04789L10.3963 4.23835C10.389 4.26301 10.4154 4.28342 10.4351 4.26837L10.5875 4.1522L10.7398 4.26837C10.7596 4.28342 10.7859 4.26301 10.7786 4.23835L10.7221 4.04789L10.8727 3.92921C10.8922 3.91386 10.8822 3.88082 10.8579 3.88064L10.6707 3.87913L10.6114 3.68962C10.6037 3.66509 10.5712 3.66509 10.5635 3.68962Z" fill="white"/>
<path d="M6.60507 2.37718L6.54583 2.5667L6.35855 2.56821C6.33431 2.56838 6.32425 2.60142 6.34375 2.61678L6.49438 2.73545L6.43786 2.92592C6.43056 2.95057 6.45688 2.97098 6.47662 2.95593L6.62899 2.83977L6.78136 2.95593C6.80111 2.97098 6.82738 2.95057 6.82012 2.92592L6.7636 2.73545L6.91423 2.61678C6.93373 2.60142 6.92368 2.56838 6.89943 2.56821L6.71215 2.5667L6.65291 2.37718C6.64525 2.35257 6.61269 2.35257 6.60507 2.37718Z" fill="white"/>
<path d="M7.92465 2.37718L7.86541 2.5667L7.67813 2.56821C7.65389 2.56838 7.64383 2.60142 7.66333 2.61678L7.814 2.73545L7.75748 2.92592C7.75018 2.95057 7.7765 2.97098 7.79624 2.95593L7.94861 2.83977L8.10098 2.95593C8.12073 2.97098 8.147 2.95057 8.13974 2.92592L8.08322 2.73545L8.23385 2.61678C8.25335 2.60142 8.24329 2.56838 8.21905 2.56821L8.03177 2.5667L7.97253 2.37718C7.96487 2.35257 7.93231 2.35257 7.92465 2.37718Z" fill="white"/>
<path d="M9.24393 2.37718L9.18469 2.5667L8.99741 2.56821C8.97316 2.56838 8.96311 2.60142 8.98261 2.61678L9.13323 2.73545L9.07672 2.92592C9.06942 2.95057 9.09573 2.97098 9.11548 2.95593L9.26785 2.83977L9.42022 2.95593C9.43996 2.97098 9.46624 2.95057 9.45898 2.92592L9.40246 2.73545L9.55308 2.61678C9.57259 2.60142 9.56253 2.56838 9.53828 2.56821L9.351 2.5667L9.29177 2.37718C9.28415 2.35257 9.25159 2.35257 9.24393 2.37718Z" fill="white"/>
<path d="M10.5635 2.37718L10.5043 2.5667L10.317 2.56821C10.2927 2.56838 10.2827 2.60142 10.3022 2.61678L10.4529 2.73545L10.3963 2.92592C10.389 2.95057 10.4154 2.97098 10.4351 2.95593L10.5875 2.83977L10.7398 2.95593C10.7596 2.97098 10.7859 2.95057 10.7786 2.92592L10.7221 2.73545L10.8727 2.61678C10.8922 2.60142 10.8822 2.56838 10.8579 2.56821L10.6707 2.5667L10.6114 2.37718C10.6037 2.35257 10.5712 2.35257 10.5635 2.37718Z" fill="white"/>
<path d="M7.92465 3.68962L7.86541 3.87913L7.67813 3.88064C7.65389 3.88082 7.64383 3.91386 7.66333 3.92921L7.814 4.04789L7.75748 4.23835C7.75018 4.26301 7.7765 4.28342 7.79624 4.26837L7.94861 4.1522L8.10098 4.26837C8.12073 4.28342 8.147 4.26301 8.13974 4.23835L8.08322 4.04789L8.23385 3.92921C8.25335 3.91386 8.24329 3.88082 8.21905 3.88064L8.03177 3.87913L7.97253 3.68962C7.96487 3.66509 7.93231 3.66509 7.92465 3.68962Z" fill="white"/>
<path d="M7.92465 1.06201L7.86541 1.25153L7.67813 1.25304C7.65389 1.25321 7.64383 1.28625 7.66333 1.30161L7.814 1.42028L7.75748 1.61075C7.75018 1.6354 7.7765 1.65581 7.79624 1.64076L7.94861 1.5246L8.10098 1.64076C8.12073 1.65581 8.147 1.6354 8.13974 1.61075L8.08322 1.42028L8.23385 1.30161C8.25335 1.28625 8.24329 1.25321 8.21905 1.25304L8.03177 1.25153L7.97253 1.06201C7.96487 1.03749 7.93231 1.03749 7.92465 1.06201Z" fill="white"/>
<path d="M9.24393 3.68962L9.18469 3.87913L8.99741 3.88064C8.97316 3.88082 8.96311 3.91386 8.98261 3.92921L9.13323 4.04789L9.07672 4.23835C9.06942 4.26301 9.09573 4.28342 9.11548 4.26837L9.26785 4.1522L9.42022 4.26837C9.43996 4.28342 9.46624 4.26301 9.45898 4.23835L9.40246 4.04789L9.55308 3.92921C9.57259 3.91386 9.56253 3.88082 9.53828 3.88064L9.351 3.87913L9.29177 3.68962C9.28415 3.66509 9.25159 3.66509 9.24393 3.68962Z" fill="white"/>
<path d="M10.5635 3.68962L10.5043 3.87913L10.317 3.88064C10.2927 3.88082 10.2827 3.91386 10.3022 3.92921L10.4529 4.04789L10.3963 4.23835C10.389 4.26301 10.4154 4.28342 10.4351 4.26837L10.5875 4.1522L10.7398 4.26837C10.7596 4.28342 10.7859 4.26301 10.7786 4.23835L10.7221 4.04789L10.8727 3.92921C10.8922 3.91386 10.8822 3.88082 10.8579 3.88064L10.6707 3.87913L10.6114 3.68962C10.6037 3.66509 10.5712 3.66509 10.5635 3.68962Z" fill="white"/>
<path d="M9.24393 1.06201L9.18469 1.25153L8.99741 1.25304C8.97316 1.25321 8.96311 1.28625 8.98261 1.30161L9.13323 1.42028L9.07672 1.61075C9.06942 1.6354 9.09573 1.65581 9.11548 1.64076L9.26785 1.5246L9.42022 1.64076C9.43996 1.65581 9.46624 1.6354 9.45898 1.61075L9.40246 1.42028L9.55308 1.30161C9.57259 1.28625 9.56253 1.25321 9.53828 1.25304L9.351 1.25153L9.29177 1.06201C9.28415 1.03749 9.25159 1.03749 9.24393 1.06201Z" fill="white"/>
<path d="M10.5635 1.06201L10.5043 1.25153L10.317 1.25304C10.2927 1.25321 10.2827 1.28625 10.3022 1.30161L10.4529 1.42028L10.3963 1.61075C10.389 1.6354 10.4154 1.65581 10.4351 1.64076L10.5875 1.5246L10.7398 1.64076C10.7596 1.65581 10.7859 1.6354 10.7786 1.61075L10.7221 1.42028L10.8727 1.30161C10.8922 1.28625 10.8822 1.25321 10.8579 1.25304L10.6707 1.25153L10.6114 1.06201C10.6037 1.03749 10.5712 1.03749 10.5635 1.06201Z" fill="white"/>
</g>
<defs>
<clipPath id="clip0_1668_322">
<rect width="20" height="16" rx="4" fill="white"/>
</clipPath>
</defs>
</svg>
