<svg width="32" height="32" viewBox="0 0 32 32" fill="none" xmlns="http://www.w3.org/2000/svg">
<path d="M25.0223 9.645C24.501 9.12349 23.8821 8.70979 23.2009 8.42753C22.5197 8.14528 21.7896 8 21.0523 8C20.3149 8 19.5848 8.14528 18.9036 8.42753C18.2224 8.70979 17.6035 9.12349 17.0822 9.645L16.4115 10.3157C16.1845 10.5427 15.8163 10.5427 15.5892 10.3157L14.9186 9.645C13.8656 8.59207 12.4376 8.00055 10.9485 8.00055C9.45944 8.00055 8.03136 8.59207 6.97844 9.645C5.92551 10.6979 5.33398 12.126 5.33398 13.6151C5.33398 15.1041 5.92551 16.5322 6.97844 17.5851L13.5334 24.1401C14.8959 25.5026 17.1049 25.5026 18.4673 24.1401L25.0223 17.5851C25.5438 17.0639 25.9575 16.4449 26.2398 15.7637C26.522 15.0826 26.6673 14.3524 26.6673 13.6151C26.6673 12.8777 26.522 12.1476 26.2398 11.4664C25.9575 10.7852 25.5438 10.1663 25.0223 9.645Z" stroke="#DFDFDF" stroke-width="1.2" stroke-linecap="round" stroke-linejoin="round"/>
</svg>
