<svg width="24" height="24" viewBox="0 0 24 24" fill="none" xmlns="http://www.w3.org/2000/svg">
<path d="M17.5572 12.8217C17.2002 12.7257 16.8274 12.9402 16.7314 13.3017C16.1667 15.4347 14.2234 16.925 12.0064 16.925C9.78943 16.925 7.84618 15.4355 7.28143 13.3017C7.18543 12.941 6.81418 12.7272 6.45568 12.8217C6.09568 12.917 5.88043 13.2867 5.97568 13.6475C6.69793 16.3715 9.17743 18.2742 12.0057 18.2742C14.8339 18.2742 17.3134 16.3715 18.0357 13.6475C18.1324 13.2867 17.9179 12.917 17.5572 12.8217Z" fill="#3A061F"/>
<path d="M21.4179 6.11837L13.9179 1.54113C12.7374 0.819625 11.2696 0.819625 10.0891 1.54113L2.58912 6.11837C1.50237 6.78062 0.828125 7.98288 0.828125 9.25488V19.0994C0.828125 21.1259 2.47663 22.7744 4.50312 22.7744H19.5031C21.5296 22.7744 23.1781 21.1259 23.1781 19.0994V9.25488C23.1781 7.98288 22.5039 6.78062 21.4179 6.11837ZM21.8281 19.1001C21.8281 20.3819 20.7849 21.4251 19.5031 21.4251H4.50312C3.22137 21.4251 2.17812 20.3819 2.17812 19.1001V9.25488C2.17812 8.45013 2.60412 7.68963 3.29112 7.27038L10.7911 2.69312C11.1654 2.46512 11.5839 2.35112 12.0031 2.35112C12.4224 2.35112 12.8409 2.46512 13.2144 2.69312L20.7144 7.27113C21.4014 7.69038 21.8274 8.45013 21.8274 9.25563L21.8281 19.1001Z" fill="#7F0E45"/>
</svg>
