<svg width="16" height="16" viewBox="0 0 16 16" fill="none" xmlns="http://www.w3.org/2000/svg">
<g clip-path="url(#clip0_1425_5563)">
<path d="M14.1333 1.86667C13 0.666667 11 0.0666667 8 0C5 0.0666667 3 0.666667 1.86667 1.86667C0.666667 3 0.0666667 5 0 8C0.0666667 11 0.666667 13 1.86667 14.1333C3 15.3333 5 15.9333 8 16C11 15.9333 13 15.3333 14.1333 14.1333C15.3333 12.9333 15.9333 11 16 8C15.9333 5 15.3333 3 14.1333 1.86667Z" fill="url(#paint0_linear_1425_5563)"/>
<path d="M12.4663 4.79961C12.1997 4.53294 11.7997 4.53294 11.533 4.79961L6.53301 9.79961L4.46634 7.73294C4.19967 7.46628 3.79967 7.46628 3.53301 7.73294C3.26634 7.99961 3.26634 8.39961 3.53301 8.66628L6.06634 11.1996C6.19967 11.3329 6.33301 11.3996 6.53301 11.3996C6.73301 11.3996 6.86634 11.3329 6.99967 11.1996L12.4663 5.73294C12.733 5.46628 12.733 5.06628 12.4663 4.79961Z" fill="white"/>
</g>
<defs>
<linearGradient id="paint0_linear_1425_5563" x1="12.8193" y1="-8.9375" x2="-2.85088" y2="-6.38213" gradientUnits="userSpaceOnUse">
<stop stop-color="#23A15D"/>
<stop offset="1" stop-color="#008557"/>
</linearGradient>
<clipPath id="clip0_1425_5563">
<rect width="16" height="16" fill="white"/>
</clipPath>
</defs>
</svg>
