<svg width="91" height="92" viewBox="0 0 91 92" fill="none" xmlns="http://www.w3.org/2000/svg">
<path d="M5.68815 17.5612V6.1862H17.0632C17.566 6.1862 18.0482 5.98646 18.4037 5.63092C18.7592 5.27538 18.959 4.79317 18.959 4.29036C18.959 3.78756 18.7592 3.30535 18.4037 2.94981C18.0482 2.59427 17.566 2.39453 17.0632 2.39453H3.79232C3.28951 2.39453 2.8073 2.59427 2.45176 2.94981C2.09622 3.30535 1.89648 3.78756 1.89648 4.29036V17.5612C1.89648 18.064 2.09622 18.5462 2.45176 18.9018C2.8073 19.2573 3.28951 19.457 3.79232 19.457C4.29512 19.457 4.77734 19.2573 5.13287 18.9018C5.48841 18.5462 5.68815 18.064 5.68815 17.5612Z" fill="#898D8F"/>
<path d="M73.9368 6.1862H85.3118V17.5612C85.3118 18.064 85.5116 18.5462 85.8671 18.9018C86.2227 19.2573 86.7049 19.457 87.2077 19.457C87.7105 19.457 88.1927 19.2573 88.5482 18.9018C88.9038 18.5462 89.1035 18.064 89.1035 17.5612V4.29036C89.1035 3.78756 88.9038 3.30535 88.5482 2.94981C88.1927 2.59427 87.7105 2.39453 87.2077 2.39453H73.9368C73.434 2.39453 72.9518 2.59427 72.5963 2.94981C72.2408 3.30535 72.041 3.78756 72.041 4.29036C72.041 4.79317 72.2408 5.27538 72.5963 5.63092C72.9518 5.98646 73.434 6.1862 73.9368 6.1862Z" fill="#898D8F"/>
<path d="M17.0632 85.8099H5.68815V74.4349C5.68815 73.9321 5.48841 73.4499 5.13287 73.0943C4.77734 72.7388 4.29512 72.5391 3.79232 72.5391C3.28951 72.5391 2.8073 72.7388 2.45176 73.0943C2.09622 73.4499 1.89648 73.9321 1.89648 74.4349V87.7057C1.89648 88.2085 2.09622 88.6908 2.45176 89.0463C2.8073 89.4018 3.28951 89.6016 3.79232 89.6016H17.0632C17.566 89.6016 18.0482 89.4018 18.4037 89.0463C18.7592 88.6908 18.959 88.2085 18.959 87.7057C18.959 87.2029 18.7592 86.7207 18.4037 86.3652C18.0482 86.0096 17.566 85.8099 17.0632 85.8099Z" fill="#898D8F"/>
<path d="M85.3118 74.4349V85.8099H73.9368C73.434 85.8099 72.9518 86.0096 72.5963 86.3652C72.2408 86.7207 72.041 87.2029 72.041 87.7057C72.041 88.2085 72.2408 88.6908 72.5963 89.0463C72.9518 89.4018 73.434 89.6016 73.9368 89.6016H87.2077C87.7105 89.6016 88.1927 89.4018 88.5482 89.0463C88.9038 88.6908 89.1035 88.2085 89.1035 87.7057V74.4349C89.1035 73.9321 88.9038 73.4499 88.5482 73.0943C88.1927 72.7388 87.7105 72.5391 87.2077 72.5391C86.7049 72.5391 86.2227 72.7388 85.8671 73.0943C85.5116 73.4499 85.3118 73.9321 85.3118 74.4349Z" fill="#898D8F"/>
<path d="M89.1042 49.7934H65.2925L65.975 46.0017C67.8886 46.117 69.7748 45.5033 71.2541 44.284C72.7335 43.0647 73.6961 41.3304 73.9484 39.43C74.2007 37.5296 73.7238 35.6042 72.6138 34.0412C71.5038 32.4782 69.843 31.3936 67.9656 31.0057C66.6385 11.0047 41.424 2.37861 28.1531 18.0382C25.0944 21.7029 23.2758 26.2428 22.9585 31.0057C21.0962 31.3987 19.4497 32.4778 18.3461 34.0285C17.2424 35.5793 16.7623 37.4884 17.0011 39.3767C17.2398 41.2651 18.1799 42.9946 19.6348 44.2219C21.0896 45.4492 22.9528 46.0845 24.8544 46.0017L25.5369 49.7934H1.89583C1.39303 49.7934 0.910814 49.9931 0.555277 50.3487C0.199739 50.7042 0 51.1864 0 51.6892C0 52.192 0.199739 52.6743 0.555277 53.0298C0.910814 53.3853 1.39303 53.5851 1.89583 53.5851H26.6744C28.0107 57.3863 30.4701 60.6919 33.7269 63.0642C32.7031 67.3299 29.3285 76.3351 18.9583 76.3351C18.4555 76.3351 17.9733 76.5348 17.6178 76.8903C17.2622 77.2459 17.0625 77.7281 17.0625 78.2309C17.0625 78.7337 17.2622 79.2159 17.6178 79.5715C17.9733 79.927 18.4555 80.1267 18.9583 80.1267C29.2906 80.1267 34.9592 72.714 37.1204 64.9601C39.7487 66.1686 42.6072 66.7943 45.5 66.7943C48.3928 66.7943 51.2513 66.1686 53.8796 64.9601C56.0408 72.6572 61.7094 80.1267 72.0417 80.1267C72.5445 80.1267 73.0267 79.927 73.3822 79.5715C73.7378 79.2159 73.9375 78.7337 73.9375 78.2309C73.9375 77.7281 73.7378 77.2459 73.3822 76.8903C73.0267 76.5348 72.5445 76.3351 72.0417 76.3351C61.6715 76.3351 58.2969 67.2919 57.2731 63.0642C60.5302 60.6879 62.9947 57.3842 64.3446 53.5851H89.1042C89.607 53.5851 90.0892 53.3853 90.4447 53.0298C90.8003 52.6743 91 52.192 91 51.6892C91 51.1864 90.8003 50.7042 90.4447 50.3487C90.0892 49.9931 89.607 49.7934 89.1042 49.7934ZM66.6575 42.2101C67.9467 34.968 67.7002 36.5226 67.8708 34.9869C68.6299 35.3337 69.2533 35.9212 69.6445 36.6583C70.0357 37.3954 70.1728 38.2409 70.0345 39.0639C69.8963 39.8868 69.4904 40.6412 68.8799 41.21C68.2693 41.7788 67.4882 42.1303 66.6575 42.2101ZM23.0533 34.9869C23.3592 37.4151 23.7895 39.826 24.3425 42.2101C23.4977 42.1451 22.699 41.799 22.0739 41.227C21.4487 40.6551 21.0332 39.8902 20.8935 39.0545C20.7539 38.2188 20.8982 37.3604 21.3034 36.6162C21.7086 35.8721 22.3514 35.2852 23.1292 34.949L23.0533 34.9869ZM29.5371 49.7934L27.0535 35.8969C26.5678 33.201 26.6811 30.4311 27.3856 27.7838C28.09 25.1365 29.3682 22.6767 31.1296 20.5786C43.4715 5.84798 67.2831 17.204 63.9465 35.8969L61.4629 49.7934C61.425 49.9072 29.556 49.7934 29.5371 49.7934ZM30.7504 53.5851H60.2496C58.9484 56.4017 56.868 58.7869 54.2542 60.4587C51.6405 62.1304 48.6027 63.0188 45.5 63.0188C42.3973 63.0188 39.3595 62.1304 36.7458 60.4587C34.132 58.7869 32.0516 56.4017 30.7504 53.5851Z" fill="#131214"/>
</svg>
