<svg width="24" height="24" viewBox="0 0 24 24" fill="none" xmlns="http://www.w3.org/2000/svg">
<g clip-path="url(#clip0_1571_4660)">
<path d="M11.9996 0.363281C5.57346 0.363281 0.363281 5.57346 0.363281 11.9996C0.363281 18.4273 5.57346 23.636 11.9996 23.636C18.4258 23.636 23.636 18.4273 23.636 11.9996C23.636 5.57346 18.4258 0.363281 11.9996 0.363281ZM13.0506 16.9669L13.2622 17.3531C13.2622 17.3531 12.3255 19.1895 10.7575 19.1895C9.92692 19.1895 9.51092 18.6593 9.51092 17.5996C9.51092 16.8411 9.71165 15.7647 10.1109 14.3749C10.5095 12.9815 10.7102 12.0593 10.7102 11.6047C10.7102 11.1967 10.5189 10.9218 10.1342 10.7807L10.252 10.2309C10.252 10.2309 11.6156 9.21783 12.6367 9.21783C13.3582 9.21783 13.7189 9.60837 13.7189 10.3924C13.7189 10.7691 13.5516 11.5873 13.2135 12.8498C12.9393 13.8615 12.732 14.6891 12.5916 15.3298C12.4738 15.8556 12.4156 16.2164 12.4156 16.4135C12.4156 16.7822 12.6273 16.9669 13.0506 16.9669ZM12.8906 8.00692C12.0069 8.00692 11.2906 7.29419 11.2906 6.41055C11.2906 5.52692 12.0062 4.80983 12.8906 4.80983C13.7727 4.80983 14.4884 5.52692 14.4884 6.41055C14.4884 7.29419 13.7727 8.00692 12.8906 8.00692Z" fill="#7F0E45"/>
</g>
<defs>
<clipPath id="clip0_1571_4660">
<rect width="24" height="24" fill="white"/>
</clipPath>
</defs>
</svg>
