<svg width="24" height="24" viewBox="0 0 24 24" fill="none" xmlns="http://www.w3.org/2000/svg">
<path d="M13.7139 17.9361C12.7997 18.4491 11.8479 18.8759 10.9472 19.1789C6.89941 17.8184 1.62691 13.9206 2.21866 9.27212C2.49241 7.11437 3.64816 5.55437 5.38966 4.99112C7.11316 4.43462 9.05191 5.02037 10.4537 6.52037C10.7094 6.79412 11.1849 6.79412 11.4399 6.52037C12.7194 5.14937 14.4542 4.53437 16.0757 4.87712C17.6042 5.19887 18.8049 6.30962 19.3697 7.92437C19.4934 8.27687 19.8819 8.46212 20.2292 8.33912C20.5817 8.21612 20.7669 7.83062 20.6439 7.47962C19.9194 5.40737 18.3557 3.97712 16.3539 3.55637C14.4714 3.16037 12.4937 3.74012 10.9464 5.11787C9.23341 3.59462 7.00141 3.05162 4.97416 3.70712C2.74666 4.42712 1.21591 6.44387 0.87916 9.10262C0.13966 14.9069 6.53566 19.1939 10.7409 20.5326C10.8077 20.5536 10.8774 20.5649 10.9457 20.5649C11.0139 20.5649 11.0844 20.5536 11.1504 20.5326C12.1967 20.2004 13.3104 19.7091 14.3732 19.1136C14.6987 18.9314 14.8142 18.5196 14.6319 18.1941C14.4512 17.8701 14.0417 17.7539 13.7139 17.9361Z" fill="#6E7375"/>
<path d="M23.1411 12.8094C22.9761 11.5067 22.2149 10.5137 21.1034 10.1552C20.1914 9.86041 19.1984 10.0472 18.3936 10.6397C17.5889 10.0479 16.5966 9.86041 15.6839 10.1552C14.5731 10.5144 13.8104 11.5067 13.6454 12.8094C13.2974 15.5582 16.2479 17.5637 18.1889 18.1824C18.2556 18.2034 18.3254 18.2147 18.3936 18.2147C18.4634 18.2147 18.5324 18.2034 18.5991 18.1824C20.5394 17.5622 23.4876 15.5544 23.1411 12.8094ZM18.3936 16.8264C16.8194 16.2534 14.7651 14.7167 14.9841 12.9797C15.0839 12.1982 15.4896 11.6364 16.0986 11.4399C16.2464 11.3919 16.3986 11.3687 16.5531 11.3687C17.0301 11.3687 17.5169 11.5914 17.8994 12.0009C18.1559 12.2747 18.6306 12.2747 18.8864 12.0009C19.3926 11.4587 20.0864 11.2419 20.6871 11.4399C21.2969 11.6364 21.7026 12.1982 21.8009 12.9789C22.0206 14.7129 19.9664 16.2519 18.3936 16.8264Z" fill="#898D8F"/>
</svg>
