<svg width="17" height="22" viewBox="0 0 17 22" fill="none" xmlns="http://www.w3.org/2000/svg">
<path fill-rule="evenodd" clip-rule="evenodd" d="M0.796875 9.95449C0.796875 17.5011 8.25005 21.2017 8.25005 21.2017C8.56621 21.3571 8.93652 21.3571 9.25264 21.2017C9.25264 21.2017 16.7059 17.5011 16.7059 9.95449C16.7059 7.84551 15.8707 5.82261 14.3733 4.32949C12.888 2.83843 10.8596 2 8.75137 2C6.64321 2 4.6148 2.83843 3.12944 4.32949C1.63203 5.82261 0.796875 7.84556 0.796875 9.95449ZM3.06963 9.95449C3.06963 8.44854 3.66553 7.00386 4.73525 5.93799L4.73853 5.93472C5.79849 4.87007 7.24668 4.27271 8.75137 4.27271C10.2561 4.27271 11.7042 4.87002 12.7642 5.93472L12.7675 5.93799C13.8373 7.00386 14.4332 8.44859 14.4332 9.95449C14.4332 15.0729 10.224 18.0132 8.75137 18.8852C7.27881 18.0132 3.06963 15.0729 3.06963 9.95449ZM8.75137 12.909C10.0014 12.909 11.0241 11.892 11.0241 10.6363C11.0241 9.38179 10.0014 8.36372 8.75137 8.36372C7.50137 8.36372 6.47861 9.38179 6.47861 10.6363C6.47861 11.8919 7.50142 12.909 8.75137 12.909Z" fill="white"/>
</svg>
