<svg width="40" height="40" viewBox="0 0 40 40" fill="none" xmlns="http://www.w3.org/2000/svg">
<path fill-rule="evenodd" clip-rule="evenodd" d="M17.5 12.8039C17.9506 12.8632 18.36 12.9695 18.7456 13.0657C19.4706 13.247 20.0831 13.4082 20.8081 12.6832C20.9869 12.5045 21.2556 12.4507 21.4894 12.5476C21.7225 12.6445 21.875 12.8726 21.875 13.1251C21.875 13.6764 21.9169 13.987 22.0575 14.1782C22.1844 14.3507 22.3794 14.3964 22.5875 14.4907C23.0856 14.7158 23.6769 15.0139 24.27 15.9033C24.3388 16.0064 24.375 16.127 24.375 16.2501V17.5395L23.125 17.6958C23.125 17.0895 23.125 16.4476 23.125 16.4476C22.6263 15.782 22.125 15.6676 21.7519 15.4808C21.4738 15.342 21.2388 15.1758 21.05 14.9183C20.9294 14.7539 20.8238 14.5445 20.7475 14.2582C20.1688 14.5289 19.6144 14.5176 19.0275 14.4101C18.5638 14.3251 18.0725 14.1476 17.5 14.0589V12.8039Z" fill="#898D8F"/>
<path fill-rule="evenodd" clip-rule="evenodd" d="M24.375 17.2461V18.1236H25C25.2369 18.1236 25.4531 18.2573 25.5588 18.4692L26.0269 19.4055C27.0163 19.5711 27.3413 20.3455 27.4475 20.8361L27.9388 21.0817C28.15 20.8205 28.4494 20.4836 28.7981 20.1842C29.195 19.8442 29.655 19.5636 30.1263 19.4405L30.5231 20.6299C30.1975 20.6705 29.8875 20.8967 29.6119 21.133C29.0481 21.6161 28.645 22.2205 28.645 22.2205C28.47 22.4824 28.1275 22.5736 27.8456 22.4324L26.5956 21.8074C26.3838 21.7017 26.25 21.4855 26.25 21.2486C26.25 21.2486 26.25 20.6236 25.625 20.6236C25.3881 20.6236 25.1719 20.4899 25.0663 20.278L24.6138 19.3736H23.75C23.405 19.3736 23.125 19.0936 23.125 18.7486C23.125 18.7486 23.125 18.0217 23.125 17.3848L24.375 17.2461Z" fill="#898D8F"/>
<path fill-rule="evenodd" clip-rule="evenodd" d="M29.7695 19.5645C29.9958 19.4682 30.227 19.4038 30.4583 19.3826C30.7164 19.2463 31.3758 18.8838 32.0089 18.417C32.417 18.1157 32.8239 17.7763 33.0695 17.4226C33.1152 17.3432 33.1633 17.2619 33.2139 17.1788C33.3864 16.8907 33.7558 16.7907 34.0502 16.9519C34.3445 17.1138 34.4589 17.4794 34.3083 17.7794C34.262 17.8726 34.207 17.9657 34.1445 18.0588C33.5995 18.9813 33.3764 19.4676 33.3845 19.7951C33.3864 19.8695 33.4333 19.9088 33.477 19.9545C33.537 20.0163 33.6039 20.077 33.6739 20.1432C33.7577 20.2226 33.8433 20.3082 33.9283 20.4051C34.0052 20.3763 34.0827 20.3538 34.1602 20.3345C34.3502 20.287 34.5477 20.3038 34.737 20.1688C34.8502 20.0876 34.952 19.9476 35.0658 19.7207C35.1714 19.5088 35.3877 19.3751 35.6245 19.3751C35.8614 19.3751 36.0777 19.5088 36.1833 19.7207C36.4208 20.1957 36.5727 20.6695 36.7321 21.0801L35.7839 22.0282L35.7689 21.9982C35.6527 21.7663 35.5558 21.4957 35.4495 21.2063C35.2439 21.3482 35.0389 21.4157 34.8389 21.4657C34.6277 21.5188 34.4027 21.4813 34.1914 21.692C34.0495 21.8338 33.8477 21.8995 33.6495 21.867C33.4514 21.8351 33.2802 21.7095 33.1908 21.5295C33.0002 21.1495 32.7295 20.9851 32.5502 20.7938C32.3095 20.537 32.1502 20.2601 32.1358 19.8457C31.4664 20.2782 30.9039 20.5588 30.9039 20.5588C30.817 20.6026 30.7214 20.6251 30.6245 20.6251C30.4933 20.6251 30.3639 20.6576 30.2383 20.712L29.7695 19.5645Z" fill="#898D8F"/>
<path fill-rule="evenodd" clip-rule="evenodd" d="M36.6369 20.832C36.6819 20.9545 36.7269 21.0733 36.7725 21.1864C36.9231 21.5583 37.055 21.8758 37.4981 21.8758C37.8044 21.8758 38.0663 22.0983 38.115 22.4008C38.1644 22.7033 37.9869 22.997 37.6956 23.0939C36.79 23.3958 36.6025 23.6889 36.3856 23.9908C36.1588 24.3058 35.9069 24.6202 35.2775 24.9345C35.0369 25.0552 34.7463 25.0077 34.5563 24.8177C34.3131 24.5745 34.1431 24.4452 33.97 24.4677C33.7938 24.4908 33.6663 24.6414 33.5313 24.7839C33.3225 25.0039 33.1313 25.2514 32.94 25.4427C32.7613 25.6214 32.4925 25.6752 32.2588 25.5783C32.0256 25.4814 31.8731 25.2533 31.8731 25.0008C31.8731 24.2839 31.9069 23.8108 31.75 23.4158L32.8025 22.7145C32.9281 22.962 33.005 23.2302 33.0519 23.542C33.3494 23.3283 33.6794 23.2045 34.0463 23.217C34.3431 23.227 34.6831 23.3283 35.0588 23.6033C35.2844 23.4233 35.3806 23.2408 35.5138 23.0633C35.6538 22.8764 35.8138 22.6852 36.0763 22.4939C35.96 22.3489 35.8594 22.1827 35.7675 21.9989C35.7213 21.9064 35.6775 21.8077 35.6356 21.7045L36.6369 20.832Z" fill="#898D8F"/>
<path fill-rule="evenodd" clip-rule="evenodd" d="M26.3554 27.9644C26.0579 27.8725 25.8117 27.7469 25.6185 27.605C25.2554 27.3381 25.0548 27.0019 24.9935 26.6669C24.9017 26.1606 25.1035 25.5775 25.7885 25.1656C26.0567 24.7206 26.3967 24.4794 26.7498 24.3625C27.2235 24.2056 27.7592 24.3031 28.2404 24.525C28.3917 23.93 28.731 23.3581 29.4823 23.1813C29.7492 22.4956 30.5136 21.875 31.8736 21.875C32.0392 21.875 32.1986 21.9406 32.3154 22.0581C32.6404 22.3825 32.8354 22.7038 32.9523 23.0875L31.8586 23.9056C31.8311 23.6088 31.7623 23.3656 31.5986 23.1375C31.2761 23.1688 31.0223 23.2556 30.8423 23.3906C30.7079 23.4913 30.6236 23.6156 30.6236 23.75C30.6236 24.095 30.3436 24.375 29.9985 24.375C29.8504 24.375 29.7348 24.3981 29.6492 24.4569C29.5204 24.5444 29.4717 24.695 29.436 24.8425C29.3685 25.12 29.3735 25.415 29.3735 25.625C29.3735 25.8775 29.221 26.1056 28.9879 26.2025C28.7542 26.2994 28.4854 26.2456 28.3067 26.0669C28.1167 25.8769 27.8529 25.6838 27.5717 25.5844C27.4279 25.5344 27.2798 25.5038 27.1423 25.5488C27.0079 25.5938 26.9023 25.715 26.8073 25.9044C26.7473 26.0256 26.6492 26.1238 26.5279 26.1838C26.3679 26.2638 26.2467 26.3325 26.2235 26.4388C26.2079 26.5113 26.2935 26.5525 26.3742 26.6088C26.5473 26.73 26.7923 26.8138 27.0973 26.8513L26.3554 27.9644Z" fill="#898D8F"/>
<path fill-rule="evenodd" clip-rule="evenodd" d="M26.7606 26.7852C26.9669 26.8445 27.2156 26.8764 27.5013 26.8764C27.8463 26.8764 28.1263 27.1564 28.1263 27.5014C28.1263 27.7114 28.1213 28.0064 28.1888 28.2839C28.2244 28.4314 28.2731 28.582 28.4019 28.6695C28.4875 28.7283 28.6031 28.7514 28.7513 28.7514C29.0138 28.7514 29.2481 28.9152 29.3381 29.1614C29.4281 29.4077 29.355 29.6839 29.155 29.8533C27.9688 30.8583 27.6119 31.7339 27.4956 32.5858C27.4631 32.8214 27.3006 33.0177 27.0756 33.0939C26.8506 33.1696 26.6025 33.1114 26.4344 32.9433C26.0506 32.5595 25.5406 32.1758 25.2338 31.9564L23.9831 32.4564C23.7906 32.5339 23.5725 32.5102 23.4006 32.3939C23.2294 32.2777 23.1263 32.0839 23.1263 31.8764C23.1263 31.2745 23.1456 30.6789 23.5169 30.0795C23.1806 29.8314 22.89 29.7302 22.6094 29.677L23.0088 28.4783C23.5406 28.5939 24.1056 28.8464 24.8181 29.5595C25.0625 29.8033 25.0625 30.1995 24.8181 30.4433C24.6656 30.5964 24.565 30.7502 24.5 30.9039L25.0819 30.6714C25.2725 30.5945 25.4894 30.617 25.6606 30.7314C25.6606 30.7314 26.0531 30.9939 26.51 31.3539C26.7088 30.8014 27.0356 30.2295 27.585 29.6283C27.1256 29.2445 26.9606 28.6277 26.9044 28.0864C26.5838 28.0414 26.3038 27.9608 26.0669 27.8583L26.7606 26.7852Z" fill="#898D8F"/>
<path fill-rule="evenodd" clip-rule="evenodd" d="M11.8466 20.7128C12.1147 20.654 12.3459 20.554 12.5634 20.4915C12.9716 20.3753 13.3503 20.3415 13.7434 20.4872C14.0941 20.6172 14.4803 20.904 14.8959 21.5272C14.9647 21.6303 15.0009 21.7509 15.0009 21.874C15.0009 22.124 15.1641 22.269 15.3047 22.404C15.5059 22.5972 15.706 22.7722 15.8347 22.9584C15.9872 23.1784 16.0672 23.4159 16.0541 23.6853C16.0466 23.8453 16.0022 24.0303 15.8891 24.2403L19.7391 26.9903C19.7672 27.0103 19.7935 27.0328 19.8178 27.0572C21.1447 28.3841 21.8753 28.3159 22.6047 28.4091C22.8953 28.4459 23.1872 28.4997 23.4997 28.6259L22.9328 29.7603C22.6235 29.6516 22.3403 29.6378 22.0416 29.6047C21.2516 29.5172 20.366 29.3597 18.971 27.9778L14.6378 24.8828C14.4884 24.7759 14.3934 24.6084 14.3778 24.4253C14.3628 24.2428 14.4291 24.0622 14.5591 23.9322C14.6603 23.8309 14.7466 23.7065 14.7853 23.6472C14.7559 23.6128 14.7109 23.5609 14.6766 23.5284C14.5541 23.4109 14.4159 23.2909 14.2897 23.1547C14.0272 22.8728 13.8134 22.5353 13.7628 22.0847C13.5741 21.8178 13.4291 21.6759 13.2584 21.6453C13.0403 21.6059 12.8316 21.7159 12.5859 21.7947C12.2416 21.9047 11.8616 22.0097 11.4141 22.0097L11.8466 20.7128Z" fill="#898D8F"/>
<path fill-rule="evenodd" clip-rule="evenodd" d="M4.69531 18.4383C4.82781 18.1558 4.96344 17.9364 5.10094 17.7733C5.34469 17.4845 5.61282 17.3333 5.89219 17.277C6.15157 17.2251 6.43282 17.2545 6.73907 17.3889C6.76907 17.1814 6.82282 16.9945 6.89282 16.8333C7.09782 16.3658 7.44657 16.077 7.85032 15.9814C8.32345 15.8689 8.9872 16.0314 9.62283 16.7895C10.4816 16.6283 11.0085 16.9364 11.306 17.337C11.5697 17.6926 11.6666 18.1814 11.6035 18.6576C11.5722 18.8964 11.501 19.1289 11.4003 19.3345C11.6191 19.6608 11.7178 19.9902 11.7178 20.312C11.7178 20.4552 11.6985 20.6002 11.6572 20.7452C11.8166 20.7252 11.9635 20.687 12.1016 20.6439L11.9385 21.9627C11.5103 22.0383 11.0197 22.0402 10.4266 21.8427C10.221 21.7739 10.0653 21.6039 10.016 21.3933C9.96595 21.182 10.0291 20.9608 10.1822 20.8077C10.3528 20.637 10.4678 20.4827 10.4678 20.312C10.4678 20.1414 10.3528 19.987 10.1822 19.8164C9.93783 19.5727 9.93783 19.1764 10.1822 18.9327C10.3028 18.8114 10.366 18.6001 10.3722 18.3989C10.3772 18.262 10.3722 18.112 10.2585 18.0414C10.1116 17.9495 9.89033 17.9864 9.57158 18.0926C9.30408 18.1814 9.01033 18.0808 8.85408 17.8464C8.66657 17.5651 8.4872 17.3701 8.31095 17.2614C8.24532 17.2208 8.19095 17.1851 8.13782 17.1976C8.04782 17.2189 8.02845 17.3345 7.9972 17.4551C7.9222 17.7445 7.95032 18.1264 8.0922 18.552C8.18345 18.827 8.07407 19.1289 7.82782 19.2814C7.58095 19.4333 7.2622 19.3964 7.0572 19.1914C6.78844 18.9233 6.55719 18.7176 6.34719 18.592C6.26469 18.5426 6.20344 18.4895 6.13719 18.5033C6.07594 18.5151 6.04657 18.5851 5.99469 18.6614C5.87657 18.8345 5.76907 19.0727 5.65907 19.3783L4.69531 18.4383Z" fill="#898D8F"/>
<path fill-rule="evenodd" clip-rule="evenodd" d="M5.80564 19.0125C5.74501 19.1475 5.68564 19.3025 5.62501 19.4781V21.875C5.62501 22.0675 5.53626 22.2494 5.38439 22.3675C5.23314 22.4862 5.03501 22.5281 4.84813 22.4812L2.34813 21.8562C2.07 21.7869 1.875 21.5369 1.875 21.25V9.99995C1.875 9.75308 2.02063 9.52933 2.24625 9.4287L7.87127 6.92869C8.07814 6.83682 8.31877 6.86432 8.50002 6.99994L13.5 10.75C13.6575 10.8681 13.75 11.0531 13.75 11.25C13.75 11.2956 13.785 11.3437 13.8157 11.4037C13.8863 11.5406 13.9869 11.6893 14.1032 11.8431C14.4125 12.2512 14.8244 12.6843 15.1613 13.0262C16.3669 12.6325 17.3094 12.7368 18.1251 12.9162V14.1893C17.3532 13.9956 16.4475 13.8443 15.2319 14.33C15 14.4231 14.735 14.3687 14.5582 14.1918C14.0975 13.7312 13.3175 12.9443 12.8888 12.29C12.7307 12.0481 12.62 11.8143 12.5582 11.6062L8.04377 8.21995L3.125 10.4062V20.7619L4.37501 21.0744V19.375C4.37501 19.3081 4.38563 19.2412 4.40688 19.1775C4.53876 18.7825 4.67501 18.4606 4.81438 18.205L5.80564 19.0125Z" fill="#898D8F"/>
</svg>
