<svg width="40" height="40" viewBox="0 0 40 40" fill="none" xmlns="http://www.w3.org/2000/svg">
<path d="M36.22 17.18C35.7585 17.18 35.3159 17.3633 34.9896 17.6896C34.6633 18.0159 34.48 18.4585 34.48 18.92H32.16C32.16 18.3047 31.9156 17.7146 31.4805 17.2795C31.0454 16.8444 30.4553 16.6 29.84 16.6H27.52C27.52 15.9847 27.2756 15.3946 26.8405 14.9595C26.4054 14.5244 25.8153 14.28 25.2 14.28H24.62V13.7C24.62 13.0847 24.3756 12.4946 23.9405 12.0595C23.5054 11.6244 22.9153 11.38 22.3 11.38V8.48H23.46C23.9215 8.48 24.3641 8.29668 24.6904 7.97037C25.0167 7.64405 25.2 7.20148 25.2 6.74C25.2 6.27852 25.0167 5.83595 24.6904 5.50963C24.3641 5.18332 23.9215 5 23.46 5H16.5C16.0385 5 15.5959 5.18332 15.2696 5.50963C14.9433 5.83595 14.76 6.27852 14.76 6.74C14.76 7.20148 14.9433 7.64405 15.2696 7.97037C15.5959 8.29668 16.0385 8.48 16.5 8.48H17.66V11.38C17.0447 11.38 16.4546 11.6244 16.0195 12.0595C15.5844 12.4946 15.34 13.0847 15.34 13.7V14.28H14.586C14.1856 14.2811 13.7922 14.3853 13.4437 14.5825C13.0953 14.7798 12.8035 15.0636 12.5966 15.4064L11.5317 17.18H10.12C9.5047 17.18 8.9146 17.4244 8.47951 17.8595C8.04443 18.2946 7.8 18.8847 7.8 19.5V24.14H5.48C5.48 23.6785 5.29668 23.2359 4.97037 22.9096C4.64405 22.5833 4.20148 22.4 3.74 22.4C3.27852 22.4 2.83595 22.5833 2.50963 22.9096C2.18332 23.2359 2 23.6785 2 24.14V28.78C2 29.2415 2.18332 29.6841 2.50963 30.0104C2.83595 30.3367 3.27852 30.52 3.74 30.52C4.20148 30.52 4.64405 30.3367 4.97037 30.0104C5.29668 29.6841 5.48 29.2415 5.48 28.78H7.8V29.36C7.8 29.9753 8.04443 30.5654 8.47951 31.0005C8.9146 31.4356 9.5047 31.68 10.12 31.68H12.44C12.44 32.2953 12.6844 32.8854 13.1195 33.3205C13.5546 33.7556 14.1447 34 14.76 34H25.374C25.7743 33.9988 26.1676 33.8946 26.516 33.6975C26.8645 33.5003 27.1563 33.2168 27.3634 32.8742L28.4283 31.1H29.84C30.4553 31.1 31.0454 30.8556 31.4805 30.4205C31.9156 29.9854 32.16 29.3953 32.16 28.78V25.88H34.48C34.48 26.3415 34.6633 26.7841 34.9896 27.1104C35.3159 27.4367 35.7585 27.62 36.22 27.62C36.6815 27.62 37.1241 27.4367 37.4504 27.1104C37.7767 26.7841 37.96 26.3415 37.96 25.88V18.92C37.96 18.4585 37.7767 18.0159 37.4504 17.6896C37.1241 17.3633 36.6815 17.18 36.22 17.18ZM4.32 28.78C4.32 28.9338 4.25889 29.0814 4.15012 29.1901C4.04135 29.2989 3.89383 29.36 3.74 29.36C3.58617 29.36 3.43865 29.2989 3.32988 29.1901C3.22111 29.0814 3.16 28.9338 3.16 28.78V24.14C3.16 23.9862 3.22111 23.8386 3.32988 23.7299C3.43865 23.6211 3.58617 23.56 3.74 23.56C3.89383 23.56 4.04135 23.6211 4.15012 23.7299C4.25889 23.8386 4.32 23.9862 4.32 24.14V28.78ZM7.8 27.62H5.48V25.3H7.8V27.62ZM16.5 7.32C16.3462 7.32 16.1986 7.25889 16.0899 7.15012C15.9811 7.04135 15.92 6.89383 15.92 6.74C15.92 6.58617 15.9811 6.43865 16.0899 6.32988C16.1986 6.22111 16.3462 6.16 16.5 6.16H23.46C23.6138 6.16 23.7614 6.22111 23.8701 6.32988C23.9789 6.43865 24.04 6.58617 24.04 6.74C24.04 6.89383 23.9789 7.04135 23.8701 7.15012C23.7614 7.25889 23.6138 7.32 23.46 7.32H16.5ZM21.14 8.48V11.38H18.82V8.48H21.14ZM16.5 13.7C16.5 13.3923 16.6222 13.0973 16.8398 12.8798C17.0573 12.6622 17.3523 12.54 17.66 12.54H22.3C22.6077 12.54 22.9027 12.6622 23.1202 12.8798C23.3378 13.0973 23.46 13.3923 23.46 13.7V14.28H16.5V13.7ZM31 28.78C31 29.0877 30.8778 29.3827 30.6602 29.6002C30.4427 29.8178 30.1476 29.94 29.84 29.94H28.1C27.9999 29.94 27.9015 29.9659 27.8144 30.0152C27.7273 30.0645 27.6545 30.1355 27.6029 30.2213L26.3699 32.2768C26.2662 32.4483 26.1201 32.5902 25.9457 32.6888C25.7713 32.7875 25.5744 32.8395 25.374 32.84H14.76C14.4523 32.84 14.1573 32.7178 13.9398 32.5002C13.7222 32.2827 13.6 31.9876 13.6 31.68V31.1C13.6 30.9462 13.5389 30.7986 13.4301 30.6899C13.3214 30.5811 13.1738 30.52 13.02 30.52H10.12C9.81235 30.52 9.5173 30.3978 9.29976 30.1802C9.08221 29.9627 8.96 29.6677 8.96 29.36V19.5C8.96 19.1923 9.08221 18.8973 9.29976 18.6798C9.5173 18.4622 9.81235 18.34 10.12 18.34H11.86C11.9601 18.34 12.0585 18.3141 12.1456 18.2648C12.2327 18.2155 12.3055 18.1445 12.3571 18.0587L13.5901 16.0032C13.6938 15.8317 13.8399 15.6898 14.0143 15.5912C14.1887 15.4925 14.3856 15.4405 14.586 15.44H25.2C25.5077 15.44 25.8027 15.5622 26.0202 15.7798C26.2378 15.9973 26.36 16.2923 26.36 16.6V17.18C26.36 17.3338 26.4211 17.4814 26.5299 17.5901C26.6386 17.6989 26.7862 17.76 26.94 17.76H29.84C30.1476 17.76 30.4427 17.8822 30.6602 18.0998C30.8778 18.3173 31 18.6123 31 18.92V28.78ZM34.48 24.72H32.16V20.08H34.48V24.72ZM36.8 25.88C36.8 26.0338 36.7389 26.1814 36.6301 26.2901C36.5214 26.3989 36.3738 26.46 36.22 26.46C36.0662 26.46 35.9186 26.3989 35.8099 26.2901C35.7011 26.1814 35.64 26.0338 35.64 25.88V18.92C35.64 18.7662 35.7011 18.6186 35.8099 18.5099C35.9186 18.4011 36.0662 18.34 36.22 18.34C36.3738 18.34 36.5214 18.4011 36.6301 18.5099C36.7389 18.6186 36.8 18.7662 36.8 18.92V25.88Z" fill="#898D8F"/>
<path d="M23.4622 22.1098H21.1242L21.9902 19.0793C22.0149 18.993 22.0192 18.9021 22.0027 18.8138C21.9863 18.7255 21.9496 18.6422 21.8955 18.5705C21.8414 18.4988 21.7714 18.4407 21.691 18.4006C21.6106 18.3606 21.522 18.3398 21.4322 18.3398H18.2422C18.1161 18.3398 17.9935 18.3808 17.8928 18.4567C17.7921 18.5325 17.7189 18.6391 17.6842 18.7603L15.9442 24.8503C15.9195 24.9367 15.9152 25.0276 15.9317 25.1159C15.9481 25.2042 15.9848 25.2875 16.0389 25.3592C16.093 25.4309 16.163 25.489 16.2434 25.5291C16.3238 25.5691 16.4124 25.5899 16.5022 25.5898H18.7398L18.2474 29.2827C18.2308 29.4114 18.2579 29.542 18.3243 29.6536C18.3907 29.7651 18.4926 29.8512 18.6136 29.8979C18.7347 29.9447 18.868 29.9495 18.9922 29.9116C19.1163 29.8737 19.2241 29.7952 19.2984 29.6887L23.9384 23.0187C23.9982 22.9317 24.0332 22.8301 24.0396 22.7247C24.0459 22.6193 24.0234 22.5142 23.9744 22.4207C23.9254 22.3271 23.8518 22.2488 23.7615 22.194C23.6713 22.1392 23.5678 22.1101 23.4622 22.1098ZM19.7137 27.063L19.977 25.0864C19.9879 25.0045 19.9812 24.9212 19.9573 24.8421C19.9334 24.763 19.8929 24.69 19.8385 24.6278C19.784 24.5656 19.717 24.5158 19.6417 24.4817C19.5665 24.4475 19.4848 24.4299 19.4022 24.4298H17.2713L18.6795 19.4998H20.6631L19.7978 22.5303C19.7731 22.6166 19.7688 22.7075 19.7851 22.7958C19.8015 22.884 19.8382 22.9673 19.8922 23.0389C19.9463 23.1106 20.0162 23.1688 20.0965 23.2089C20.1768 23.2489 20.2654 23.2698 20.3551 23.2698H22.3521L19.7137 27.063Z" fill="#898D8F"/>
</svg>
