<svg width="149" height="24" viewBox="0 0 149 24" fill="none" xmlns="http://www.w3.org/2000/svg">
<path d="M137.903 20.5948H133.779L124.809 1.93617L128.05 1.83797V23.4754H122.616V0.0703125H128.901L136.856 16.7321H134.892L142.846 0.0703125H149V23.4754H143.501V1.83797L146.872 1.93617L137.903 20.5948Z" fill="#131214"/>
<path d="M115.974 23.4754H110.344V0.0703125H115.974V23.4754Z" fill="#131214"/>
<path d="M88.101 23.4754H82.4707V0.0703125H88.101V23.4754ZM105.352 23.4754H98.0195L87.2827 11.3309H87.8064L97.1685 0.0703125H103.977L93.895 11.822V10.8399L105.352 23.4754Z" fill="#131214"/>
<path d="M76.8417 23.4754H60.7363V0.0703125H66.3666V18.6635H76.8417V23.4754Z" fill="#131214"/>
<path d="M54.1912 0.0703125V14.2443C54.1912 17.3213 53.2637 19.7219 51.4087 21.4459C49.5756 23.1481 47.0332 23.9992 43.7816 23.9992C40.5518 23.9992 38.0094 23.1481 36.1545 21.4459C34.2995 19.7219 33.3721 17.3213 33.3721 14.2443V0.0703125H39.0024V14.2443C39.0024 15.641 39.4279 16.7976 40.279 17.7142C41.1301 18.6089 42.2977 19.0563 43.7816 19.0563C45.2874 19.0563 46.4658 18.6089 47.3169 17.7142C48.168 16.7976 48.5936 15.641 48.5936 14.2443V0.0703125H54.1912Z" fill="#131214"/>
<path d="M15.7694 20.5948H11.6449L2.67563 1.93617L5.91633 1.83797V23.4754H0.482422V0.0703125H6.76743L14.7219 16.7321H12.7578L20.7123 0.0703125H26.8664V23.4754H21.367V1.83797L24.7386 1.93617L15.7694 20.5948Z" fill="#131214"/>
</svg>
