<svg width="217" height="132" viewBox="0 0 217 132" fill="none" xmlns="http://www.w3.org/2000/svg">
<g clip-path="url(#clip0_1375_10979)">
<path d="M90.3657 61.5781H83.5977V85.4001H90.3657" fill="#EBEBEB"/>
<path d="M108.864 63.5981C108.864 63.5981 108.576 63.4057 109.21 62.5722C109.844 61.7387 108.864 61.2899 108.864 61.2899C106.098 62.8929 102.238 61.2899 102.238 61.2899C102.238 61.2899 106.79 59.8792 107.366 58.5329C107.797 57.527 107.038 57.4159 106.626 57.4238C107.091 57.3751 108.097 57.2098 108.403 56.6734C108.807 55.9679 107.222 55.1344 107.222 55.1344C107.222 55.1344 107.481 54.7496 107.222 54.0444C106.963 53.3393 101.028 52.3134 101.028 52.3134C102.757 52.5057 103.391 50.7746 103.391 50.7746C103.391 50.7746 106.329 50.8387 107.021 49.6847C107.712 48.5304 106.56 48.21 104.601 47.2484C102.642 46.2868 98.3204 42.6963 98.3204 42.6963C98.3204 42.6963 101.028 42.4396 101.777 41.7984C102.526 41.1573 101.835 41.0292 101.835 41.0292C105.062 41.3497 103.967 39.6189 103.967 39.6189C99.6457 38.2722 97.3407 35.3232 97.3407 35.3232C97.3407 35.3232 99.3572 34.8744 100.395 33.9125C101.432 32.9509 99.5304 32.6945 99.5304 32.6945C99.5304 32.6945 103.333 32.1814 101.144 30.771C99.4794 29.699 96.8172 28.2566 95.9894 27.8232C96.8966 28.1578 98.9543 27.7573 98.9543 27.7573C101.374 26.6674 98.9543 25.0643 98.9543 25.0643C96.131 23.4616 91.9827 19.4223 91.9827 19.4223C91.9827 19.4223 94.057 20.5122 95.0942 20.1915C96.1313 19.871 93.9417 18.5884 93.9417 18.5884C93.9417 18.5884 95.0364 18.9088 95.4974 18.5884C95.9585 18.2677 94.2874 16.7933 94.2874 16.7933C91.8036 15.173 88.7418 10.9202 87.4609 9.09375C86.1802 10.9202 83.1181 15.173 80.6343 16.7933C80.6343 16.7933 78.9635 18.2677 79.4243 18.5884C79.8853 18.9088 80.98 18.5884 80.98 18.5884C80.98 18.5884 78.7907 19.8707 79.8278 20.1915C80.865 20.5122 82.939 19.4223 82.939 19.4223C82.939 19.4223 78.7907 23.4616 75.9674 25.0643C75.9674 25.0643 73.5474 26.6674 75.9674 27.7573C75.9674 27.7573 78.0252 28.1578 78.932 27.8232C78.1045 28.2566 75.4419 29.6987 73.7781 30.771C71.5884 32.1814 75.3913 32.6945 75.3913 32.6945C75.3913 32.6945 73.4898 32.9509 74.5273 33.9125C75.5645 34.8741 77.581 35.3232 77.581 35.3232C77.581 35.3232 75.2763 38.2725 70.9548 39.6189C70.9548 39.6189 69.8601 41.35 73.0866 41.0292C73.0866 41.0292 72.3952 41.1573 73.1441 41.7984C73.8931 42.4396 76.6013 42.6963 76.6013 42.6963C76.6013 42.6963 72.2801 46.2868 70.3209 47.2484C68.3619 48.21 67.2097 48.5307 67.9008 49.6847C68.5923 50.8387 71.5309 50.7746 71.5309 50.7746C71.5309 50.7746 72.1645 52.5057 73.8931 52.3134C73.8931 52.3134 67.958 53.3393 67.6992 54.0444C67.4401 54.7496 67.6992 55.1344 67.6992 55.1344C67.6992 55.1344 66.115 55.9679 66.5183 56.6734C66.8249 57.2098 67.8311 57.3751 68.2956 57.4238C67.8836 57.4156 67.1253 57.527 67.5554 58.5329C68.1315 59.8792 72.6834 61.2899 72.6834 61.2899C72.6834 61.2899 68.8229 62.8929 66.0575 61.2899C66.0575 61.2899 65.0779 61.7387 65.7118 62.5722C66.3457 63.4057 66.0575 63.5981 66.0575 63.5981C66.0575 63.5981 64.6171 62.5082 65.251 64.1749C65.8846 65.842 69.2265 66.8679 69.2265 66.8679C69.2265 66.8679 67.325 67.1887 67.9011 68.2143C68.4772 69.2402 70.8973 70.4582 73.5477 70.7149C76.1981 70.9713 79.7703 70.0097 79.7703 70.0097C79.7703 70.0097 77.3503 71.2917 79.021 71.9972C80.6921 72.7024 82.5933 71.0996 82.5933 71.0996C82.5933 71.0996 82.2475 72.7406 83.6304 72.1767C85.0133 71.6124 86.1655 70.5228 86.1655 70.5228C86.1655 70.5228 86.5972 72.9409 87.4605 72.3625C88.3242 72.9409 88.7559 70.5228 88.7559 70.5228C88.7559 70.5228 89.9084 71.6127 91.291 72.1767C92.6738 72.7406 92.3281 71.0996 92.3281 71.0996C92.3281 71.0996 94.2293 72.7024 95.9003 71.9972C97.5711 71.292 95.1514 70.0097 95.1514 70.0097C95.1514 70.0097 98.7236 70.9713 101.374 70.7149C104.024 70.4585 106.444 69.2402 107.021 68.2143C107.597 67.1883 105.695 66.8679 105.695 66.8679C105.695 66.8679 109.037 65.8423 109.671 64.1749C110.305 62.5082 108.864 63.5981 108.864 63.5981Z" fill="#EBEBEB"/>
<path d="M59.8501 69.1016H55.3398V84.977H59.8501V69.1016Z" fill="#EBEBEB"/>
<path d="M72.1722 70.4511C72.1722 70.4511 71.9802 70.3231 72.4025 69.7676C72.8248 69.2121 72.1722 68.913 72.1722 68.913C70.3292 69.9813 67.7566 68.913 67.7566 68.913C67.7566 68.913 70.7899 67.9731 71.1738 67.0759C71.4604 66.4055 70.955 66.3315 70.6805 66.3368C70.99 66.3045 71.6605 66.1943 71.8649 65.8369C72.1337 65.3667 71.0781 64.8113 71.0781 64.8113C71.0781 64.8113 71.2507 64.5549 71.0781 64.0851C70.9056 63.6149 66.9501 62.9314 66.9501 62.9314C68.102 63.0598 68.5246 61.9058 68.5246 61.9058C68.5246 61.9058 70.483 61.9485 70.9437 61.1796C71.4045 60.4104 70.6364 60.1967 69.3311 59.5558C68.0254 58.915 65.1459 56.522 65.1459 56.522C65.1459 56.522 66.9504 56.351 67.4496 55.9239C67.9488 55.4967 67.4881 55.4111 67.4881 55.4111C69.6383 55.6248 68.9088 54.4711 68.9088 54.4711C66.0289 53.5739 64.4929 51.6084 64.4929 51.6084C64.4929 51.6084 65.8367 51.3093 66.5281 50.6684C67.2192 50.0276 65.952 49.8566 65.952 49.8566C65.952 49.8566 68.4865 49.5148 67.0273 48.5746C65.9183 47.86 64.144 46.899 63.5923 46.6103C64.1969 46.8334 65.5682 46.5664 65.5682 46.5664C67.1808 45.8402 65.5682 44.7719 65.5682 44.7719C63.6867 43.7036 60.9222 41.0119 60.9222 41.0119C60.9222 41.0119 62.3045 41.7381 62.9956 41.5247C63.6867 41.3109 62.2276 40.4564 62.2276 40.4564C62.2276 40.4564 62.9571 40.6701 63.2644 40.4564C63.5717 40.2427 62.4579 39.2601 62.4579 39.2601C60.8028 38.1802 58.7622 35.3463 57.9086 34.1289C57.0552 35.3463 55.0147 38.1802 53.3592 39.2601C53.3592 39.2601 52.2458 40.2427 52.5531 40.4564C52.8603 40.6701 53.5896 40.4564 53.5896 40.4564C53.5896 40.4564 52.1304 41.3109 52.8216 41.5247C53.5127 41.7384 54.8949 41.0119 54.8949 41.0119C54.8949 41.0119 52.1301 43.7036 50.249 44.7719C50.249 44.7719 48.6364 45.8402 50.249 46.5664C50.249 46.5664 51.6203 46.8331 52.2245 46.6103C51.6731 46.899 49.8989 47.8603 48.7898 48.5746C47.3307 49.5145 49.8648 49.8566 49.8648 49.8566C49.8648 49.8566 48.5979 50.0276 49.289 50.6684C49.9802 51.3093 51.324 51.6084 51.324 51.6084C51.324 51.6084 49.7882 53.5739 46.9081 54.4711C46.9081 54.4711 46.1785 55.6248 48.3288 55.4111C48.3288 55.4111 47.868 55.4964 48.3672 55.9239C48.8664 56.3513 50.6713 56.522 50.6713 56.522C50.6713 56.522 47.7914 58.9147 46.4861 59.5558C45.1804 60.1967 44.4127 60.4104 44.8735 61.1796C45.3342 61.9488 47.2926 61.9058 47.2926 61.9058C47.2926 61.9058 47.7149 63.0595 48.8667 62.9314C48.8667 62.9314 44.9116 63.6149 44.739 64.0851C44.5662 64.5552 44.739 64.8113 44.739 64.8113C44.739 64.8113 43.6831 65.3667 43.952 65.8369C44.1564 66.1943 44.8269 66.3045 45.1363 66.3368C44.8619 66.3315 44.3564 66.4055 44.6431 67.0759C45.0269 67.9731 48.0606 68.913 48.0606 68.913C48.0606 68.913 45.488 69.9813 43.645 68.913C43.645 68.913 42.9923 69.2121 43.4146 69.7676C43.8369 70.3231 43.645 70.4511 43.645 70.4511C43.645 70.4511 42.685 69.7249 43.1073 70.8356C43.5297 71.9465 45.7568 72.6301 45.7568 72.6301C45.7568 72.6301 44.4896 72.8438 44.8735 73.5273C45.2573 74.2108 46.8702 75.0227 48.6364 75.1937C50.4028 75.3648 52.7834 74.7239 52.7834 74.7239C52.7834 74.7239 51.1708 75.5785 52.2842 76.0483C53.398 76.5184 54.6649 75.4502 54.6649 75.4502C54.6649 75.4502 54.4345 76.5435 55.356 76.1679C56.2775 75.7919 57.0455 75.0657 57.0455 75.0657C57.0455 75.0657 57.3334 76.6772 57.9086 76.2919C58.484 76.6772 58.7719 75.0657 58.7719 75.0657C58.7719 75.0657 59.54 75.7919 60.4615 76.1679C61.383 76.5439 61.1526 75.4502 61.1526 75.4502C61.1526 75.4502 62.4198 76.5184 63.5332 76.0483C64.6467 75.5782 63.034 74.7239 63.034 74.7239C63.034 74.7239 65.4147 75.3648 67.1808 75.1937C68.9472 75.0227 70.5598 74.2108 70.9437 73.5273C71.3276 72.8438 70.0603 72.6301 70.0603 72.6301C70.0603 72.6301 72.2875 71.9465 72.7098 70.8356C73.1318 69.7246 72.1722 70.4511 72.1722 70.4511Z" fill="#E0E0E0"/>
<path d="M167.129 64.9609H161.441V84.9806H167.129V64.9609Z" fill="#EBEBEB"/>
<path d="M182.679 66.6562C182.679 66.6562 182.437 66.4946 182.969 65.7941C183.502 65.0936 182.679 64.7164 182.679 64.7164C180.355 66.0634 177.11 64.7164 177.11 64.7164C177.11 64.7164 180.935 63.5311 181.42 62.3994C181.781 61.5542 181.144 61.4607 180.798 61.4673C181.188 61.4265 182.034 61.2875 182.291 60.8368C182.63 60.244 181.299 59.5435 181.299 59.5435C181.299 59.5435 181.516 59.2203 181.299 58.6275C181.081 58.0346 176.093 57.1725 176.093 57.1725C177.546 57.3342 178.079 55.8792 178.079 55.8792C178.079 55.8792 180.548 55.9332 181.129 54.9632C181.71 53.9931 180.742 53.7238 179.096 52.9157C177.449 52.1076 173.818 49.0901 173.818 49.0901C173.818 49.0901 176.093 48.8745 176.723 48.3357C177.352 47.7968 176.771 47.6892 176.771 47.6892C179.483 47.9588 178.563 46.5038 178.563 46.5038C174.931 45.3722 172.994 42.8938 172.994 42.8938C172.994 42.8938 174.689 42.5166 175.561 41.7085C176.432 40.9004 174.834 40.6848 174.834 40.6848C174.834 40.6848 178.03 40.2536 176.19 39.0682C174.792 38.1672 172.554 36.9552 171.859 36.5908C172.621 36.872 174.35 36.5356 174.35 36.5356C176.384 35.6198 174.35 34.2726 174.35 34.2726C171.978 32.9256 168.491 29.5312 168.491 29.5312C168.491 29.5312 170.235 30.4473 171.106 30.1777C171.978 29.9084 170.138 28.8307 170.138 28.8307C170.138 28.8307 171.058 29.1 171.445 28.8307C171.833 28.5615 170.428 27.3221 170.428 27.3221C168.341 25.9604 165.768 22.3865 164.692 20.8516C163.615 22.3865 161.042 25.9604 158.955 27.3221C158.955 27.3221 157.551 28.5615 157.938 28.8307C158.325 29.1 159.245 28.8307 159.245 28.8307C159.245 28.8307 157.405 29.9084 158.277 30.1777C159.148 30.447 160.891 29.5312 160.891 29.5312C160.891 29.5312 157.405 32.9256 155.033 34.2726C155.033 34.2726 152.999 35.6195 155.033 36.5356C155.033 36.5356 156.762 36.872 157.524 36.5908C156.828 36.9549 154.591 38.1669 153.192 39.0682C151.352 40.2536 154.548 40.6848 154.548 40.6848C154.548 40.6848 152.95 40.9004 153.822 41.7085C154.694 42.5166 156.388 42.8938 156.388 42.8938C156.388 42.8938 154.452 45.3725 150.82 46.5038C150.82 46.5038 149.9 47.9584 152.611 47.6892C152.611 47.6892 152.03 47.7968 152.66 48.3357C153.289 48.8745 155.565 49.0901 155.565 49.0901C155.565 49.0901 151.933 52.1076 150.287 52.9157C148.641 53.7238 147.672 53.9934 148.253 54.9632C148.834 55.9329 151.304 55.8792 151.304 55.8792C151.304 55.8792 151.837 57.3342 153.289 57.1725C153.289 57.1725 148.301 58.0346 148.084 58.6275C147.866 59.2203 148.084 59.5435 148.084 59.5435C148.084 59.5435 146.753 60.244 147.091 60.8368C147.349 61.2875 148.195 61.4265 148.585 61.4673C148.239 61.4604 147.601 61.5542 147.963 62.3994C148.447 63.5308 152.272 64.7164 152.272 64.7164C152.272 64.7164 149.028 66.0634 146.704 64.7164C146.704 64.7164 145.881 65.0936 146.413 65.7941C146.946 66.4946 146.704 66.6562 146.704 66.6562C146.704 66.6562 145.493 65.7401 146.026 67.1411C146.559 68.542 149.367 69.4041 149.367 69.4041C149.367 69.4041 147.769 69.6734 148.253 70.5358C148.738 71.3979 150.771 72.4216 152.999 72.6372C155.226 72.8528 158.228 72.0447 158.228 72.0447C158.228 72.0447 156.195 73.1224 157.599 73.7149C159.003 74.3077 160.601 72.9604 160.601 72.9604C160.601 72.9604 160.31 74.3394 161.472 73.8655C162.634 73.3913 163.603 72.4756 163.603 72.4756C163.603 72.4756 163.966 74.5079 164.691 74.0215C165.417 74.5076 165.78 72.4756 165.78 72.4756C165.78 72.4756 166.748 73.3916 167.91 73.8655C169.072 74.3394 168.782 72.9604 168.782 72.9604C168.782 72.9604 170.38 74.3074 171.784 73.7149C173.188 73.1224 171.154 72.0447 171.154 72.0447C171.154 72.0447 174.156 72.8528 176.384 72.6372C178.611 72.4216 180.644 71.3979 181.129 70.5358C181.613 69.6737 180.015 69.4041 180.015 69.4041C180.015 69.4041 182.823 68.542 183.356 67.1411C183.889 65.7404 182.679 66.6562 182.679 66.6562Z" fill="#EBEBEB"/>
<path d="M202.16 11.9345C202.349 10.5555 200.411 9.42134 198.954 9.30365C198.26 9.24747 197.538 9.35418 196.88 9.12382C195.455 8.62515 194.886 6.77605 193.495 6.18699C192.455 5.74668 191.257 6.13866 190.249 6.64801C189.241 7.15736 188.245 7.79851 187.118 7.87101C186.139 7.93409 185.075 7.5691 184.218 8.04958C183.579 8.40766 183.244 9.14642 182.656 9.58265C182.08 10.0091 181.328 10.0995 180.614 10.1384C179.899 10.1774 179.159 10.1846 178.509 10.484C177.858 10.7831 177.319 11.4741 177.455 12.1796L202.16 11.9345Z" fill="#F5F5F5"/>
<path d="M60.0702 6.5634C60.2593 5.18474 58.3209 4.05024 56.8646 3.93256C56.17 3.87638 55.4486 3.98308 54.7906 3.75273C53.3649 3.25405 52.7957 1.40496 51.4047 0.815896C50.3647 0.37559 49.1675 0.767565 48.1594 1.27691C47.1513 1.78626 46.1551 2.42742 45.0286 2.49992C44.0489 2.563 42.9849 2.19801 42.1278 2.67848C41.4892 3.03657 41.1544 3.77533 40.5658 4.21155C39.99 4.63805 39.2385 4.72843 38.524 4.76735C37.8094 4.80626 37.0695 4.81348 36.4187 5.11287C35.7679 5.41196 35.2296 6.1027 35.3647 6.80851L60.0702 6.5634Z" fill="#F5F5F5"/>
<path d="M141 7.247C141.189 5.86834 139.251 4.73384 137.794 4.61615C137.1 4.55997 136.378 4.66668 135.72 4.43632C134.295 3.93764 133.725 2.08855 132.334 1.49949C131.294 1.05918 130.097 1.45116 129.089 1.96051C128.081 2.46986 127.085 3.11101 125.958 3.18351C124.979 3.24659 123.915 2.8816 123.057 3.36208C122.419 3.72016 122.084 4.45892 121.495 4.89483C120.92 5.32133 120.168 5.41171 119.454 5.45063C118.739 5.48954 117.999 5.49676 117.348 5.79615C116.698 6.09524 116.159 6.78598 116.294 7.49179L141 7.247Z" fill="#F5F5F5"/>
<path d="M161.122 16.4721C161.259 15.4748 159.857 14.6541 158.803 14.5687C158.301 14.5279 157.779 14.6051 157.303 14.4385C156.272 14.0776 155.86 12.74 154.853 12.3139C154.101 11.9953 153.235 12.279 152.506 12.6475C151.776 13.0159 151.055 13.4797 150.241 13.5322C149.532 13.5777 148.762 13.3137 148.142 13.6614C147.68 13.9204 147.438 14.4551 147.012 14.7705C146.595 15.079 146.052 15.1443 145.535 15.1725C145.018 15.2008 144.483 15.2061 144.012 15.4224C143.541 15.6389 143.152 16.1385 143.25 16.6491L161.122 16.4721Z" fill="#F5F5F5"/>
<path d="M213.811 85.3941C213.811 85.4393 166.119 85.4757 107.301 85.4757C48.463 85.4757 0.78125 85.439 0.78125 85.3941C0.78125 85.3489 48.4633 85.3125 107.301 85.3125C166.119 85.3125 213.811 85.3489 213.811 85.3941Z" fill="#1F2224"/>
<path d="M143.639 85.3984H149.09V71.8215H143.639V85.3984Z" fill="#C1C4C6"/>
<path d="M167.032 71.7572C167.032 71.7572 166.764 71.5786 167.354 70.8047C167.945 70.0308 167.032 69.6143 167.032 69.6143C164.456 71.1025 160.861 69.6143 160.861 69.6143C160.861 69.6143 165.101 68.3047 165.637 67.0547C166.038 66.1211 165.331 66.0178 164.948 66.025C165.38 65.9802 166.317 65.8264 166.603 65.3283C166.979 64.6737 165.503 63.8998 165.503 63.8998C165.503 63.8998 165.744 63.5426 165.503 62.8877C165.262 62.233 159.734 61.2805 159.734 61.2805C161.344 61.4591 161.934 59.852 161.934 59.852C161.934 59.852 164.671 59.9113 165.315 58.8399C165.959 57.7685 164.886 57.4709 163.061 56.5781C161.236 55.6852 157.211 52.352 157.211 52.352C157.211 52.352 159.733 52.1138 160.431 51.5185C161.129 50.9232 160.485 50.8042 160.485 50.8042C163.49 51.1017 162.47 49.4946 162.47 49.4946C158.446 48.2446 156.299 45.5064 156.299 45.5064C156.299 45.5064 158.177 45.0897 159.143 44.1968C160.11 43.304 158.338 43.0658 158.338 43.0658C158.338 43.0658 161.88 42.5894 159.841 41.2801C158.291 40.2846 155.811 38.9458 155.04 38.5435C155.885 38.8541 157.801 38.4826 157.801 38.4826C160.055 37.4705 157.801 35.9826 157.801 35.9826C155.172 34.4947 151.308 30.7447 151.308 30.7447C151.308 30.7447 153.24 31.7565 154.206 31.459C155.172 31.1615 153.132 29.9708 153.132 29.9708C153.132 29.9708 154.152 30.2683 154.581 29.9708C155.011 29.6733 153.454 28.3041 153.454 28.3041C151.141 26.7999 148.289 22.8519 147.096 21.1562C145.903 22.8522 143.051 26.8002 140.737 28.3041C140.737 28.3041 139.181 29.673 139.61 29.9708C140.04 30.2683 141.059 29.9708 141.059 29.9708C141.059 29.9708 139.02 31.1612 139.986 31.459C140.952 31.7565 142.884 30.7447 142.884 30.7447C142.884 30.7447 139.02 34.4947 136.39 35.9826C136.39 35.9826 134.136 37.4708 136.39 38.4826C136.39 38.4826 138.307 38.8541 139.152 38.5435C138.381 38.9458 135.901 40.2849 134.351 41.2801C132.312 42.5897 135.854 43.0658 135.854 43.0658C135.854 43.0658 134.083 43.3036 135.049 44.1968C136.015 45.0897 137.893 45.5064 137.893 45.5064C137.893 45.5064 135.746 48.2446 131.721 49.4946C131.721 49.4946 130.701 51.1017 133.707 50.8042C133.707 50.8042 133.063 50.9232 133.76 51.5185C134.458 52.1135 136.981 52.352 136.981 52.352C136.981 52.352 132.956 55.6852 131.131 56.5781C129.306 57.4709 128.233 57.7685 128.877 58.8399C129.521 59.9113 132.258 59.852 132.258 59.852C132.258 59.852 132.848 61.4591 134.458 61.2805C134.458 61.2805 128.93 62.233 128.688 62.8877C128.447 63.5423 128.688 63.8998 128.688 63.8998C128.688 63.8998 127.213 64.6734 127.588 65.3283C127.874 65.8264 128.811 65.9798 129.244 66.025C128.86 66.0178 128.154 66.1211 128.554 67.0547C129.091 68.3047 133.331 69.6143 133.331 69.6143C133.331 69.6143 129.735 71.1025 127.159 69.6143C127.159 69.6143 126.247 70.0311 126.837 70.8047C127.428 71.5786 127.159 71.7572 127.159 71.7572C127.159 71.7572 125.818 70.7454 126.408 72.2929C126.998 73.8404 130.111 74.7929 130.111 74.7929C130.111 74.7929 128.34 75.0904 128.876 76.0429C129.413 76.9953 131.667 78.1261 134.136 78.3643C136.604 78.6025 139.932 77.7096 139.932 77.7096C139.932 77.7096 137.677 78.9003 139.234 79.5549C140.79 80.2096 142.561 78.7217 142.561 78.7217C142.561 78.7217 142.239 80.2451 143.527 79.7216C144.815 79.1981 145.889 78.186 145.889 78.186C145.889 78.186 146.291 80.4312 147.095 79.8939C147.899 80.4312 148.301 78.186 148.301 78.186C148.301 78.186 149.375 79.1978 150.663 79.7216C151.951 80.2451 151.629 78.7217 151.629 78.7217C151.629 78.7217 153.4 80.2099 154.956 79.5549C156.513 78.9003 154.259 77.7096 154.259 77.7096C154.259 77.7096 157.586 78.6025 160.055 78.3643C162.523 78.1261 164.777 76.9953 165.314 76.0429C165.851 75.0904 164.08 74.7929 164.08 74.7929C164.08 74.7929 167.192 73.8404 167.783 72.2929C168.374 70.7454 167.032 71.7572 167.032 71.7572Z" fill="#C1C4C6"/>
<path d="M154.94 36.1561C154.91 36.1429 154.882 36.1297 154.855 36.1172C154.885 36.1253 154.913 36.1392 154.94 36.1561Z" fill="#1F2224"/>
<g opacity="0.1">
<path d="M150.887 30.0604L149.609 29.5579C149.609 29.5579 148.903 30.6105 147.565 29.9166C146.228 29.2227 145.516 27.8592 145.516 27.8592C145.516 27.8592 143.639 29.1032 143.445 28.3139C143.251 27.5243 144.034 27.2133 144.034 27.2133C143.971 27.3517 143.91 27.5224 143.986 27.6526C144.068 27.7942 144.254 27.7895 144.402 27.7531C144.893 27.6319 145.347 27.3354 145.68 26.918C146.056 27.8136 146.822 28.4288 147.61 28.8879C147.955 29.0887 148.35 29.2717 148.724 29.1499C149.097 29.0282 149.345 28.4492 149.067 28.1466C149.657 28.9234 150.537 29.4198 151.45 29.4914C151.645 29.5068 151.899 29.4556 151.936 29.2422C151.958 29.117 151.889 28.9962 151.82 28.8948C151.543 28.4896 151.201 28.1388 150.816 27.8629C151.68 28.4972 152.691 28.8813 153.723 28.9679L154.632 29.0903C154.663 29.1995 154.651 29.2883 154.574 29.342C154.144 29.6395 153.125 29.342 153.125 29.342C153.125 29.342 155.164 30.5327 154.198 30.8299C153.232 31.1274 151.3 30.1156 151.3 30.1156C151.3 30.1156 151.386 30.1991 151.538 30.3431L150.887 30.0604Z" fill="#1F2224"/>
</g>
<g opacity="0.1">
<path d="M139.479 38.0573L141.959 37.1594C141.959 37.1594 142.237 38.6746 143.755 38.5905C143.755 38.5905 145.071 38.7028 145.172 37.1594C145.172 37.1594 146.437 38.394 148.992 38.029C148.992 38.029 149.422 37.9732 149.321 37.2714C149.321 37.2714 150.004 38.1414 151.168 37.5241C152.331 36.9068 151.321 35.8686 151.321 35.8686L151.165 35.7848C151.272 35.9913 151.377 36.2415 151.286 36.4571C151.156 36.7646 150.758 36.7426 150.463 36.6494C149.649 36.3918 148.881 35.9593 148.213 35.3828C148.393 35.5987 148.578 35.8215 148.677 36.0949C148.776 36.3682 148.773 36.7081 148.598 36.9303C148.428 37.1475 148.146 37.2011 147.886 37.2159C146.603 37.2878 145.301 36.6934 144.435 35.6392C144.422 36.0381 144.518 36.4341 144.504 36.833C144.489 37.2319 144.319 37.6713 143.975 37.7912C143.568 37.9336 143.151 37.5495 142.972 37.1196C142.792 36.6896 142.752 36.1988 142.56 35.7754C141.953 36.378 141.223 36.8271 140.441 37.0784C140.22 37.1494 139.989 37.2049 139.762 37.1654C139.535 37.1258 139.312 36.973 139.232 36.7342C139.163 36.5277 139.239 36.2656 139.404 36.1583C138.41 36.6108 136.11 37.4161 135.657 36.2914C135.417 36.7768 135.468 37.3662 136.541 37.8476C136.541 37.8476 138.457 38.2192 139.302 37.9085C139.157 37.9845 138.951 38.0934 138.702 38.2271L139.479 38.0573Z" fill="#1F2224"/>
</g>
<g opacity="0.1">
<path d="M156.754 45.375C156.115 45.2767 155.494 45.0398 154.938 44.6773C154.772 45.1704 154.22 45.39 153.752 45.3028C153.284 45.2155 152.882 44.8983 152.497 44.5898C152.156 45.0872 151.609 45.4035 151.046 45.4286C150.483 45.4541 149.915 45.1879 149.539 44.7228C147.972 45.8821 146.111 46.7364 144.241 46.4847C143.896 46.4382 143.527 46.3369 143.305 46.0397C143.083 45.7425 143.115 45.2002 143.439 45.0577C142.297 45.3047 141.11 45.5507 139.982 45.2347C138.855 44.9187 137.945 43.9781 138.188 42.5078C138.238 42.7382 138.341 43.0962 138.483 43.3291C138.625 43.5617 138.88 43.6699 139.122 43.7522C140.999 44.3873 143.09 44.2119 144.86 43.271C144.484 43.6866 144.743 44.4642 145.215 44.7341C145.686 45.004 146.253 44.9193 146.776 44.8179C147.348 44.7071 147.925 44.5826 148.456 44.3196C148.986 44.0563 149.473 43.6398 149.742 43.0677C149.957 43.4518 150.181 43.8457 150.511 44.1118C150.84 44.3779 151.306 44.4887 151.659 44.2615C152.012 44.0343 152.13 43.406 151.815 43.1179C152.573 43.5908 153.4 43.9257 154.253 44.1052C154.468 44.1501 154.722 44.1717 154.87 43.9951C155.019 43.8174 154.974 43.5158 154.831 43.3316C154.777 43.2619 154.713 43.2048 154.643 43.1562C155.843 43.7393 157.184 43.9634 158.484 43.7898L158.502 44.0277C157.523 44.6011 156.301 44.8722 156.301 44.8722C156.301 44.8722 156.455 45.0668 156.754 45.375Z" fill="#1F2224"/>
</g>
<g opacity="0.1">
<path d="M135.952 53.5422C137.134 53.4713 138.278 53.0671 139.392 52.6215C141.303 54.0086 143.961 53.9942 145.86 52.5863C147.329 53.9703 149.642 54.1062 151.235 52.902C152.081 53.2943 153.007 53.6037 153.906 53.4063C154.806 53.2089 155.644 52.3563 155.615 51.3398C155.07 51.9966 154.27 52.3851 153.464 52.3839C152.659 52.3826 151.86 51.9919 151.316 51.3332C150.688 52.1626 149.695 52.6353 148.72 52.5684C147.745 52.5019 146.812 51.8978 146.28 50.9892C145.051 52.0252 143.446 52.4962 141.915 52.2706C141.478 52.2063 141.03 52.0773 140.698 51.7556C140.366 51.4339 140.187 50.8759 140.382 50.4375C138.381 51.985 135.515 51.9988 133.502 50.4701L133.484 50.5091C133.521 50.6048 133.611 50.7253 133.789 50.8769C134.487 51.4722 137.009 51.7101 137.009 51.7101C137.009 51.7101 136.004 52.5417 134.772 53.4854C135.163 53.5482 135.561 53.5658 135.952 53.5422Z" fill="#1F2224"/>
</g>
<g opacity="0.1">
<path d="M163.738 59.0505C162.842 59.24 161.93 59.2209 161.93 59.2209C161.93 59.2209 161.339 60.828 159.729 60.6494C159.729 60.6494 160.531 60.7875 161.536 60.9943C160.319 61.4626 158.903 61.3063 157.818 60.5267C155.859 62.5108 152.578 62.6212 150.514 60.7728C148.527 62.5651 145.415 62.5974 143.399 60.8465C142.301 61.8451 140.856 62.4273 139.448 62.2255C138.039 62.0237 136.712 60.9633 136.262 59.4697C138.456 61.0364 141.568 60.801 143.55 58.9183C143.577 59.3878 143.93 59.7729 144.327 59.938C144.724 60.103 145.161 60.0914 145.585 60.0698C147.318 59.9803 149.152 59.7089 150.496 58.4937C151.353 59.6182 152.721 60.2371 154.043 60.098C155.364 59.959 156.603 59.0658 157.254 57.7826C159.688 59.0567 162.657 58.9937 165.045 57.6172L163.738 59.0505Z" fill="#1F2224"/>
</g>
<g opacity="0.1">
<path d="M152.907 66.9314C152.942 67.4872 152.618 68.0166 152.188 68.3069C151.76 68.5972 151.243 68.6844 150.741 68.7014C149.219 68.7529 147.685 68.1946 146.486 67.1523C145.576 68.2856 144.218 68.9594 142.849 68.9562C141.481 68.9534 140.126 68.2736 139.219 67.1366C135.82 68.0897 132.101 67.5594 129.029 65.6836L128.566 65.9391C128.566 66.069 128.6 66.229 128.685 66.4268C129.222 67.6767 133.462 68.9864 133.462 68.9864C133.462 68.9864 133.032 69.1643 132.363 69.3356C133.095 69.5578 133.729 69.7402 134.13 69.8688C135.625 70.3493 137.376 70.0732 138.498 68.8762C139.533 70.0948 141.036 70.8063 142.545 70.7912C144.054 70.7761 145.546 70.0349 146.56 68.7956C147.537 69.9046 148.824 70.7705 150.221 70.8223C151.619 70.874 153.091 69.9388 153.469 68.4463C155.198 69.0767 157.263 68.2934 158.282 66.6207C156.667 67.6482 154.609 67.7671 152.907 66.9314Z" fill="#1F2224"/>
</g>
<path d="M124.014 37.1933C124.01 37.2055 123.801 37.1192 123.406 37.0313C123.014 36.9447 122.424 36.8681 121.71 36.9657C121 37.0611 120.16 37.3474 119.424 37.9556C118.69 38.5525 118.061 39.456 117.81 40.528C117.808 40.5378 117.805 40.5475 117.803 40.5566L117.756 40.7405L117.686 40.566C117.275 39.5476 116.545 38.7383 115.754 38.2239C114.96 37.7001 114.106 37.4829 113.394 37.434C112.678 37.3838 112.096 37.487 111.709 37.589C111.319 37.6919 111.114 37.7826 111.109 37.771C111.108 37.7673 111.158 37.7428 111.256 37.7001C111.354 37.6568 111.501 37.6 111.696 37.5426C112.083 37.4255 112.67 37.3069 113.4 37.3467C114.125 37.385 115 37.5975 115.816 38.1282C116.629 38.6491 117.379 39.4748 117.801 40.5199L117.683 40.5293C117.686 40.5202 117.688 40.5101 117.691 40.5001C117.949 39.3979 118.597 38.474 119.353 37.8671C120.112 37.2485 120.976 36.9645 121.699 36.8791C122.429 36.7912 123.025 36.8826 123.418 36.9846C123.616 37.0345 123.766 37.0862 123.866 37.1267C123.964 37.1663 124.016 37.1892 124.014 37.1933Z" fill="#1F2224"/>
<path d="M140.973 28.7915C140.969 28.8018 140.853 28.7579 140.636 28.713C140.421 28.6688 140.098 28.6302 139.708 28.686C139.321 28.7407 138.864 28.8988 138.464 29.2309C138.066 29.5569 137.724 30.0493 137.588 30.6321L137.584 30.6475L137.537 30.8311L137.467 30.6569C137.243 30.1027 136.847 29.6614 136.416 29.3799C135.984 29.0934 135.52 28.9729 135.131 28.9437C134.739 28.9139 134.421 28.9672 134.208 29.0197C133.994 29.073 133.879 29.1194 133.875 29.1094C133.874 29.1053 133.9 29.0903 133.954 29.0652C134.007 29.0397 134.088 29.0068 134.195 28.9735C134.408 28.9057 134.732 28.837 135.136 28.8568C135.538 28.8753 136.024 28.9911 136.478 29.2845C136.93 29.5723 137.347 30.0302 137.581 30.6111L137.464 30.6205L137.468 30.6042C137.611 29.9913 137.972 29.4785 138.393 29.1424C138.815 28.8 139.296 28.6443 139.697 28.5994C140.102 28.5533 140.431 28.607 140.648 28.6666C140.756 28.6958 140.839 28.7259 140.893 28.7501C140.947 28.773 140.975 28.7874 140.973 28.7915Z" fill="#1F2224"/>
<path d="M129.893 24.969C129.9 24.9768 129.777 25.1027 129.567 25.3402C129.356 25.5775 129.07 25.9381 128.77 26.4192C128.169 27.3689 127.568 28.8825 127.588 30.6189C127.588 30.6371 127.588 30.6553 127.588 30.6719L127.465 30.682C127.338 29.8346 127.056 29.0573 126.701 28.4073C126.346 27.7555 125.929 27.2264 125.536 26.8278C125.143 26.4283 124.785 26.1465 124.527 25.9685C124.269 25.7897 124.12 25.6996 124.125 25.6899C124.127 25.6861 124.166 25.7052 124.239 25.7448C124.311 25.7865 124.422 25.8399 124.553 25.9287C124.821 26.0956 125.191 26.3696 125.597 26.7663C126.003 27.1617 126.434 27.693 126.799 28.3524C127.166 29.0096 127.456 29.8004 127.587 30.6641L127.465 30.6741C127.465 30.6572 127.465 30.6387 127.465 30.6201C127.444 28.8533 128.07 27.3199 128.697 26.3721C129.009 25.8916 129.308 25.5364 129.531 25.3073C129.638 25.189 129.734 25.109 129.794 25.0506C129.856 24.9944 129.89 24.9658 129.893 24.969Z" fill="#1F2224"/>
<path d="M69.0922 74.4039C69.6236 74.5711 70.0469 75.003 70.2894 75.5064C70.532 76.0098 70.6092 76.5794 70.6051 77.1383C70.597 78.2201 70.1059 79.3634 69.5445 80.2866C68.5652 79.5962 68.2145 78.248 68.0795 77.5525C67.866 76.4535 68.1448 74.3373 69.0922 74.4039Z" fill="#C1C4C6"/>
<path d="M70.7815 81.9416C70.5742 81.3529 70.7549 80.6634 71.1731 80.2011C71.5914 79.7389 72.2184 79.4956 72.8401 79.4774C73.1277 79.469 73.4447 79.5198 73.6329 79.7382C73.8089 79.9425 73.8242 80.252 73.7254 80.503C73.6266 80.7541 73.4309 80.9546 73.2196 81.1216C72.4944 81.6934 71.688 82.113 70.7815 81.9416Z" fill="#C1C4C6"/>
<path d="M69.9752 85.3373C69.9696 85.3367 69.9736 85.2573 69.984 85.1145C69.9958 84.9573 70.0115 84.7539 70.0299 84.5095C70.0768 84.0029 70.129 83.2789 70.4403 82.5483C70.7467 81.8199 71.2234 81.2569 71.6435 80.9581C71.8516 80.8056 72.0373 80.7083 72.1702 80.654C72.2355 80.6239 72.2899 80.6095 72.3252 80.5966C72.3612 80.585 72.3802 80.58 72.3812 80.5828C72.3893 80.5994 72.0783 80.6904 71.6766 81.0027C71.2727 81.3074 70.8132 81.8632 70.5119 82.5794C70.2065 83.2949 70.1452 84.0098 70.0846 84.5151C70.0565 84.7696 70.0337 84.9758 70.014 85.118C69.9949 85.2598 69.9805 85.3383 69.9752 85.3373Z" fill="#1F2224"/>
<path d="M69.0286 76.0352C69.0311 76.0348 69.0382 76.0675 69.0495 76.1299C69.0611 76.2005 69.0761 76.2912 69.0948 76.4036C69.1326 76.6415 69.1833 76.9864 69.242 77.4132C69.3599 78.2668 69.5062 79.4484 69.6387 80.7564C69.7706 82.0651 69.8635 83.2523 69.9188 84.1122C69.9466 84.5422 69.966 84.8902 69.9763 85.1309C69.9807 85.2445 69.9841 85.3365 69.9866 85.4084C69.9882 85.4718 69.9876 85.5053 69.9851 85.5053C69.9822 85.5053 69.9776 85.4724 69.971 85.4093C69.9644 85.3377 69.9563 85.2464 69.946 85.1328C69.9257 84.883 69.8979 84.5381 69.8638 84.116C69.7944 83.2574 69.6931 82.072 69.5612 80.7643C69.429 79.4572 69.2914 78.2753 69.1877 77.4204C69.1367 77.0002 69.0951 76.6565 69.0648 76.4077C69.0523 76.2947 69.042 76.2031 69.0342 76.1318C69.0279 76.0687 69.0257 76.0355 69.0286 76.0352Z" fill="#1F2224"/>
<path d="M69.2974 82.7579C68.957 81.4863 67.9658 80.4092 66.7298 79.9686C66.4151 79.8562 66.014 79.8038 65.7911 80.0536C65.568 80.3041 65.6658 80.7001 65.8193 80.9986C66.4579 82.2404 67.903 83.0115 69.2852 82.848" fill="#C1C4C6"/>
<path d="M66.9806 80.9616C66.9824 80.9566 67.0531 80.9792 67.1797 81.0247C67.2431 81.047 67.3207 81.0749 67.4069 81.117C67.4929 81.159 67.5954 81.1979 67.6989 81.2601C67.8039 81.3191 67.9208 81.3812 68.0368 81.4634C68.1575 81.5388 68.2769 81.6326 68.4022 81.7321C68.6473 81.937 68.8983 82.1865 69.1215 82.4815C69.3418 82.7787 69.5116 83.09 69.6382 83.3841C69.6969 83.5332 69.7535 83.6747 69.7898 83.8128C69.8348 83.948 69.8598 84.0786 69.8845 84.1969C69.9136 84.3146 69.9195 84.4244 69.9336 84.5192C69.9479 84.6143 69.9504 84.6968 69.952 84.7643C69.9564 84.8993 69.9561 84.9736 69.9508 84.974C69.9333 84.9752 69.9323 84.6752 69.8304 84.2082C69.8026 84.0921 69.7748 83.9644 69.7279 83.8319C69.6894 83.6967 69.6316 83.5586 69.5719 83.4126C69.4437 83.1252 69.2753 82.8208 69.0586 82.5289C68.8395 82.2389 68.5944 81.9929 68.3559 81.7879C68.234 81.6885 68.1178 81.5943 68.0005 81.5177C67.8877 81.4343 67.7739 81.3702 67.672 81.309C67.2572 81.0721 66.9743 80.9773 66.9806 80.9616Z" fill="#1F2224"/>
<path d="M202.653 76.0676C203.071 76.1991 203.403 76.5384 203.594 76.9335C203.785 77.3289 203.845 77.7764 203.842 78.2155C203.836 79.065 203.45 79.9632 203.009 80.6885C202.24 80.1462 201.964 79.087 201.858 78.5409C201.69 77.6779 201.909 76.0155 202.653 76.0676Z" fill="#C1C4C6"/>
<path d="M203.97 81.9911C203.807 81.5285 203.949 80.9871 204.278 80.624C204.606 80.2609 205.099 80.0698 205.587 80.0554C205.813 80.0488 206.062 80.0886 206.21 80.2603C206.348 80.4207 206.36 80.6636 206.282 80.861C206.205 81.0584 206.051 81.2159 205.885 81.3468C205.315 81.7959 204.682 82.1257 203.97 81.9911Z" fill="#C1C4C6"/>
<path d="M203.338 84.6533C203.334 84.6527 203.337 84.5906 203.345 84.4782C203.354 84.3546 203.366 84.1948 203.381 84.0031C203.418 83.6051 203.459 83.0365 203.703 82.4625C203.943 81.8904 204.318 81.4482 204.648 81.2134C204.811 81.0939 204.957 81.0173 205.062 80.9746C205.113 80.9511 205.156 80.9395 205.183 80.9294C205.212 80.9203 205.227 80.9166 205.228 80.9184C205.234 80.9316 204.99 81.0032 204.674 81.2483C204.357 81.4877 203.996 81.9243 203.759 82.4866C203.52 83.0487 203.471 83.6105 203.424 84.0072C203.402 84.2071 203.384 84.369 203.368 84.4807C203.353 84.5925 203.342 84.654 203.338 84.6533Z" fill="#1F2224"/>
<path d="M202.591 77.3516C202.593 77.3513 202.598 77.377 202.607 77.4259C202.616 77.4815 202.628 77.5527 202.643 77.6409C202.673 77.828 202.712 78.0988 202.758 78.434C202.851 79.1043 202.966 80.0326 203.07 81.0601C203.174 82.0879 203.247 83.0206 203.29 83.696C203.312 84.0337 203.327 84.307 203.335 84.4963C203.339 84.5857 203.341 84.6579 203.344 84.7141C203.345 84.764 203.345 84.79 203.342 84.7903C203.34 84.7903 203.336 84.7646 203.331 84.715C203.326 84.6588 203.32 84.587 203.312 84.4978C203.296 84.3017 203.274 84.0305 203.247 83.6991C203.193 83.0247 203.113 82.0936 203.009 81.0661C202.905 80.0392 202.797 79.1109 202.716 78.4393C202.676 78.1092 202.643 77.8393 202.619 77.6437C202.609 77.5549 202.602 77.4831 202.595 77.4272C202.59 77.3782 202.589 77.3519 202.591 77.3516Z" fill="#1F2224"/>
<path d="M202.806 82.6319C202.539 81.633 201.76 80.7869 200.79 80.4407C200.542 80.3525 200.227 80.3111 200.052 80.5076C199.877 80.7043 199.954 81.0153 200.074 81.2501C200.576 82.2255 201.711 82.8312 202.797 82.7028" fill="#C1C4C6"/>
<path d="M200.984 81.2232C200.986 81.2191 201.041 81.237 201.141 81.2728C201.191 81.2904 201.252 81.312 201.319 81.3453C201.387 81.3783 201.467 81.409 201.548 81.458C201.631 81.5044 201.723 81.5531 201.814 81.6177C201.908 81.677 202.002 81.7505 202.101 81.8286C202.293 81.9896 202.49 82.1854 202.666 82.4174C202.839 82.6509 202.972 82.8953 203.072 83.1263C203.118 83.2434 203.162 83.3545 203.191 83.4631C203.226 83.5694 203.246 83.6717 203.265 83.7649C203.288 83.8572 203.293 83.9438 203.304 84.0182C203.315 84.0929 203.317 84.1579 203.318 84.2109C203.322 84.317 203.322 84.3754 203.317 84.3757C203.304 84.3766 203.303 84.1409 203.223 83.7741C203.201 83.6827 203.179 83.5823 203.142 83.4784C203.112 83.3723 203.066 83.2638 203.019 83.1492C202.919 82.9233 202.786 82.6844 202.616 82.455C202.444 82.2272 202.251 82.0339 202.064 81.8729C201.968 81.7947 201.877 81.7207 201.785 81.6607C201.697 81.5951 201.607 81.5449 201.527 81.4966C201.202 81.3102 200.979 81.2358 200.984 81.2232Z" fill="#1F2224"/>
<path d="M190.055 87.3273C190.055 87.3273 193.314 87.1123 194.361 87.4387C195.408 87.7651 198.298 92.6841 198.298 92.6841L190.055 87.3273Z" fill="#898D8F"/>
<path opacity="0.3" d="M190.055 87.3273C190.055 87.3273 193.314 87.1123 194.361 87.4387C195.408 87.7651 198.298 92.6841 198.298 92.6841L190.055 87.3273Z" fill="#1F2224"/>
<path d="M136.434 78.832C136.434 78.832 169.597 85.7705 169.139 86.4826C168.681 87.1947 145.779 86.4826 145.779 86.4826L135.359 81.1017L136.434 78.832Z" fill="#C1C4C6"/>
<path d="M59.3281 93.1451C59.3281 93.1451 80.7043 79.5455 94.3521 77.6914L96.9303 80.0897C96.9303 80.0897 69.8629 94.6712 69.4049 94.7861C68.9467 94.901 59.3281 93.1451 59.3281 93.1451Z" fill="#C1C4C6"/>
<path d="M93.1727 120.344H19.1328V99.9056L48.559 95.457L93.1727 99.9056V120.344Z" fill="#898D8F"/>
<path opacity="0.6" d="M93.1727 120.344H19.1328V99.9056L48.559 95.457L93.1727 99.9056V120.344Z" fill="#1F2224"/>
<path d="M128.41 119.032H202.45V98.5937L178.347 90.4297L128.41 98.5937V119.032Z" fill="#898D8F"/>
<path opacity="0.6" d="M128.41 119.032H202.45V98.5937L178.347 90.4297L128.41 98.5937V119.032Z" fill="#1F2224"/>
<path d="M8.02978 110.94C8.02978 111.047 9.16947 113.979 8.92002 114.73C8.67089 115.481 6.54688 116.66 6.54688 116.66V117.376H11.0212C11.0212 117.376 13.1581 113.872 13.0512 113.872C12.9442 113.872 9.38328 110.332 9.27637 110.332C9.16947 110.332 8.02978 110.94 8.02978 110.94Z" fill="#1F2224"/>
<path d="M205.822 99.4549C205.902 98.4199 193.055 88.3085 190.914 87.5076C188.772 86.7067 167.52 86.4773 167.52 86.4773C152.294 84.487 140.795 80.7449 138.575 80.2672C136.354 79.7896 136.433 78.8343 136.433 78.8343C136.433 78.8343 124.855 75.9681 111.85 75.8086C98.8443 75.6495 93.6104 77.9584 93.6104 77.9584L95.5137 78.9934C85.2047 82.1782 70.8508 92.6878 70.8508 92.6878L61.1759 92.0507C52.6908 91.4933 41.0332 93.0857 41.0332 93.0857C17.7184 96.7481 6.61634 108.372 6.61634 108.372L6.92861 111.398C6.92861 111.398 9.49275 111.907 9.74594 114.704C9.96194 117.088 9.55058 118.962 9.55058 118.962L6.61634 119.838C5.58543 121.908 16.3706 122.704 16.3706 122.704C20.5783 123.14 26.6924 123.397 33.2627 123.543C31.9336 120.818 31.2365 117.726 31.3697 114.457C31.7682 104.678 39.7204 96.7283 49.4621 96.3699C60.1757 95.9761 68.9846 104.579 68.9846 115.248C68.9846 117.007 69.0718 120.95 68.7714 123.58H156.893L157.559 123.533C157.446 120.492 157.266 114.089 157.626 111.56C159.096 101.232 166.529 94.4948 176.921 94.4948C187.313 94.4948 195.736 102.952 195.736 113.385C195.736 114.939 195.805 118.198 195.614 120.749C197.319 120.381 202.271 119.291 202.729 118.962C203.284 118.563 204.395 109.169 204.395 109.169L205.822 108.054C205.822 108.054 205.743 100.49 205.822 99.4549Z" fill="#DADDDE"/>
<g opacity="0.3">
<path d="M9.74594 114.702C9.96194 117.086 9.55057 118.96 9.55057 118.96L6.61634 119.836C5.58543 121.906 16.3706 122.702 16.3706 122.702C20.5783 123.138 26.6924 123.395 33.2627 123.541C32.0414 121.036 31.3534 118.222 31.3534 115.245C31.3534 109.249 34.1392 103.91 38.4785 100.449C36.7952 101.659 31.8229 104.716 23.5203 105.605C13.0928 106.722 6.61634 108.371 6.61634 108.371L6.92861 111.397C6.92861 111.397 9.49275 111.905 9.74594 114.702Z" fill="#1F2224"/>
<path d="M39.1303 99.9533L39.1306 99.9492C39.1306 99.9492 39.1188 99.9593 39.1016 99.974C39.1109 99.9671 39.1209 99.9602 39.1303 99.9533Z" fill="#1F2224"/>
<path d="M197.457 111.964C197.789 107.078 194.802 92.8644 178.432 92.3092C171.271 92.0663 166.29 94.0551 162.952 96.3696C157.28 100.302 150.48 102.254 143.613 101.653C128.838 100.361 105.85 98.4452 95.4784 98.0837C79.5513 97.5285 63.6379 102.057 63.4766 101.893C66.8797 105.311 68.9849 110.033 68.9849 115.247C68.9849 117.006 69.0722 120.95 68.7718 123.58H156.893L157.559 123.533C157.446 120.492 157.266 114.088 157.626 111.56C159.096 101.232 166.53 94.4947 176.921 94.4947C187.313 94.4947 195.737 102.952 195.737 113.385C195.737 114.939 195.805 118.197 195.614 120.749C197.32 120.38 202.271 119.291 202.73 118.962C203.085 118.707 203.667 114.768 204.041 111.964H197.457V111.964Z" fill="#1F2224"/>
</g>
<path opacity="0.3" d="M17.6914 103.508C17.6914 103.508 20.6979 102.438 22.8334 101.405C24.2335 100.727 28.8979 98.394 31.9444 96.8675C32.266 96.7065 32.0756 96.2182 31.7302 96.318C27.701 97.4836 20.7466 99.6355 18.5216 101.2L17.6914 103.508Z" fill="#1F2224"/>
<path d="M12.5748 104.642C12.2488 104.886 16.9245 103.903 17.8613 103.433C18.7981 102.962 27.0288 98.125 27.0288 98.125C27.0288 98.125 18.3961 100.277 12.5748 104.642Z" fill="white"/>
<path d="M73.7344 92.9616C73.7344 92.9616 89.2533 80.9324 101.805 78.8702C104.944 78.3546 110.133 77.3042 114.7 77.8393C128.393 79.4433 144.368 84.3695 144.368 84.3695C144.368 84.3695 127.366 89.0666 112.76 91.1288C98.844 93.0934 79.4547 93.4204 73.7344 92.9616Z" fill="#C1C4C6"/>
<path opacity="0.3" d="M96.809 81.2107C96.5908 81.3205 96.3779 88.5581 100.1 88.8747C103.822 89.1914 134.061 83.7198 133.285 82.8181C131.704 80.9809 116.503 79.0358 113.727 78.8346C111.193 78.6511 100.326 79.4372 96.809 81.2107Z" fill="white"/>
<path d="M118 78.2773C118 78.2773 118.056 78.3332 118.16 78.4474C118.267 78.5648 118.42 78.7352 118.622 78.9587C119.03 79.4144 119.629 80.0847 120.409 80.9556C121.968 82.7083 124.244 85.2661 127.122 88.4995L127.134 88.513L127.134 88.5352C127.144 88.8751 127.287 89.225 127.479 89.531C127.668 89.8483 127.941 90.1019 128.228 90.3577C128.803 90.8683 129.381 91.4234 129.893 92.0687C130.924 93.3438 131.679 95.0196 131.751 96.8668C131.778 97.0956 131.751 97.3272 131.754 97.5595L131.747 97.9091L131.718 98.2587C131.675 98.7257 131.614 99.1955 131.539 99.6678C131.391 100.613 131.199 101.572 130.98 102.544C130.541 104.488 129.997 106.489 129.356 108.533C128.702 110.571 127.995 112.674 126.984 114.72C126.72 115.225 126.449 115.737 126.054 116.179C125.841 116.403 125.617 116.554 125.424 116.772C125.222 116.973 125.045 117.199 124.879 117.433C124.713 117.668 124.57 117.922 124.395 118.165C124.224 118.409 124.006 118.633 123.746 118.794C123.224 119.115 122.625 119.241 122.037 119.336C121.442 119.398 120.842 119.449 120.242 119.476C119.642 119.508 119.039 119.546 118.432 119.57C117.219 119.621 115.994 119.672 114.758 119.723C112.286 119.811 109.77 119.9 107.219 119.991C94.2103 120.414 82.111 120.736 72.0546 120.993L71.9898 120.995L71.9848 120.93C71.6607 116.62 71.4125 112.675 71.2434 109.181C71.1609 107.434 71.1021 105.799 71.078 104.287C71.0649 103.532 71.0696 102.807 71.084 102.114C71.1121 101.421 71.1621 100.763 71.2196 100.14C71.3265 98.8932 71.4438 97.7801 71.6316 96.8257C71.8107 95.8704 72.0789 95.0777 72.4015 94.4896C72.721 93.8989 73.0751 93.517 73.328 93.2844C73.5887 93.0591 73.7347 92.9577 73.7347 92.9577C73.7347 92.9577 73.7025 92.9885 73.6359 93.0453C73.5712 93.104 73.4652 93.1806 73.3421 93.3001C73.0951 93.5368 72.7488 93.9203 72.4375 94.5093C71.7814 95.6853 71.485 97.6605 71.2972 100.147C71.2425 100.77 71.1956 101.428 71.1702 102.117C71.1587 102.808 71.1565 103.532 71.1724 104.286C71.2018 105.796 71.2656 107.429 71.3528 109.176C71.5313 112.668 71.7879 116.612 72.1196 120.92L72.0502 120.857C82.106 120.582 94.205 120.251 107.213 119.828C109.764 119.738 112.279 119.649 114.751 119.562C115.987 119.51 117.211 119.46 118.424 119.409C119.03 119.385 119.632 119.348 120.232 119.316C120.833 119.289 121.424 119.239 122.011 119.179C122.591 119.086 123.176 118.959 123.661 118.661C124.158 118.367 124.414 117.825 124.75 117.344C124.92 117.104 125.103 116.87 125.311 116.663C125.503 116.447 125.758 116.268 125.94 116.073C126.313 115.657 126.587 115.148 126.847 114.65C127.851 112.622 128.561 110.521 129.215 108.489C129.858 106.45 130.404 104.453 130.846 102.514C131.065 101.544 131.258 100.589 131.408 99.6474C131.484 99.1769 131.545 98.71 131.589 98.2467L131.619 97.9003L131.626 97.5557C131.623 97.3269 131.65 97.0984 131.625 96.8731C131.557 95.0535 130.819 93.404 129.803 92.1399C129.298 91.5 128.728 90.9495 128.156 90.4374C127.57 89.9481 127.072 89.2925 127.033 88.5302L127.046 88.566C124.183 85.3191 121.919 82.7507 120.367 80.991C119.597 80.1123 119.004 79.4363 118.601 78.9766C118.403 78.749 118.253 78.5758 118.149 78.4559C118.049 78.3395 118 78.2773 118 78.2773Z" fill="#1F2224"/>
<path opacity="0.3" d="M68.9938 118.925C68.9938 118.925 120.933 115.936 128.033 116.396C135.132 116.855 145.094 123.578 145.094 123.578H68.7734L68.9938 118.925Z" fill="#1F2224"/>
<path opacity="0.3" d="M110.514 95.9335C110.05 96.0214 126.086 95.2958 133.759 93.1429C141.43 90.99 156.549 87.1519 168.112 86.4844C168.112 86.4844 154.599 87.4585 149.331 88.5346C144.064 89.6104 116.551 94.7893 110.514 95.9335Z" fill="#1F2224"/>
<path opacity="0.2" d="M27.0802 120.936C22.5474 121.766 10.1334 121.73 10.3185 121.891C13.0889 122.457 16.372 122.7 16.372 122.7C20.5225 123.13 26.7955 123.392 33.2641 123.539L32.8384 122.601C32.4676 121.722 32.1666 120.807 31.9303 119.867C31.347 120.049 30.007 120.4 27.0802 120.936Z" fill="#1F2224"/>
<path opacity="0.2" d="M7.25732 120.937C8.6055 120.926 29.5559 113.914 30.3071 113.334C31.0591 112.753 31.0013 112.23 31.0013 112.23L9.55857 118.918C9.55357 118.942 9.54982 118.96 9.54982 118.96L6.61558 119.836C6.4074 120.254 6.68685 120.619 7.25732 120.937Z" fill="#1F2224"/>
<path d="M29.9377 112.47C29.9511 112.513 24.7378 114.214 18.2948 116.269C11.8496 118.325 6.61503 119.956 6.60159 119.913C6.58815 119.87 11.8002 118.169 18.2454 116.113C24.6887 114.058 29.9239 112.427 29.9377 112.47Z" fill="#1F2224"/>
<path d="M32.8475 103.403C32.8494 103.408 32.776 103.44 32.6337 103.495C32.4762 103.554 32.2686 103.631 32.0095 103.728C31.7385 103.83 31.405 103.949 31.0114 104.068C30.6188 104.19 30.1749 104.341 29.6739 104.471C28.6789 104.758 27.4779 105.04 26.1373 105.314C24.7947 105.578 23.3106 105.827 21.7483 106.049C18.6208 106.483 15.7829 106.802 13.7367 107.092C12.7136 107.235 11.8859 107.355 11.3157 107.448C11.0425 107.489 10.8237 107.522 10.6574 107.547C10.5067 107.568 10.427 107.576 10.4258 107.571C10.4249 107.565 10.5024 107.546 10.6515 107.515C10.8165 107.482 11.0335 107.439 11.3048 107.385C11.8721 107.273 12.698 107.135 13.7201 106.977C15.7641 106.658 18.6018 106.321 21.7254 105.887C23.2859 105.665 24.7675 105.421 26.1085 105.166C27.4476 104.901 28.6476 104.631 29.6439 104.359C30.1455 104.236 30.5904 104.094 30.9848 103.98C31.3803 103.87 31.716 103.759 31.9895 103.667C32.2527 103.582 32.4634 103.514 32.6231 103.463C32.7685 103.419 32.8457 103.398 32.8475 103.403Z" fill="#1F2224"/>
<path d="M128.271 98.5412C128.264 98.517 128.498 98.5782 128.796 98.3648C128.936 98.2581 129.077 98.0689 129.102 97.8178C129.11 97.6964 129.101 97.5473 129.101 97.3995C129.105 97.2504 129.08 97.1064 129.004 96.9689C128.927 96.8358 128.808 96.7153 128.654 96.6485C128.501 96.5725 128.327 96.5804 128.127 96.5838C127.735 96.5864 127.319 96.5889 126.882 96.5914C126.003 96.5933 125.04 96.5954 124.03 96.598C123.906 96.6002 123.771 96.592 123.665 96.6061C123.554 96.6224 123.447 96.6632 123.356 96.7266C123.173 96.8534 123.053 97.0621 123.041 97.2783C123.024 97.4946 123.107 97.7102 123.256 97.8558C123.407 98.0089 123.6 98.0695 123.819 98.0774C124.686 98.1596 125.47 98.234 126.138 98.2974C126.778 98.3639 127.306 98.4188 127.7 98.4599C127.869 98.4806 128.009 98.4979 128.124 98.5123C128.221 98.5255 128.272 98.5356 128.271 98.5412C128.271 98.5469 128.219 98.5478 128.121 98.5447C128.005 98.5387 127.864 98.5315 127.694 98.5227C127.299 98.4948 126.77 98.4574 126.128 98.4119C125.459 98.3586 124.673 98.2961 123.806 98.2267C123.589 98.2245 123.321 98.1495 123.147 97.9666C122.965 97.7921 122.862 97.5294 122.881 97.2667C122.896 97.0031 123.041 96.747 123.264 96.5923C123.375 96.5148 123.506 96.464 123.642 96.4442C123.784 96.4266 123.902 96.437 124.03 96.4338C125.04 96.436 126.003 96.4382 126.882 96.4404C127.319 96.4429 127.735 96.4458 128.126 96.4479C128.226 96.4505 128.314 96.4458 128.419 96.4542C128.52 96.4646 128.618 96.4919 128.706 96.5336C128.884 96.6155 129.02 96.7577 129.105 96.9134C129.189 97.0696 129.213 97.2492 129.205 97.3995C129.2 97.5517 129.206 97.6857 129.192 97.8279C129.155 98.1084 128.99 98.3096 128.833 98.4163C128.672 98.5258 128.519 98.5516 128.421 98.556C128.322 98.5607 128.271 98.5412 128.271 98.5412Z" fill="#1F2224"/>
<path d="M80.213 88.457L80.6941 93.1438L73.7344 92.9602C75.8718 91.3214 78.0299 89.8122 80.213 88.457Z" fill="#1F2224"/>
<path d="M81.9633 95.7959C84.5858 95.7959 86.7118 94.6086 86.7118 93.1441C86.7118 91.6795 84.5858 90.4922 81.9633 90.4922C79.3408 90.4922 77.2148 91.6795 77.2148 93.1441C77.2148 94.6086 79.3408 95.7959 81.9633 95.7959Z" fill="#898D8F"/>
<path d="M86.7111 93.1411C86.677 93.1518 86.7454 92.7799 86.411 92.2784C86.1012 91.7703 85.3691 91.238 84.3585 90.9154C83.3498 90.5909 82.0567 90.4506 80.6685 90.6678C79.9767 90.7764 79.2606 90.9926 78.5992 91.3636C78.2697 91.5497 77.9615 91.7898 77.7145 92.0857C77.4695 92.3807 77.2982 92.7498 77.2957 93.1405C77.2975 93.5315 77.4688 93.9009 77.7139 94.1959C77.9609 94.4922 78.2691 94.7322 78.5985 94.9183C79.2603 95.2896 79.9767 95.5058 80.6685 95.6144C82.057 95.8316 83.3501 95.691 84.3588 95.3668C85.3698 95.0442 86.1015 94.5119 86.4113 94.0038C86.7454 93.502 86.6767 93.1304 86.7111 93.1411C86.7167 93.1411 86.7148 93.224 86.7054 93.3843C86.6976 93.464 86.6664 93.5588 86.6401 93.6734C86.5907 93.7785 86.5541 93.9135 86.4647 94.0377C86.1612 94.5734 85.4191 95.1343 84.3948 95.4766C83.3717 95.8209 82.0607 95.9763 80.6447 95.7635C79.9389 95.6565 79.2056 95.4402 78.5191 95.0577C78.1775 94.8653 77.8533 94.6161 77.5889 94.2998C77.3266 93.9856 77.1344 93.5783 77.1328 93.1408C77.135 92.7036 77.3272 92.2966 77.5895 91.9824C77.8539 91.6661 78.1781 91.4169 78.5198 91.2249C79.2059 90.8423 79.9392 90.6261 80.645 90.519C82.061 90.3063 83.3717 90.4613 84.3948 90.8056C85.4191 91.148 86.1612 91.7085 86.4647 92.2445C86.5541 92.3688 86.5907 92.5037 86.6404 92.6089C86.6667 92.7234 86.6979 92.8185 86.7057 92.8979C86.7148 93.0583 86.7167 93.1411 86.7111 93.1411Z" fill="#1F2224"/>
<path d="M50.7037 130.899C59.8309 130.615 67.0005 122.956 66.7174 113.793C66.4343 104.63 58.8058 97.4316 49.6786 97.7159C40.5514 98.0001 33.3818 105.659 33.6649 114.822C33.948 123.986 41.5765 131.184 50.7037 130.899Z" fill="#53575A"/>
<path d="M33.6569 114.012C33.6566 114.026 33.6544 114.04 33.6541 114.054C33.5225 123.221 40.8176 130.76 49.9482 130.892C59.0792 131.024 66.5878 123.7 66.7197 114.533C66.72 114.519 66.7181 114.504 66.7181 114.49L33.6569 114.012Z" fill="#2F3133"/>
<path d="M38.595 114.143C38.5025 120.579 43.6242 125.871 50.0344 125.964C56.4449 126.057 61.7166 120.915 61.8088 114.479C61.9013 108.043 56.7796 102.75 50.3691 102.657C43.9589 102.565 38.6875 107.707 38.595 114.143Z" fill="#FAFAFA"/>
<path d="M50.3523 102.642C43.9418 102.549 38.6707 107.691 38.5781 114.127L61.7923 114.463C61.8845 108.027 56.7628 102.735 50.3523 102.642Z" fill="#E0E0E0"/>
<path d="M43.1101 114.185C43.0539 118.105 46.1738 121.329 50.0783 121.386C53.9831 121.442 57.1946 118.31 57.2509 114.389C57.3071 110.469 54.1872 107.245 50.2821 107.188C46.3776 107.132 43.1664 110.264 43.1101 114.185Z" fill="#1F2224"/>
<path d="M177.924 130.888C187.049 130.552 194.175 122.852 193.84 113.69C193.505 104.529 185.836 97.3746 176.71 97.7111C167.585 98.0475 160.459 105.747 160.794 114.909C161.129 124.07 168.799 131.225 177.924 130.888Z" fill="#53575A"/>
<path d="M160.79 114.008C160.789 114.022 160.787 114.036 160.787 114.05C160.655 123.218 167.95 130.756 177.081 130.888C186.212 131.02 193.721 123.696 193.852 114.529C193.853 114.515 193.851 114.501 193.851 114.486L160.79 114.008Z" fill="#2F3133"/>
<path d="M165.728 114.123C165.635 120.559 170.757 125.852 177.167 125.945C183.578 126.038 188.849 120.895 188.942 114.459C189.034 108.023 183.912 102.731 177.502 102.638C171.092 102.545 165.82 107.687 165.728 114.123Z" fill="#FAFAFA"/>
<path d="M177.505 102.638C171.094 102.545 165.823 107.687 165.73 114.123L188.945 114.459C189.037 108.023 183.915 102.731 177.505 102.638Z" fill="#E0E0E0"/>
<path d="M170.262 114.197C170.206 118.117 173.326 121.341 177.231 121.397C181.135 121.454 184.347 118.322 184.403 114.401C184.459 110.48 181.339 107.256 177.434 107.2C173.53 107.144 170.319 110.276 170.262 114.197Z" fill="#1F2224"/>
<path d="M197.823 92.6731C197.839 92.7149 195.303 93.7869 192.157 95.067C189.01 96.3475 186.447 97.3514 186.43 97.3097C186.413 97.2679 188.949 96.1962 192.096 94.9158C195.242 93.6353 197.806 92.6314 197.823 92.6731Z" fill="#1F2224"/>
<path d="M58.8352 92.8027C58.8346 92.8084 58.7474 92.8077 58.5814 92.8015C58.4007 92.7927 58.1594 92.7807 57.8568 92.766C57.5427 92.7437 57.1575 92.734 56.7105 92.7246C56.4864 92.7186 56.2473 92.7123 55.9947 92.7057C55.7406 92.7064 55.4727 92.7067 55.1917 92.7073C54.0661 92.7004 52.726 92.7559 51.2403 92.8382C49.7549 92.9358 48.1248 93.0808 46.4177 93.2763C43.004 93.6802 39.9347 94.2071 37.7241 94.6399C36.6176 94.8514 35.7258 95.0406 35.1093 95.1712C34.8124 95.233 34.5761 95.282 34.3988 95.319C34.236 95.351 34.1497 95.3651 34.1485 95.3598C34.1472 95.3542 34.2307 95.3294 34.3913 95.287C34.5667 95.2427 34.8011 95.1834 35.0953 95.1094C35.7076 94.9597 36.5969 94.7529 37.7013 94.5266C39.9085 94.0643 42.9793 93.5186 46.3987 93.1137C48.1082 92.9179 49.7424 92.777 51.2309 92.6875C52.7204 92.6135 54.0636 92.5698 55.1917 92.5915C55.473 92.5949 55.7415 92.5984 55.9963 92.6015C56.2495 92.6125 56.4889 92.6232 56.7134 92.6329C57.161 92.6511 57.5464 92.67 57.8605 92.7023C58.1628 92.7299 58.4035 92.7519 58.5839 92.7685C58.7492 92.7854 58.8358 92.7971 58.8352 92.8027Z" fill="white"/>
<path d="M83.2374 91.5816C83.2267 91.6083 82.9354 91.4922 82.4459 91.3914C81.9576 91.2891 81.264 91.2276 80.5104 91.334C79.757 91.4438 79.1081 91.698 78.668 91.9337C78.2263 92.1682 77.9791 92.3618 77.9616 92.3392C77.9544 92.3304 78.0103 92.2752 78.1188 92.182C78.2254 92.0869 78.3935 91.9657 78.6117 91.833C79.0468 91.5659 79.7108 91.285 80.4872 91.1721C81.264 91.0622 81.9798 91.1448 82.4718 91.2788C82.7185 91.3447 82.9138 91.4134 83.0426 91.4749C83.1727 91.5339 83.2417 91.5713 83.2374 91.5816Z" fill="white"/>
<path d="M112.511 76.436C112.51 76.4416 112.45 76.4454 112.336 76.4472C112.204 76.4476 112.039 76.4479 111.837 76.4482C111.404 76.4438 110.777 76.4425 110.002 76.4479C108.453 76.4579 106.313 76.521 103.958 76.7131C101.602 76.9073 99.48 77.1942 97.9499 77.4368C97.1847 77.5576 96.5661 77.6611 96.1394 77.7361C95.9403 77.7688 95.7771 77.7952 95.6468 77.8165C95.5336 77.8331 95.4739 77.8391 95.4727 77.8338C95.4714 77.8281 95.5293 77.8115 95.6402 77.7842C95.7693 77.755 95.9303 77.7183 96.1275 77.6737C96.5511 77.5796 97.1672 77.4584 97.9312 77.3228C99.4588 77.0504 101.583 76.7451 103.945 76.5502C106.305 76.3578 108.451 76.3126 110.002 76.3324C110.778 76.3418 111.405 76.3606 111.839 76.3845C112.04 76.3964 112.205 76.4065 112.338 76.4143C112.451 76.4231 112.511 76.4303 112.511 76.436Z" fill="white"/>
<path d="M142.984 85.567C142.985 85.5695 142.955 85.583 142.894 85.6068C142.825 85.6329 142.736 85.6664 142.625 85.7085C142.376 85.7982 142.027 85.9241 141.582 86.0841C141.129 86.2477 140.573 86.4425 139.924 86.6541C139.274 86.8675 138.538 87.1207 137.714 87.3696C136.073 87.8893 134.104 88.4583 131.904 89.0404C129.701 89.6113 127.266 90.1884 124.693 90.7122C122.117 91.2278 119.648 91.6399 117.397 91.9682C115.143 92.2848 113.108 92.524 111.394 92.6812C110.539 92.7713 109.762 92.8234 109.081 92.8783C108.4 92.9354 107.813 92.9709 107.332 92.996C106.861 93.0208 106.49 93.0402 106.226 93.054C106.107 93.0584 106.012 93.0622 105.938 93.065C105.873 93.0666 105.84 93.066 105.84 93.0631C105.84 93.0603 105.873 93.0553 105.937 93.0484C106.011 93.0415 106.106 93.0324 106.224 93.0211C106.488 93.0001 106.857 92.9702 107.328 92.9326C107.808 92.8981 108.394 92.8529 109.074 92.7873C109.754 92.7236 110.529 92.6633 111.383 92.566C113.094 92.3944 115.126 92.1436 117.375 91.8191C119.623 91.4833 122.088 91.0668 124.661 90.5519C127.231 90.0287 129.664 89.4566 131.866 88.8945C134.065 88.3211 136.036 87.7644 137.68 87.2591C138.505 87.0175 139.243 86.7724 139.895 86.5671C140.547 86.3638 141.106 86.178 141.561 86.0239C142.01 85.8761 142.362 85.76 142.613 85.6774C142.727 85.6416 142.818 85.6134 142.888 85.5911C142.951 85.5723 142.983 85.5641 142.984 85.567Z" fill="white"/>
<path d="M171.845 86.7665C171.845 86.7722 171.777 86.7822 171.646 86.7967C171.498 86.8108 171.309 86.8287 171.074 86.851C170.557 86.899 169.843 86.9649 168.97 87.0459C167.194 87.2197 164.746 87.5066 162.058 87.94C159.371 88.3756 156.956 88.8746 155.216 89.269C154.362 89.4674 153.663 89.6296 153.157 89.747C152.927 89.7997 152.742 89.8424 152.597 89.8757C152.468 89.9033 152.4 89.9152 152.398 89.9099C152.397 89.9045 152.463 89.882 152.588 89.844C152.731 89.8029 152.915 89.7505 153.141 89.6855C153.622 89.5496 154.321 89.3679 155.19 89.1567C156.925 88.733 159.34 88.2152 162.032 87.779C164.724 87.3452 167.179 87.0757 168.959 86.9313C169.849 86.8585 170.57 86.8105 171.069 86.7882C171.305 86.7785 171.495 86.7706 171.644 86.7643C171.776 86.7603 171.845 86.7609 171.845 86.7665Z" fill="white"/>
<path d="M133.301 81.3633C133.318 81.3677 138.165 83.5661 137.286 84.3503C136.407 85.1346 133.301 87.1466 133.301 87.1466L144.369 84.3663L133.301 81.3633Z" fill="#1F2224"/>
<path d="M216.437 123.125C216.437 123.17 213.674 123.206 210.267 123.206C206.859 123.206 204.098 123.169 204.098 123.125C204.098 123.079 206.86 123.043 210.267 123.043C213.675 123.043 216.437 123.079 216.437 123.125Z" fill="#1F2224"/>
<path d="M212.607 125.05C212.607 125.096 209.797 125.132 206.331 125.132C202.864 125.132 200.055 125.095 200.055 125.05C200.055 125.005 202.864 124.969 206.331 124.969C209.797 124.969 212.607 125.005 212.607 125.05Z" fill="#1F2224"/>
<path d="M101.546 109.703C101.546 109.748 98.1649 109.784 93.9944 109.784C89.8223 109.784 86.4414 109.748 86.4414 109.703C86.4414 109.658 89.8223 109.621 93.9944 109.621C98.1646 109.621 101.546 109.658 101.546 109.703Z" fill="#1F2224"/>
<path d="M94.3808 112.054C94.3808 112.099 91.1421 112.136 87.1479 112.136C83.1521 112.136 79.9141 112.099 79.9141 112.054C79.9141 112.009 83.1521 111.973 87.1479 111.973C91.1421 111.973 94.3808 112.009 94.3808 112.054Z" fill="#1F2224"/>
</g>
<defs>
<clipPath id="clip0_1375_10979">
<rect width="216" height="131" fill="white" transform="translate(0.5 0.5)"/>
</clipPath>
</defs>
</svg>
