<svg width="265" height="132" viewBox="0 0 265 132" fill="none" xmlns="http://www.w3.org/2000/svg">
<path d="M64.0961 81.4531H15.6602V131.061H64.0961V81.4531Z" fill="#E6E9EB"/>
<path d="M264.012 87.9414H204.355V131.062H264.012V87.9414Z" fill="#E6E9EB"/>
<path d="M67.8951 48.2539H37.5039V131.063H67.8951V48.2539Z" fill="#E6E9EB"/>
<path d="M232.621 68.8594H169.172V131.062H232.621V68.8594Z" fill="#E6E9EB"/>
<path d="M150.52 51.7461H65.0781V131.06H150.52V51.7461Z" fill="#E6E9EB"/>
<path d="M174.265 34.2734H145.773V131.062H174.265V34.2734Z" fill="#E6E9EB"/>
<path d="M223.514 108.838L222.373 107.27L221.233 108.838C218.098 113.147 216.41 118.339 216.41 123.668C216.41 126.088 217.195 128.441 218.646 130.377H226.101C227.552 128.442 228.337 126.088 228.337 123.668C228.336 118.339 226.648 113.147 223.514 108.838Z" fill="#C1C4C6"/>
<path d="M220.083 125.129H213.387V130.376H220.083V125.129Z" fill="#C1C4C6"/>
<path d="M212.675 103.023L211.226 101.031L209.778 103.023C205.796 108.497 203.652 115.091 203.652 121.859C203.652 124.932 204.649 127.922 206.493 130.38H215.96C217.804 127.922 218.8 124.932 218.8 121.859C218.8 115.091 216.655 108.497 212.675 103.023Z" fill="#E6E9EB"/>
<path d="M212.674 103.021L212.164 102.32C214.03 107.11 215.013 112.33 215.013 117.644C215.013 117.68 215.013 117.715 215.012 117.751C214.982 123.179 210.514 127.539 205.086 127.539H204.84C205.277 128.54 205.829 129.495 206.492 130.379H215.959C217.803 127.921 218.8 124.931 218.8 121.858C218.8 115.09 216.656 108.495 212.674 103.021Z" fill="#E6E9EB"/>
<path d="M215.959 130.817H206.492C206.355 130.817 206.225 130.753 206.142 130.643C204.255 128.125 203.215 125.007 203.215 121.86C203.215 114.954 205.362 108.352 209.423 102.767L210.872 100.775C211.037 100.549 211.414 100.549 211.578 100.775L213.027 102.767C217.089 108.352 219.236 114.954 219.236 121.86C219.236 125.006 218.196 128.125 216.308 130.643C216.226 130.753 216.096 130.817 215.959 130.817ZM206.712 129.944H215.739C217.432 127.608 218.362 124.746 218.362 121.86C218.362 115.14 216.273 108.715 212.321 103.281L211.225 101.775L210.13 103.281C206.178 108.715 204.089 115.14 204.089 121.86C204.089 124.746 205.019 127.608 206.712 129.944Z" fill="#2F3133"/>
<path d="M211.226 130.818C211.468 130.818 211.663 130.622 211.663 130.381V115.706C211.663 115.465 211.468 115.27 211.226 115.27C210.984 115.27 210.789 115.465 210.789 115.706V130.381C210.789 130.622 210.984 130.818 211.226 130.818Z" fill="#2F3133"/>
<path d="M211.226 128.374C211.338 128.374 211.45 128.331 211.535 128.246L216.426 123.355C216.597 123.184 216.597 122.908 216.426 122.737C216.256 122.567 215.979 122.567 215.809 122.737L210.917 127.629C210.746 127.799 210.746 128.075 210.917 128.246C211.002 128.332 211.114 128.374 211.226 128.374Z" fill="#2F3133"/>
<path d="M236.812 130.816C236.57 130.816 236.375 130.621 236.375 130.379V122.952C236.375 122.711 236.57 122.516 236.812 122.516C237.053 122.516 237.249 122.711 237.249 122.952V130.379C237.249 130.621 237.053 130.816 236.812 130.816Z" fill="#2F3133"/>
<path d="M253.413 130.816C253.172 130.816 252.977 130.621 252.977 130.379V122.952C252.977 122.711 253.172 122.516 253.413 122.516C253.655 122.516 253.85 122.711 253.85 122.952V130.379C253.85 130.621 253.655 130.816 253.413 130.816Z" fill="#2F3133"/>
<path d="M255.161 127.757H235.066C234.824 127.757 234.629 127.561 234.629 127.32C234.629 127.078 234.824 126.883 235.066 126.883H255.161C255.403 126.883 255.598 127.078 255.598 127.32C255.598 127.561 255.403 127.757 255.161 127.757Z" fill="#2F3133"/>
<path d="M255.161 126.01H235.066C234.824 126.01 234.629 125.815 234.629 125.574C234.629 125.332 234.824 125.137 235.066 125.137H255.161C255.403 125.137 255.598 125.332 255.598 125.574C255.598 125.815 255.403 126.01 255.161 126.01Z" fill="#2F3133"/>
<path d="M255.161 124.264H235.066C234.824 124.264 234.629 124.069 234.629 123.827C234.629 123.586 234.824 123.391 235.066 123.391H255.161C255.403 123.391 255.598 123.586 255.598 123.827C255.598 124.069 255.403 124.264 255.161 124.264Z" fill="#2F3133"/>
<path d="M30.7103 130.82C30.4687 130.82 30.2734 130.625 30.2734 130.383V122.956C30.2734 122.715 30.4687 122.52 30.7103 122.52C30.9519 122.52 31.1471 122.715 31.1471 122.956V130.383C31.1471 130.625 30.9519 130.82 30.7103 130.82Z" fill="#2F3133"/>
<path d="M47.3119 130.82C47.0703 130.82 46.875 130.625 46.875 130.383V122.956C46.875 122.715 47.0703 122.52 47.3119 122.52C47.5534 122.52 47.7487 122.715 47.7487 122.956V130.383C47.7487 130.625 47.5534 130.82 47.3119 130.82Z" fill="#2F3133"/>
<path d="M49.0596 127.76H28.9642C28.7226 127.76 28.5273 127.565 28.5273 127.324C28.5273 127.082 28.7226 126.887 28.9642 126.887H49.0596C49.3012 126.887 49.4964 127.082 49.4964 127.324C49.4964 127.565 49.3012 127.76 49.0596 127.76Z" fill="#2F3133"/>
<path d="M49.0596 126.014H28.9642C28.7226 126.014 28.5273 125.819 28.5273 125.577C28.5273 125.336 28.7226 125.141 28.9642 125.141H49.0596C49.3012 125.141 49.4964 125.336 49.4964 125.577C49.4964 125.819 49.3012 126.014 49.0596 126.014Z" fill="#2F3133"/>
<path d="M49.0596 124.268H28.9642C28.7226 124.268 28.5273 124.073 28.5273 123.831C28.5273 123.59 28.7226 123.395 28.9642 123.395H49.0596C49.3012 123.395 49.4964 123.59 49.4964 123.831C49.4964 124.073 49.3012 124.268 49.0596 124.268Z" fill="#2F3133"/>
<path d="M73.3231 114.656H59.3438V125.141H73.3231V114.656Z" fill="white"/>
<path d="M73.7594 125.577H58.9062V114.219H73.7594V125.577ZM59.78 124.703H72.8856V115.092H59.78V124.703Z" fill="#2F3133"/>
<path d="M65.0215 116.402H61.0898V121.645H65.0215V116.402Z" fill="#E6E9EB"/>
<path d="M71.5743 116.402H66.332V117.276H71.5743V116.402Z" fill="#E6E9EB"/>
<path d="M59.3431 130.819C59.1015 130.819 58.9062 130.624 58.9062 130.382V125.14C58.9062 124.898 59.1015 124.703 59.3431 124.703C59.5847 124.703 59.78 124.898 59.78 125.14V130.382C59.78 130.624 59.5847 130.819 59.3431 130.819Z" fill="#2F3133"/>
<path d="M73.3236 130.819C73.082 130.819 72.8867 130.624 72.8867 130.382V125.14C72.8867 124.898 73.082 124.703 73.3236 124.703C73.5652 124.703 73.7604 124.898 73.7604 125.14V130.382C73.7604 130.624 73.5652 130.819 73.3236 130.819Z" fill="#2F3133"/>
<path d="M160.311 5.22656H80.2344V131.062H160.311V5.22656Z" fill="#F4F6F7"/>
<path d="M160.748 131.498H79.7969V4.78906H160.748V131.498ZM80.6706 130.625H159.874V5.66277H80.6706V130.625Z" fill="#2F3133"/>
<path d="M160.31 126.773H107.402V131.063H160.31V126.773Z" fill="#2F3133"/>
<path d="M160.308 0.9375H77.3711V5.22743H160.308V0.9375Z" fill="#E6E9EB"/>
<path d="M160.744 5.66364H76.9336V0.5H160.744V5.66364ZM77.8073 4.78993H159.871V1.37371H77.8073V4.78993Z" fill="#2F3133"/>
<path d="M160.308 5.22656H80.2305V6.6564H160.308V5.22656Z" fill="#2F3133"/>
<path d="M138.859 56.7031H143.148V55.2733H138.859V56.7031Z" fill="#E6E9EB"/>
<path d="M118.839 103.891H123.129V102.461H118.839V103.891Z" fill="#E6E9EB"/>
<path d="M127.421 33.8242H131.711V32.3944H127.421V33.8242Z" fill="#E6E9EB"/>
<path d="M191.767 5.22656H160.309V131.062H191.767V5.22656Z" fill="#C1C4C6"/>
<path d="M192.204 131.498H159.871V4.78906H192.204V131.498ZM160.745 130.625H191.331V5.66277H160.745V130.625Z" fill="#2F3133"/>
<path d="M191.767 126.773H160.309V131.063H191.767V126.773Z" fill="#2F3133"/>
<path d="M193.197 0.9375H160.309V5.22743H193.197V0.9375Z" fill="#E6E9EB"/>
<path d="M193.634 5.66364H159.871V0.5H193.634V5.66364ZM160.745 4.78993H192.76V1.37371H160.745V4.78993Z" fill="#2F3133"/>
<path d="M191.767 9.51649L160.309 6.65682V5.22656H191.767V9.51649Z" fill="#2F3133"/>
<path d="M103.11 13.8086H75.9414V131.064H103.11V13.8086Z" fill="#F4F6F7"/>
<path d="M103.547 131.5H75.5039V13.3711H103.547V131.5ZM76.3776 130.627H102.673V14.2448H76.3776V130.627Z" fill="#2F3133"/>
<path d="M108.829 9.51953H103.109V13.8094H108.829V9.51953Z" fill="#E6E9EB"/>
<path d="M109.266 14.2457H102.672V9.08203H109.266V14.2457ZM103.546 13.3719H108.392V9.95574H103.546V13.3719Z" fill="#2F3133"/>
<path d="M103.111 9.51953H73.082V13.8094H103.111V9.51953Z" fill="#E6E9EB"/>
<path d="M103.547 14.2457H72.6445V9.08203H103.547V14.2457ZM73.5182 13.3719H102.673V9.95574H73.5182V13.3719Z" fill="#2F3133"/>
<path d="M107.403 15.6246L103.113 15.2345V13.8047H107.403V15.6246Z" fill="#2F3133"/>
<path d="M103.11 13.8047H75.9414V15.2345H103.11V13.8047Z" fill="#2F3133"/>
<path d="M103.11 111.043H75.9414V112.473H103.11V111.043Z" fill="#2F3133"/>
<path d="M90.2394 23.8164H83.0898V35.2559H90.2394V23.8164Z" fill="#E6E9EB"/>
<path d="M90.6756 35.6921H82.6523V23.3789H90.6756V35.6921ZM83.5261 34.8184H89.8019V24.2526H83.5261V34.8184Z" fill="#2F3133"/>
<path d="M84.877 25.604H90.2394V23.8164H83.0898V35.2559H84.877V25.604Z" fill="#2F3133"/>
<path d="M90.2394 27.6719H83.0898V28.5456H90.2394V27.6719Z" fill="#2F3133"/>
<path d="M90.2394 45.2656H83.0898V56.7051H90.2394V45.2656Z" fill="#E6E9EB"/>
<path d="M90.6756 57.1413H82.6523V44.8281H90.6756V57.1413ZM83.5261 56.2676H89.8019V45.7018H83.5261V56.2676Z" fill="#2F3133"/>
<path d="M84.877 47.0532H90.2394V45.2656H83.0898V56.7051H84.877V47.0532Z" fill="#2F3133"/>
<path d="M90.2394 49.1211H83.0898V49.9948H90.2394V49.1211Z" fill="#2F3133"/>
<path d="M90.2394 66.7148H83.0898V78.1543H90.2394V66.7148Z" fill="#E6E9EB"/>
<path d="M90.6756 78.5906H82.6523V66.2773H90.6756V78.5906ZM83.5261 77.7168H89.8019V67.1511H83.5261V77.7168Z" fill="#2F3133"/>
<path d="M84.877 68.5025H90.2394V66.7148H83.0898V78.1543H84.877V68.5025Z" fill="#2F3133"/>
<path d="M90.2394 70.5703H83.0898V71.444H90.2394V70.5703Z" fill="#2F3133"/>
<path d="M90.2394 89.5977H83.0898V101.037H90.2394V89.5977Z" fill="#E6E9EB"/>
<path d="M90.6756 101.474H82.6523V89.1602H90.6756V101.474ZM83.5261 100.6H89.8019V90.0339H83.5261V100.6Z" fill="#2F3133"/>
<path d="M84.877 91.3853H90.2394V89.5977H83.0898V101.037H84.877V91.3853Z" fill="#2F3133"/>
<path d="M90.2394 93.4492H83.0898V94.3229H90.2394V93.4492Z" fill="#2F3133"/>
<path d="M101.679 17.1003H77.3704C77.1289 17.1003 76.9336 16.9046 76.9336 16.6634C76.9336 16.4223 77.1289 16.2266 77.3704 16.2266H101.679C101.921 16.2266 102.116 16.4223 102.116 16.6634C102.116 16.905 101.92 17.1003 101.679 17.1003Z" fill="#E6E9EB"/>
<path d="M101.679 21.3932H77.3704C77.1289 21.3932 76.9336 21.1975 76.9336 20.9564C76.9336 20.7152 77.1289 20.5195 77.3704 20.5195H101.679C101.921 20.5195 102.116 20.7152 102.116 20.9564C102.116 21.1975 101.92 21.3932 101.679 21.3932Z" fill="#E6E9EB"/>
<path d="M101.679 38.5495H77.3704C77.1289 38.5495 76.9336 38.3538 76.9336 38.1126C76.9336 37.8715 77.1289 37.6758 77.3704 37.6758H101.679C101.921 37.6758 102.116 37.8715 102.116 38.1126C102.116 38.3542 101.92 38.5495 101.679 38.5495Z" fill="#E6E9EB"/>
<path d="M101.679 42.8386H77.3704C77.1289 42.8386 76.9336 42.6428 76.9336 42.4017C76.9336 42.1606 77.1289 41.9648 77.3704 41.9648H101.679C101.921 41.9648 102.116 42.1606 102.116 42.4017C102.116 42.6433 101.92 42.8386 101.679 42.8386Z" fill="#E6E9EB"/>
<path d="M81.6604 25.6823H77.3704C77.1289 25.6823 76.9336 25.4866 76.9336 25.2454C76.9336 25.0043 77.1289 24.8086 77.3704 24.8086H81.6604C81.902 24.8086 82.0972 25.0043 82.0972 25.2454C82.0972 25.4866 81.902 25.6823 81.6604 25.6823Z" fill="#E6E9EB"/>
<path d="M101.68 25.6823H91.6712C91.4296 25.6823 91.2344 25.4866 91.2344 25.2454C91.2344 25.0043 91.4296 24.8086 91.6712 24.8086H101.68C101.922 24.8086 102.117 25.0043 102.117 25.2454C102.117 25.4866 101.922 25.6823 101.68 25.6823Z" fill="#E6E9EB"/>
<path d="M81.6604 29.9714H77.3704C77.1289 29.9714 76.9336 29.7757 76.9336 29.5345C76.9336 29.2934 77.1289 29.0977 77.3704 29.0977H81.6604C81.902 29.0977 82.0972 29.2934 82.0972 29.5345C82.0972 29.7757 81.902 29.9714 81.6604 29.9714Z" fill="#E6E9EB"/>
<path d="M101.68 29.9714H91.6712C91.4296 29.9714 91.2344 29.7757 91.2344 29.5345C91.2344 29.2934 91.4296 29.0977 91.6712 29.0977H101.68C101.922 29.0977 102.117 29.2934 102.117 29.5345C102.117 29.7757 101.922 29.9714 101.68 29.9714Z" fill="#E6E9EB"/>
<path d="M81.6604 34.2604H77.3704C77.1289 34.2604 76.9336 34.0647 76.9336 33.8236C76.9336 33.5824 77.1289 33.3867 77.3704 33.3867H81.6604C81.902 33.3867 82.0972 33.5824 82.0972 33.8236C82.0972 34.0647 81.902 34.2604 81.6604 34.2604Z" fill="#E6E9EB"/>
<path d="M101.68 34.2604H91.6712C91.4296 34.2604 91.2344 34.0647 91.2344 33.8236C91.2344 33.5824 91.4296 33.3867 91.6712 33.3867H101.68C101.922 33.3867 102.117 33.5824 102.117 33.8236C102.117 34.0647 101.922 34.2604 101.68 34.2604Z" fill="#E6E9EB"/>
<path d="M101.679 59.9987H77.3704C77.1289 59.9987 76.9336 59.8034 76.9336 59.5619C76.9336 59.3203 77.1289 59.125 77.3704 59.125H101.679C101.921 59.125 102.116 59.3203 102.116 59.5619C102.116 59.803 101.92 59.9987 101.679 59.9987Z" fill="#E6E9EB"/>
<path d="M101.679 64.2878H77.3704C77.1289 64.2878 76.9336 64.0925 76.9336 63.8509C76.9336 63.6093 77.1289 63.4141 77.3704 63.4141H101.679C101.921 63.4141 102.116 63.6093 102.116 63.8509C102.116 64.0925 101.92 64.2878 101.679 64.2878Z" fill="#E6E9EB"/>
<path d="M81.6604 47.1276H77.3704C77.1289 47.1276 76.9336 46.9319 76.9336 46.6908C76.9336 46.4496 77.1289 46.2539 77.3704 46.2539H81.6604C81.902 46.2539 82.0972 46.4496 82.0972 46.6908C82.0972 46.9319 81.902 47.1276 81.6604 47.1276Z" fill="#E6E9EB"/>
<path d="M101.68 47.1276H91.6712C91.4296 47.1276 91.2344 46.9319 91.2344 46.6908C91.2344 46.4496 91.4296 46.2539 91.6712 46.2539H101.68C101.922 46.2539 102.117 46.4496 102.117 46.6908C102.117 46.9319 101.922 47.1276 101.68 47.1276Z" fill="#E6E9EB"/>
<path d="M81.6604 51.4206H77.3704C77.1289 51.4206 76.9336 51.2249 76.9336 50.9837C76.9336 50.7426 77.1289 50.5469 77.3704 50.5469H81.6604C81.902 50.5469 82.0972 50.7426 82.0972 50.9837C82.0972 51.2249 81.902 51.4206 81.6604 51.4206Z" fill="#E6E9EB"/>
<path d="M101.68 51.4206H91.6712C91.4296 51.4206 91.2344 51.2249 91.2344 50.9837C91.2344 50.7426 91.4296 50.5469 91.6712 50.5469H101.68C101.922 50.5469 102.117 50.7426 102.117 50.9837C102.117 51.2249 101.922 51.4206 101.68 51.4206Z" fill="#E6E9EB"/>
<path d="M81.6604 55.7096H77.3704C77.1289 55.7096 76.9336 55.5139 76.9336 55.2728C76.9336 55.0316 77.1289 54.8359 77.3704 54.8359H81.6604C81.902 54.8359 82.0972 55.0316 82.0972 55.2728C82.0972 55.5139 81.902 55.7096 81.6604 55.7096Z" fill="#E6E9EB"/>
<path d="M101.68 55.7096H91.6712C91.4296 55.7096 91.2344 55.5139 91.2344 55.2728C91.2344 55.0316 91.4296 54.8359 91.6712 54.8359H101.68C101.922 54.8359 102.117 55.0316 102.117 55.2728C102.117 55.5139 101.922 55.7096 101.68 55.7096Z" fill="#E6E9EB"/>
<path d="M101.679 81.4479H77.3704C77.1289 81.4479 76.9336 81.2527 76.9336 81.0111C76.9336 80.7695 77.1289 80.5742 77.3704 80.5742H101.679C101.921 80.5742 102.116 80.7695 102.116 81.0111C102.116 81.2527 101.92 81.4479 101.679 81.4479Z" fill="#E6E9EB"/>
<path d="M101.679 85.737H77.3704C77.1289 85.737 76.9336 85.5417 76.9336 85.3001C76.9336 85.0586 77.1289 84.8633 77.3704 84.8633H101.679C101.921 84.8633 102.116 85.0586 102.116 85.3001C102.116 85.5417 101.92 85.737 101.679 85.737Z" fill="#E6E9EB"/>
<path d="M101.679 104.327H77.3704C77.1289 104.327 76.9336 104.132 76.9336 103.89C76.9336 103.648 77.1289 103.453 77.3704 103.453H101.679C101.921 103.453 102.116 103.648 102.116 103.89C102.116 104.132 101.92 104.327 101.679 104.327Z" fill="#E6E9EB"/>
<path d="M81.6604 68.5768H77.3704C77.1289 68.5768 76.9336 68.3816 76.9336 68.14C76.9336 67.8984 77.1289 67.7031 77.3704 67.7031H81.6604C81.902 67.7031 82.0972 67.8984 82.0972 68.14C82.0972 68.3816 81.902 68.5768 81.6604 68.5768Z" fill="#E6E9EB"/>
<path d="M101.68 68.5768H91.6712C91.4296 68.5768 91.2344 68.3816 91.2344 68.14C91.2344 67.8984 91.4296 67.7031 91.6712 67.7031H101.68C101.922 67.7031 102.117 67.8984 102.117 68.14C102.117 68.3816 101.922 68.5768 101.68 68.5768Z" fill="#E6E9EB"/>
<path d="M81.6604 72.8698H77.3704C77.1289 72.8698 76.9336 72.6745 76.9336 72.4329C76.9336 72.1914 77.1289 71.9961 77.3704 71.9961H81.6604C81.902 71.9961 82.0972 72.1914 82.0972 72.4329C82.0972 72.6741 81.902 72.8698 81.6604 72.8698Z" fill="#E6E9EB"/>
<path d="M101.68 72.8698H91.6712C91.4296 72.8698 91.2344 72.6745 91.2344 72.4329C91.2344 72.1914 91.4296 71.9961 91.6712 71.9961H101.68C101.922 71.9961 102.117 72.1914 102.117 72.4329C102.117 72.6741 101.922 72.8698 101.68 72.8698Z" fill="#E6E9EB"/>
<path d="M81.6604 77.1589H77.3704C77.1289 77.1589 76.9336 76.9636 76.9336 76.722C76.9336 76.4804 77.1289 76.2852 77.3704 76.2852H81.6604C81.902 76.2852 82.0972 76.4804 82.0972 76.722C82.0972 76.9636 81.902 77.1589 81.6604 77.1589Z" fill="#E6E9EB"/>
<path d="M101.68 77.1589H91.6712C91.4296 77.1589 91.2344 76.9636 91.2344 76.722C91.2344 76.4804 91.4296 76.2852 91.6712 76.2852H101.68C101.922 76.2852 102.117 76.4804 102.117 76.722C102.117 76.9636 101.922 77.1589 101.68 77.1589Z" fill="#E6E9EB"/>
<path d="M81.6604 91.4596H77.3704C77.1289 91.4596 76.9336 91.2644 76.9336 91.0228C76.9336 90.7812 77.1289 90.5859 77.3704 90.5859H81.6604C81.902 90.5859 82.0972 90.7812 82.0972 91.0228C82.0972 91.2644 81.902 91.4596 81.6604 91.4596Z" fill="#E6E9EB"/>
<path d="M101.68 91.4596H91.6712C91.4296 91.4596 91.2344 91.2644 91.2344 91.0228C91.2344 90.7812 91.4296 90.5859 91.6712 90.5859H101.68C101.922 90.5859 102.117 90.7812 102.117 91.0228C102.117 91.2644 101.922 91.4596 101.68 91.4596Z" fill="#E6E9EB"/>
<path d="M81.6604 95.7487H77.3704C77.1289 95.7487 76.9336 95.5534 76.9336 95.3119C76.9336 95.0703 77.1289 94.875 77.3704 94.875H81.6604C81.902 94.875 82.0972 95.0703 82.0972 95.3119C82.0972 95.553 81.902 95.7487 81.6604 95.7487Z" fill="#E6E9EB"/>
<path d="M101.68 95.7487H91.6712C91.4296 95.7487 91.2344 95.5534 91.2344 95.3119C91.2344 95.0703 91.4296 94.875 91.6712 94.875H101.68C101.922 94.875 102.117 95.0703 102.117 95.3119C102.117 95.553 101.922 95.7487 101.68 95.7487Z" fill="#E6E9EB"/>
<path d="M81.6604 100.038H77.3704C77.1289 100.038 76.9336 99.8425 76.9336 99.6009C76.9336 99.3593 77.1289 99.1641 77.3704 99.1641H81.6604C81.902 99.1641 82.0972 99.3593 82.0972 99.6009C82.0972 99.8425 81.902 100.038 81.6604 100.038Z" fill="#E6E9EB"/>
<path d="M101.68 100.038H91.6712C91.4296 100.038 91.2344 99.8425 91.2344 99.6009C91.2344 99.3593 91.4296 99.1641 91.6712 99.1641H101.68C101.922 99.1641 102.117 99.3593 102.117 99.6009C102.117 99.8425 101.922 100.038 101.68 100.038Z" fill="#E6E9EB"/>
<path d="M103.111 13.8086V106.755H98.8217H96.8266H71.6523V111.045H96.8266H98.8217H103.111V131.064H107.401V13.8086H103.111Z" fill="#E6E9EB"/>
<path d="M99.2575 111.48H71.2148V106.316H99.2575V111.48ZM72.0881 110.606H98.3834V107.19H72.0881V110.606Z" fill="#2F3133"/>
<path d="M102.672 13.3711V106.317H98.3828V111.481H102.672V131.5H107.836V13.3711H102.672ZM106.962 130.627H103.546V110.608H99.2565V107.192H103.546V14.2448H106.962V130.627Z" fill="#2F3133"/>
<path d="M133.144 16.668H113.125V28.1075H133.144V16.668Z" fill="#E6E9EB"/>
<path d="M133.581 28.5437H112.688V16.2305H133.581V28.5437ZM113.561 27.67H132.707V17.1042H113.561V27.67Z" fill="#2F3133"/>
<path d="M114.913 18.4517H133.144V16.6641H113.125V28.104H114.913V18.4517Z" fill="#2F3133"/>
<path d="M132.07 19.168V27.0327L126.559 19.168H132.07Z" fill="#E6E9EB"/>
<path d="M120.71 16.6641H119.836V28.104H120.71V16.6641Z" fill="#2F3133"/>
<path d="M129.418 27.0327L123.906 19.168H122.477L127.988 27.0327H129.418Z" fill="#E6E9EB"/>
<path d="M120.275 20.5195H113.125V21.3932H120.275V20.5195Z" fill="#2F3133"/>
<path d="M153.162 16.668H141.723V28.1075H153.162V16.668Z" fill="#E6E9EB"/>
<path d="M153.598 28.5437H141.285V16.2305H153.598V28.5437ZM142.158 27.67H152.724V17.1042H142.158V27.67Z" fill="#2F3133"/>
<path d="M143.506 18.4517H153.158V16.6641H141.719V28.104H143.506V18.4517Z" fill="#2F3133"/>
<path d="M152.089 19.168V25.2258L147.844 19.168H152.089Z" fill="#E6E9EB"/>
<path d="M146.008 20.5195H141.719V21.3932H146.008V20.5195Z" fill="#2F3133"/>
<path d="M146.448 16.6641H145.574V28.104H146.448V16.6641Z" fill="#2F3133"/>
<path d="M133.144 39.5469H113.125V50.9864H133.144V39.5469Z" fill="#E6E9EB"/>
<path d="M133.581 51.4226H112.688V39.1094H133.581V51.4226ZM113.561 50.5489H132.707V39.9831H113.561V50.5489Z" fill="#2F3133"/>
<path d="M114.913 41.3341H133.144V39.5469H113.125V50.9864H114.913V41.3341Z" fill="#2F3133"/>
<path d="M132.07 42.0469V49.9116L126.559 42.0469H132.07Z" fill="#E6E9EB"/>
<path d="M120.71 39.5469H119.836V50.9864H120.71V39.5469Z" fill="#2F3133"/>
<path d="M129.418 49.9116L123.906 42.0469H122.477L127.988 49.9116H129.418Z" fill="#E6E9EB"/>
<path d="M120.275 43.3984H113.125V44.2721H120.275V43.3984Z" fill="#2F3133"/>
<path d="M153.162 39.5469H141.723V50.9864H153.162V39.5469Z" fill="#E6E9EB"/>
<path d="M153.598 51.4226H141.285V39.1094H153.598V51.4226ZM142.158 50.5489H152.724V39.9831H142.158V50.5489Z" fill="#2F3133"/>
<path d="M143.506 41.3341H153.158V39.5469H141.719V50.9864H143.506V41.3341Z" fill="#2F3133"/>
<path d="M152.089 42.0469V48.1048L147.844 42.0469H152.089Z" fill="#E6E9EB"/>
<path d="M146.008 43.3984H141.719V44.2721H146.008V43.3984Z" fill="#2F3133"/>
<path d="M146.448 39.5469H145.574V50.9864H146.448V39.5469Z" fill="#2F3133"/>
<path d="M133.144 62.4258H113.125V73.8653H133.144V62.4258Z" fill="#E6E9EB"/>
<path d="M133.581 74.3015H112.688V61.9883H133.581V74.3015ZM113.561 73.4278H132.707V62.862H113.561V73.4278Z" fill="#2F3133"/>
<path d="M114.913 64.2134H133.144V62.4258H113.125V73.8653H114.913V64.2134Z" fill="#2F3133"/>
<path d="M132.07 64.9258V72.7905L126.559 64.9258H132.07Z" fill="#E6E9EB"/>
<path d="M120.71 62.4258H119.836V73.8653H120.71V62.4258Z" fill="#2F3133"/>
<path d="M129.418 72.7905L123.906 64.9258H122.477L127.988 72.7905H129.418Z" fill="#E6E9EB"/>
<path d="M120.275 66.2773H113.125V67.1511H120.275V66.2773Z" fill="#2F3133"/>
<path d="M153.162 62.4258H141.723V73.8653H153.162V62.4258Z" fill="#E6E9EB"/>
<path d="M153.598 74.3015H141.285V61.9883H153.598V74.3015ZM142.158 73.4278H152.724V62.862H142.158V73.4278Z" fill="#2F3133"/>
<path d="M143.506 64.2134H153.158V62.4258H141.719V73.8653H143.506V64.2134Z" fill="#2F3133"/>
<path d="M152.089 64.9258V70.9841L147.844 64.9258H152.089Z" fill="#E6E9EB"/>
<path d="M146.008 66.2773H141.719V67.1511H146.008V66.2773Z" fill="#2F3133"/>
<path d="M146.448 62.4258H145.574V73.8653H146.448V62.4258Z" fill="#2F3133"/>
<path d="M133.144 85.3047H113.125V96.7442H133.144V85.3047Z" fill="#E6E9EB"/>
<path d="M133.581 97.1809H112.688V84.8672H133.581V97.1809ZM113.561 96.3071H132.707V85.7409H113.561V96.3071Z" fill="#2F3133"/>
<path d="M114.913 87.0919H133.144V85.3047H113.125V96.7442H114.913V87.0919Z" fill="#2F3133"/>
<path d="M132.07 87.8047V95.6694L126.559 87.8047H132.07Z" fill="#E6E9EB"/>
<path d="M120.71 85.3047H119.836V96.7446H120.71V85.3047Z" fill="#2F3133"/>
<path d="M129.418 95.6694L123.906 87.8047H122.477L127.988 95.6694H129.418Z" fill="#E6E9EB"/>
<path d="M120.275 89.1562H113.125V90.03H120.275V89.1562Z" fill="#2F3133"/>
<path d="M153.162 85.3047H141.723V96.7442H153.162V85.3047Z" fill="#E6E9EB"/>
<path d="M153.598 97.1809H141.285V84.8672H153.598V97.1809ZM142.158 96.3071H152.724V85.7409H142.158V96.3071Z" fill="#2F3133"/>
<path d="M143.506 87.0919H153.158V85.3047H141.719V96.7442H143.506V87.0919Z" fill="#2F3133"/>
<path d="M152.089 87.8047V93.8626L147.844 87.8047H152.089Z" fill="#E6E9EB"/>
<path d="M146.008 89.1562H141.719V90.03H146.008V89.1562Z" fill="#2F3133"/>
<path d="M146.448 85.3047H145.574V96.7446H146.448V85.3047Z" fill="#2F3133"/>
<path d="M133.144 108.18H113.125V119.619H133.144V108.18Z" fill="#E6E9EB"/>
<path d="M133.581 120.056H112.688V107.742H133.581V120.056ZM113.561 119.182H132.707V108.616H113.561V119.182Z" fill="#2F3133"/>
<path d="M114.913 109.967H133.144V108.18H113.125V119.619H114.913V109.967Z" fill="#2F3133"/>
<path d="M132.07 110.68V118.544L126.559 110.68H132.07Z" fill="#E6E9EB"/>
<path d="M120.71 108.18H119.836V119.62H120.71V108.18Z" fill="#2F3133"/>
<path d="M129.418 118.544L123.906 110.68H122.477L127.988 118.544H129.418Z" fill="#E6E9EB"/>
<path d="M120.275 112.035H113.125V112.909H120.275V112.035Z" fill="#2F3133"/>
<path d="M153.162 108.18H141.723V119.619H153.162V108.18Z" fill="#E6E9EB"/>
<path d="M153.598 120.056H141.285V107.742H153.598V120.056ZM142.158 119.182H152.724V108.616H142.158V119.182Z" fill="#2F3133"/>
<path d="M143.506 109.967H153.158V108.18H141.719V119.619H143.506V109.967Z" fill="#2F3133"/>
<path d="M152.089 110.68V116.738L147.844 110.68H152.089Z" fill="#E6E9EB"/>
<path d="M146.008 112.035H141.719V112.909H146.008V112.035Z" fill="#2F3133"/>
<path d="M146.448 108.18H145.574V119.62H146.448V108.18Z" fill="#2F3133"/>
<path d="M186.052 62.4258H177.473V73.8653H186.052V62.4258Z" fill="#C1C4C6"/>
<path d="M186.489 74.3015H177.035V61.9883H186.489V74.3015ZM177.909 73.4278H185.615V62.862H177.909V73.4278Z" fill="#2F3133"/>
<path d="M177.473 62.4258V64.2134H184.265V73.8653H186.052V62.4258H177.473Z" fill="#2F3133"/>
<path d="M186.049 66.2773H177.469V67.1511H186.049V66.2773Z" fill="#2F3133"/>
<path d="M186.052 39.5469H177.473V50.9864H186.052V39.5469Z" fill="#C1C4C6"/>
<path d="M186.489 51.4226H177.035V39.1094H186.489V51.4226ZM177.909 50.5489H185.615V39.9831H177.909V50.5489Z" fill="#2F3133"/>
<path d="M177.473 39.5469V41.3341H184.265V50.9864H186.052V39.5469H177.473Z" fill="#2F3133"/>
<path d="M186.049 43.3984H177.469V44.2721H186.049V43.3984Z" fill="#2F3133"/>
<path d="M186.052 108.18H177.473V119.619H186.052V108.18Z" fill="#C1C4C6"/>
<path d="M186.489 120.056H177.035V107.742H186.489V120.056ZM177.909 119.182H185.615V108.616H177.909V119.182Z" fill="#2F3133"/>
<path d="M177.473 108.18V109.967H184.265V119.619H186.052V108.18H177.473Z" fill="#2F3133"/>
<path d="M186.049 112.035H177.469V112.909H186.049V112.035Z" fill="#2F3133"/>
<path d="M186.052 85.3047H177.473V96.7442H186.052V85.3047Z" fill="#C1C4C6"/>
<path d="M186.489 97.1809H177.035V84.8672H186.489V97.1809ZM177.909 96.3071H185.615V85.7409H177.909V96.3071Z" fill="#2F3133"/>
<path d="M177.473 85.3047V87.0919H184.265V96.7442H186.052V85.3047H177.473Z" fill="#2F3133"/>
<path d="M186.049 89.1562H177.469V90.03H186.049V89.1562Z" fill="#2F3133"/>
<path d="M186.052 16.668H177.473V28.1075H186.052V16.668Z" fill="#C1C4C6"/>
<path d="M186.489 28.5437H177.035V16.2305H186.489V28.5437ZM177.909 27.67H185.615V17.1042H177.909V27.67Z" fill="#2F3133"/>
<path d="M177.473 16.6641V18.4517H184.265V28.104H186.052V16.6641H177.473Z" fill="#2F3133"/>
<path d="M186.049 20.5195H177.469V21.3932H186.049V20.5195Z" fill="#2F3133"/>
<path d="M178.543 49.9103V45L181.984 49.9103H178.543Z" fill="#E6E9EB"/>
<path d="M178.543 27.0314V22.1211L181.984 27.0314H178.543Z" fill="#E6E9EB"/>
<path d="M178.543 95.672V90.7617L181.984 95.672H178.543Z" fill="#E6E9EB"/>
<path d="M178.543 118.551V113.641L181.984 118.551H178.543Z" fill="#E6E9EB"/>
<path d="M178.543 72.7926V67.8828L181.984 72.7926H178.543Z" fill="#E6E9EB"/>
<path d="M100.254 113.906H78.8047V131.066H100.254V113.906Z" fill="#E6E9EB"/>
<path d="M100.691 131.501H78.3672V113.469H100.691V131.501ZM79.2413 130.628H99.8173V114.342H79.2413V130.628Z" fill="#2F3133"/>
<path d="M80.5919 115.694H100.254V113.906H78.8047V131.066H80.5919V115.694Z" fill="#2F3133"/>
<path d="M99.1781 116.406V124.76L93.3242 116.406H99.1781Z" fill="#E6E9EB"/>
<path d="M89.9636 113.906H89.0898V131.065H89.9636V113.906Z" fill="#2F3133"/>
<path d="M91.315 113.906H89.5273V131.066H91.315V113.906Z" fill="#2F3133"/>
<path d="M88.4594 120.647L85.4879 116.406H83.4727L88.4594 123.522V120.647Z" fill="#E6E9EB"/>
<path d="M95.0102 129.989L92.0312 125.738V128.614L92.9954 129.989H95.0102Z" fill="#E6E9EB"/>
</svg>
