<svg width="24" height="24" viewBox="0 0 24 24" fill="none" xmlns="http://www.w3.org/2000/svg">
<path d="M15.2237 20.6391C13.0712 21.2173 10.8924 21.2166 8.77742 20.6286C8.41742 20.5281 8.04542 20.7388 7.94642 21.0981C7.84742 21.4573 8.05667 21.8293 8.41592 21.9291C9.59492 22.2568 10.8002 22.4226 11.9979 22.4226C13.1837 22.4226 14.3874 22.2613 15.5739 21.9418C15.9339 21.8451 16.1477 21.4746 16.0509 21.1146C15.9527 20.7553 15.5807 20.5431 15.2237 20.6391Z" fill="#3A061F"/>
<path d="M20.9808 14.9512L20.3463 14.0557C19.72 13.1715 19.3893 12.1312 19.3893 11.0475V8.96772C19.3885 4.88997 16.0728 1.57422 11.9965 1.57422C7.92027 1.57422 4.60452 4.88997 4.60452 8.96622V11.046C4.60452 12.1297 4.27377 13.1707 3.64752 14.055L3.01302 14.9505C2.69127 15.4035 2.58627 15.9727 2.72202 16.5105C2.85777 17.0437 3.21852 17.4892 3.71127 17.7315C5.50527 18.6135 8.39877 19.665 11.9965 19.665C15.595 19.665 18.4878 18.6135 20.281 17.7315C20.7745 17.4892 21.1353 17.0445 21.271 16.5112C21.4075 15.9727 21.3018 15.405 20.9808 14.9512ZM19.9623 16.1782C19.9405 16.266 19.8745 16.4272 19.6855 16.5202C18.0205 17.3392 15.3355 18.3157 11.9965 18.3157C8.65827 18.3157 5.97252 17.34 4.30752 16.521C4.11852 16.428 4.05252 16.2667 4.03077 16.179C4.00752 16.0882 3.98802 15.9105 4.11402 15.732L4.74852 14.8372C5.53752 13.7235 5.95452 12.4132 5.95452 11.0482V8.96847C5.95452 5.63472 8.66502 2.92422 11.9965 2.92422C15.328 2.92422 18.0385 5.63472 18.0385 8.96697V11.0467C18.0385 12.4117 18.4563 13.722 19.2445 14.8357L19.879 15.7312C20.005 15.9097 19.9855 16.0875 19.9623 16.1782Z" fill="#7F0E45"/>
</svg>
