<svg width="40" height="40" viewBox="0 0 40 40" fill="none" xmlns="http://www.w3.org/2000/svg">
<path d="M30.3709 34H10.3568C7.9061 34 6 32.0939 6 29.6432V9.49296C6 7.04225 8.04225 5 10.3568 5H30.3709C32.8216 5 34.7277 7.04225 34.7277 9.49296V29.507C34.8639 32.0939 32.8216 34 30.3709 34ZM10.3568 6.3615C8.58685 6.3615 7.22535 7.85915 7.22535 9.62911V29.6432C7.22535 31.4131 8.723 32.9108 10.3568 32.9108H30.3709C32.1408 32.9108 33.6385 31.4131 33.6385 29.6432V9.49296C33.6385 7.723 32.1408 6.22535 30.3709 6.22535H10.3568V6.3615Z" fill="#898D8F"/>
<path d="M14.5742 10.4453H17.5695V11.6707H14.5742V10.4453Z" fill="#898D8F"/>
<path d="M14.5742 17.5234H19.3395V18.7488H14.5742V17.5234Z" fill="#898D8F"/>
<path d="M16.3438 10.4453H17.5691V18.7505H16.3438V10.4453Z" fill="#898D8F"/>
<path d="M26.1442 15.0744H24.9188V11.6707H21.3789V10.4453H25.5996C26.008 10.4453 26.2803 10.7176 26.2803 11.1261V15.0744H26.1442Z" fill="#898D8F"/>
<path d="M26.1475 18.7491H21.9268C21.5184 18.7491 21.2461 18.4768 21.2461 18.0683V14.5284C21.2461 14.12 21.5184 13.8477 21.9268 13.8477H26.1475V15.073H22.4714V17.3876H26.1475V18.7491Z" fill="#898D8F"/>
<path d="M18.7949 25.2848H14.5742V24.0594H18.1141V21.7449H14.5742V20.5195H18.7949C19.2033 20.5195 19.4756 20.7918 19.4756 21.2003V24.7402C19.4756 25.0125 19.2033 25.2848 18.7949 25.2848Z" fill="#898D8F"/>
<path d="M18.7949 28.6891H14.5742V27.4637H18.1141V25.1492H14.5742V23.9238H18.7949C19.2033 23.9238 19.4756 24.1961 19.4756 24.6046V28.1445C19.4756 28.4168 19.2033 28.6891 18.7949 28.6891Z" fill="#898D8F"/>
<path d="M25.6074 25.2823H22.0675C21.659 25.2823 21.3867 25.01 21.3867 24.6015V20.3809H22.6121V23.9208H24.9266V20.3809H26.152V24.6015C26.152 25.01 25.8797 25.2823 25.6074 25.2823Z" fill="#898D8F"/>
<path d="M24.9258 23.9219H26.1511V28.6871H24.9258V23.9219Z" fill="#898D8F"/>
</svg>
