<svg width="25" height="24" viewBox="0 0 25 24" fill="none" xmlns="http://www.w3.org/2000/svg">
<path d="M16.5318 4.68084C16.5318 4.68084 17.0039 4.29376 17.2859 4.17694C17.5679 4.06013 17.8702 4 18.1755 4C18.4807 4 18.783 4.06013 19.065 4.17694C19.3471 4.29376 19.6033 4.46499 19.8192 4.68084C20.035 4.89669 20.2062 5.15295 20.3231 5.43497C20.4399 5.717 20.5 6.01927 20.5 6.32453C20.5 6.6298 20.4399 6.93207 20.3231 7.21409C20.2062 7.49612 19.8192 7.96823 19.8192 7.96823C19.8192 7.96823 12.352 17.6 8.72423 19.0632C7.82903 19.4242 6.62036 19.7474 5.6781 19.9722C4.97586 20.1397 4.36026 19.5241 4.5278 18.8219C4.7526 17.8796 5.0758 16.671 5.43684 15.7758C6.89999 12.148 16.5318 4.68084 16.5318 4.68084Z" stroke="#5B0A31" stroke-width="1.5" stroke-linecap="round" stroke-linejoin="round"/>
</svg>
