<svg width="16" height="16" viewBox="0 0 16 16" fill="none" xmlns="http://www.w3.org/2000/svg">
<path d="M9.33464 3.99935C9.33464 3.26297 9.9316 2.66602 10.668 2.66602L12.0013 2.66602C12.7377 2.66601 13.3346 3.26296 13.3346 3.99934L13.3346 5.33268C13.3346 6.06907 12.7377 6.66602 12.0013 6.66602H10.668C9.9316 6.66602 9.33464 6.06907 9.33464 5.33269V3.99935Z" stroke="#5B0A31" stroke-width="1.5"/>
<path d="M2.66799 10.666C2.66799 9.92964 3.26494 9.33269 4.00132 9.33269H5.33464C6.07102 9.33269 6.66798 9.92964 6.66798 10.666V11.9994C6.66798 12.7357 6.07102 13.3327 5.33464 13.3327H4.00132C3.26494 13.3327 2.66799 12.7357 2.66799 11.9994V10.666Z" stroke="#5B0A31" stroke-width="1.5"/>
<path d="M9.33464 10.666C9.33464 9.92964 9.9316 9.33269 10.668 9.33269H12.0013C12.7377 9.33269 13.3346 9.92964 13.3346 10.666L13.3346 11.9994C13.3346 12.7357 12.7377 13.3327 12.0013 13.3327H10.668C9.9316 13.3327 9.33464 12.7357 9.33464 11.9994V10.666Z" stroke="#5B0A31" stroke-width="1.5"/>
<path d="M2.66797 3.99934C2.66798 3.26297 3.26493 2.66602 4.00131 2.66602H5.33464C6.07102 2.66602 6.66798 3.26297 6.66798 3.99935V5.33268C6.66798 6.06906 6.07102 6.66602 5.33464 6.66602H4.0013C3.26492 6.66602 2.66797 6.06906 2.66797 5.33268L2.66797 3.99934Z" stroke="#AF678A" stroke-width="1.5"/>
</svg>
