<svg width="25" height="24" viewBox="0 0 25 24" fill="none" xmlns="http://www.w3.org/2000/svg">
<path d="M9.01489 1.70605H4.375C3.77846 1.70671 3.20654 1.94397 2.78473 2.36578C2.36291 2.7876 2.12565 3.35952 2.125 3.95605V8.59556C2.12565 9.19209 2.36291 9.76401 2.78473 10.1858C3.20654 10.6076 3.77846 10.8449 4.375 10.8456H9.01489C9.61143 10.8449 10.1833 10.6076 10.6052 10.1858C11.027 9.76401 11.2642 9.19209 11.2649 8.59556V3.95605C11.2642 3.35952 11.027 2.7876 10.6052 2.36578C10.1833 1.94397 9.61143 1.70671 9.01489 1.70605ZM9.76489 8.59556C9.76463 8.79439 9.68553 8.985 9.54493 9.1256C9.40434 9.2662 9.21372 9.3453 9.01489 9.34556H4.375C4.17617 9.3453 3.98555 9.2662 3.84495 9.1256C3.70436 8.985 3.62526 8.79439 3.625 8.59556V3.95605C3.62526 3.75722 3.70436 3.56661 3.84495 3.42601C3.98555 3.28541 4.17617 3.20631 4.375 3.20605H9.01489C9.21372 3.20631 9.40434 3.28541 9.54493 3.42601C9.68553 3.56661 9.76463 3.75722 9.76489 3.95605V8.59556Z" fill="#6E7375"/>
<path d="M20.8743 1.70605H16.2344C15.6378 1.70671 15.0659 1.94397 14.6441 2.36578C14.2223 2.7876 13.985 3.35952 13.9844 3.95605V8.59556C13.985 9.19209 14.2223 9.76401 14.6441 10.1858C15.0659 10.6076 15.6378 10.8449 16.2344 10.8456H20.8743C21.4708 10.8449 22.0427 10.6076 22.4645 10.1858C22.8864 9.76401 23.1236 9.19209 23.1243 8.59556V3.95605C23.1236 3.35952 22.8864 2.7876 22.4645 2.36578C22.0427 1.94397 21.4708 1.70671 20.8743 1.70605ZM21.6243 8.59556C21.624 8.79439 21.5449 8.985 21.4043 9.1256C21.2637 9.2662 21.0731 9.3453 20.8743 9.34556H16.2344C16.0355 9.3453 15.8449 9.2662 15.7043 9.1256C15.5637 8.985 15.4846 8.79439 15.4844 8.59556V3.95605C15.4846 3.75722 15.5637 3.56661 15.7043 3.42601C15.8449 3.28541 16.0355 3.20631 16.2344 3.20605H20.8743C21.0731 3.20631 21.2637 3.28541 21.4043 3.42601C21.5449 3.56661 21.624 3.75722 21.6243 3.95605V8.59556Z" fill="#898D8F"/>
<path d="M9.01489 13.1543H4.375C3.77846 13.1549 3.20654 13.3922 2.78473 13.814C2.36291 14.2358 2.12565 14.8078 2.125 15.4043V20.0438C2.12565 20.6403 2.36291 21.2123 2.78473 21.6341C3.20654 22.0559 3.77846 22.2931 4.375 22.2938H9.01489C9.61143 22.2931 10.1833 22.0559 10.6052 21.6341C11.027 21.2123 11.2642 20.6403 11.2649 20.0438V15.4043C11.2642 14.8078 11.027 14.2358 10.6052 13.814C10.1833 13.3922 9.61143 13.1549 9.01489 13.1543ZM9.76489 20.0438C9.76463 20.2426 9.68553 20.4332 9.54493 20.5738C9.40434 20.7144 9.21372 20.7935 9.01489 20.7938H4.375C4.17617 20.7935 3.98555 20.7144 3.84495 20.5738C3.70436 20.4332 3.62526 20.2426 3.625 20.0438V15.4043C3.62526 15.2055 3.70436 15.0148 3.84495 14.8743C3.98555 14.7337 4.17617 14.6546 4.375 14.6543H9.01489C9.21372 14.6546 9.40434 14.7337 9.54493 14.8743C9.68553 15.0148 9.76463 15.2055 9.76489 15.4043V20.0438Z" fill="#6E7375"/>
<path d="M20.8743 13.1543H16.2344C15.6378 13.1549 15.0659 13.3922 14.6441 13.814C14.2223 14.2358 13.985 14.8078 13.9844 15.4043V20.0438C13.985 20.6403 14.2223 21.2123 14.6441 21.6341C15.0659 22.0559 15.6378 22.2931 16.2344 22.2938H20.8743C21.4708 22.2931 22.0427 22.0559 22.4645 21.6341C22.8864 21.2123 23.1236 20.6403 23.1243 20.0438V15.4043C23.1236 14.8078 22.8864 14.2358 22.4645 13.814C22.0427 13.3922 21.4708 13.1549 20.8743 13.1543ZM21.6243 20.0438C21.624 20.2426 21.5449 20.4332 21.4043 20.5738C21.2637 20.7144 21.0731 20.7935 20.8743 20.7938H16.2344C16.0355 20.7935 15.8449 20.7144 15.7043 20.5738C15.5637 20.4332 15.4846 20.2426 15.4844 20.0438V15.4043C15.4846 15.2055 15.5637 15.0148 15.7043 14.8743C15.8449 14.7337 16.0355 14.6546 16.2344 14.6543H20.8743C21.0731 14.6546 21.2637 14.7337 21.4043 14.8743C21.5449 15.0148 21.624 15.2055 21.6243 15.4043V20.0438Z" fill="#6E7375"/>
</svg>
