<svg width="25" height="24" viewBox="0 0 25 24" fill="none" xmlns="http://www.w3.org/2000/svg">
<path d="M21.2266 12.0525V11.946L22.8069 10.3732C23.5681 9.61497 23.7241 8.43597 23.1871 7.50522L21.9241 5.31747C21.3871 4.38747 20.2869 3.93222 19.2504 4.21347L17.0986 4.79472L17.0064 4.74147L16.4341 2.58672C16.1581 1.54947 15.2154 0.824219 14.1406 0.824219H11.6146C10.5399 0.824219 9.59714 1.54947 9.32189 2.58822L8.74964 4.74297L8.65739 4.79622L6.50489 4.21422C5.46914 3.93222 4.36889 4.38747 3.83114 5.31747L2.56814 7.50522C2.03114 8.43597 2.18714 9.61497 2.94839 10.3732L4.52789 11.946V12.0525L2.94764 13.6252C2.18639 14.3842 2.03039 15.5625 2.56739 16.4925L3.83039 18.681C4.36739 19.6117 5.46689 20.0647 6.50414 19.785L8.65589 19.2037L8.74814 19.257L9.32039 21.4102C9.59639 22.449 10.5391 23.175 11.6139 23.175H14.1399C15.2146 23.175 16.1574 22.449 16.4326 21.411L17.0049 19.257C17.0049 19.2562 17.0971 19.2037 17.0971 19.2037L19.2489 19.785C20.2876 20.064 21.3856 19.6117 21.9226 18.681L23.1856 16.4925C23.7226 15.5625 23.5666 14.3835 22.8054 13.6252L21.2266 12.0525ZM22.0179 15.8175L20.7549 18.006C20.5231 18.4065 20.0491 18.603 19.6021 18.4815L17.4504 17.9002C17.0814 17.8012 16.6959 17.8522 16.3659 18.042C16.0351 18.2332 15.7989 18.5415 15.7014 18.9097L15.1284 21.0645C15.0099 21.5122 14.6034 21.8242 14.1406 21.8242H11.6146C11.1511 21.8242 10.7454 21.5122 10.6261 21.0637L10.0539 18.9105C9.95639 18.5415 9.72014 18.2332 9.38939 18.042C9.16964 17.9152 8.92589 17.85 8.67914 17.85C8.55389 17.85 8.42864 17.8665 8.30489 17.8995L6.15314 18.4807C5.70464 18.6015 5.23214 18.405 5.00039 18.0052L3.73739 15.8167C3.50564 15.4162 3.57314 14.9077 3.90089 14.5815L5.48039 13.0087C5.75114 12.7395 5.90039 12.381 5.90039 11.9985C5.90039 11.616 5.75114 11.2582 5.48039 10.989L3.90089 9.41622C3.57239 9.08922 3.50564 8.58147 3.73664 8.18022L4.99964 5.99247C5.23139 5.59122 5.70389 5.39547 6.15239 5.51622L8.30414 6.09747C8.67164 6.19722 9.05789 6.14622 9.38864 5.95647C9.71939 5.76522 9.95564 5.45697 10.0531 5.08797L10.6261 2.93322C10.7446 2.48547 11.1511 2.17272 11.6139 2.17272H14.1399C14.6034 2.17272 15.0091 2.48547 15.1284 2.93322L15.7006 5.08797C15.7981 5.45697 16.0344 5.76522 16.3651 5.95647C16.6951 6.14622 17.0814 6.19797 17.4496 6.09747L19.6014 5.51622C20.0506 5.39622 20.5224 5.59122 20.7541 5.99247L22.0171 8.18022C22.2489 8.58147 22.1814 9.08922 21.8536 9.41622L20.2741 10.989C20.0034 11.2582 19.8541 11.6167 19.8541 11.9992C19.8541 12.3817 20.0034 12.7395 20.2741 13.0095L21.8536 14.5822C22.1821 14.9085 22.2496 15.417 22.0179 15.8175Z" fill="#6E7375"/>
<path d="M12.8779 7.88672C10.6106 7.88672 8.76562 9.73172 8.76562 11.999C8.76562 14.2662 10.6106 16.1112 12.8779 16.1112C15.1451 16.1112 16.9901 14.2662 16.9901 11.999C16.9901 9.73172 15.1451 7.88672 12.8779 7.88672ZM12.8779 14.7612C11.3546 14.7612 10.1149 13.523 10.1149 11.999C10.1149 10.475 11.3539 9.23597 12.8779 9.23597C14.4019 9.23597 15.6409 10.475 15.6409 11.999C15.6409 13.523 14.4011 14.7612 12.8779 14.7612Z" fill="#898D8F"/>
</svg>
