<svg width="24" height="24" viewBox="0 0 24 24" fill="none" xmlns="http://www.w3.org/2000/svg">
<path d="M2.62502 5.53554H12.1411C12.4279 6.84101 13.5938 7.82108 14.9841 7.82108C16.3745 7.82108 17.5403 6.84105 17.8271 5.53554H21.3756C21.7208 5.53554 22.0006 5.25569 22.0006 4.91052C22.0006 4.56535 21.7208 4.2855 21.3756 4.2855H17.8268C17.5394 2.98069 16.372 2 14.9841 2C13.5955 2 12.4286 2.98054 12.1414 4.2855H2.62502C2.27985 4.2855 2 4.56535 2 4.91052C2 5.25569 2.27985 5.53554 2.62502 5.53554ZM13.3237 4.91216C13.3237 4.90993 13.3237 4.90767 13.3237 4.90544C13.3264 3.99264 14.0713 3.25008 14.9841 3.25008C15.8957 3.25008 16.6405 3.99162 16.6445 4.904L16.6446 4.91318C16.6432 5.82754 15.8988 6.57108 14.9841 6.57108C14.0698 6.57108 13.3257 5.82828 13.3236 4.91447L13.3237 4.91216ZM21.3756 18.4844H17.8268C17.5394 17.1797 16.372 16.1989 14.9841 16.1989C13.5955 16.1989 12.4286 17.1795 12.1414 18.4844H2.62502C2.27985 18.4844 2 18.7642 2 19.1094C2 19.4546 2.27985 19.7345 2.62502 19.7345H12.1411C12.4279 21.0399 13.5938 22.02 14.9841 22.02C16.3745 22.02 17.5403 21.0399 17.8271 19.7345H21.3756C21.7208 19.7345 22.0006 19.4546 22.0006 19.1094C22.0006 18.7642 21.7208 18.4844 21.3756 18.4844ZM14.9841 20.77C14.0698 20.77 13.3257 20.0272 13.3236 19.1133L13.3237 19.1111C13.3237 19.1088 13.3237 19.1066 13.3237 19.1044C13.3264 18.1916 14.0713 17.449 14.9841 17.449C15.8957 17.449 16.6405 18.1905 16.6445 19.1028L16.6446 19.112C16.6433 20.0265 15.8989 20.77 14.9841 20.77ZM21.3756 11.385H11.8595C11.5727 10.0795 10.4069 9.09948 9.01651 9.09948C7.62615 9.09948 6.46033 10.0795 6.17353 11.385H2.62502C2.27985 11.385 2 11.6648 2 12.01C2 12.3552 2.27985 12.635 2.62502 12.635H6.17384C6.46123 13.9398 7.62861 14.9205 9.01651 14.9205C10.4051 14.9205 11.572 13.9399 11.8593 12.635H21.3756C21.7208 12.635 22.0006 12.3552 22.0006 12.01C22.0006 11.6648 21.7208 11.385 21.3756 11.385ZM10.677 12.0084C10.677 12.0106 10.6769 12.0129 10.6769 12.0151C10.6742 12.9279 9.92935 13.6704 9.01651 13.6704C8.10496 13.6704 7.36009 12.9289 7.35614 12.0166L7.35603 12.0074C7.35739 11.0929 8.10175 10.3495 9.01651 10.3495C9.93083 10.3495 10.6749 11.0923 10.677 12.0061L10.677 12.0084Z" fill="#131214"/>
</svg>
