<svg width="14" height="14" viewBox="0 0 14 14" fill="none" xmlns="http://www.w3.org/2000/svg">
<path d="M13.9674 7.82571C13.9626 7.81355 13.9575 7.80158 13.9518 7.78981C13.331 6.50041 12.3648 5.40973 11.1578 4.63565C9.91762 3.84028 8.47988 3.41992 7.00009 3.41992C5.5203 3.41992 4.08249 3.84034 2.84232 4.63577C1.63973 5.40701 0.676229 6.49264 0.0551383 7.77584C-0.0144684 7.90917 -0.0196436 8.07037 0.0480224 8.21095C0.66879 9.50054 1.635 10.5914 2.84212 11.3656C4.08236 12.1611 5.52017 12.5815 7.00009 12.5815C8.47994 12.5815 9.91775 12.1611 11.1579 11.3657C12.365 10.5915 13.3312 9.50074 13.952 8.21127C14.0101 8.09049 14.0155 7.9507 13.9674 7.82571ZM7.00009 11.6111C4.50414 11.6111 2.18584 10.2016 1.0284 8.00064C2.18584 5.79968 4.50414 4.39021 7.00009 4.39021C9.49597 4.39021 11.8143 5.79981 12.9718 8.0007C11.8143 10.2015 9.4959 11.6111 7.00009 11.6111Z" fill="#DFDFDF"/>
<path d="M7.0005 5.87109C5.82637 5.87109 4.87109 6.82637 4.87109 8.0005C4.87109 9.17463 5.82637 10.1299 7.0005 10.1299C8.17463 10.1299 9.12991 9.17463 9.12991 8.0005C9.12991 6.82637 8.17463 5.87109 7.0005 5.87109ZM7.0005 9.15956C6.36143 9.15956 5.84145 8.63958 5.84145 8.0005C5.84145 7.36143 6.36143 6.84145 7.0005 6.84145C7.63958 6.84145 8.15956 7.36143 8.15956 8.0005C8.15956 8.63958 7.63958 9.15956 7.0005 9.15956Z" fill="#DFDFDF"/>
</svg>
