<svg width="24" height="24" viewBox="0 0 24 24" fill="none" xmlns="http://www.w3.org/2000/svg">
<path d="M16.5 13.9993C16.5 14.2754 16.2761 14.4993 16 14.4993C15.7239 14.4993 15.5 14.2754 15.5 13.9993C15.5 13.7231 15.7239 13.4993 16 13.4993C16.2761 13.4993 16.5 13.7231 16.5 13.9993Z" fill="#131214"/>
<path d="M17 7.99926H7C5.34315 7.99926 4 9.3424 4 10.9993M17 7.99926C18.6569 7.99926 20 9.3424 20 10.9993V16.9993C20 18.6561 18.6569 19.9993 17 19.9993H7C5.34315 19.9993 4 18.6561 4 16.9993V10.9993M17 7.99926V6.91377C17 4.93971 15.1263 3.50372 13.2201 4.01693L8.34527 5.32937C5.78157 6.0196 4 8.34426 4 10.9993M16.5 13.9993C16.5 14.2754 16.2761 14.4993 16 14.4993C15.7239 14.4993 15.5 14.2754 15.5 13.9993C15.5 13.7231 15.7239 13.4993 16 13.4993C16.2761 13.4993 16.5 13.7231 16.5 13.9993Z" stroke="#131214" stroke-width="1.5" stroke-linejoin="round"/>
</svg>
