<svg width="40" height="40" viewBox="0 0 40 40" fill="none" xmlns="http://www.w3.org/2000/svg">
<path d="M5 13.3327V27.9993C5 29.8662 5 30.7996 5.36331 31.5126C5.68289 32.1399 6.19282 32.6498 6.82003 32.9694C7.53307 33.3327 8.46649 33.3327 10.3333 33.3327H29.6667C31.5335 33.3327 32.4669 33.3327 33.18 32.9694C33.8072 32.6498 34.3171 32.1399 34.6367 31.5126C35 30.7996 35 29.8662 35 27.9993V17.8327C35 16.7475 35 16.205 34.8748 15.7612C34.56 14.645 33.6877 13.7726 32.5715 13.4578C32.1277 13.3327 31.5851 13.3327 30.5 13.3327M5 13.3327V11.9993C5 10.1325 5 9.19909 5.36331 8.48605C5.68289 7.85884 6.19282 7.34891 6.82003 7.02933C7.53307 6.66602 8.46649 6.66602 10.3333 6.66602H25.1667C27.0335 6.66602 27.9669 6.66602 28.68 7.02933C29.3072 7.34891 29.8171 7.85884 30.1367 8.48605C30.5 9.19909 30.5 10.1325 30.5 11.9993V13.3327M5 13.3327H30.5M35 19.9993H31.6667C29.8257 19.9993 28.3333 21.4917 28.3333 23.3327C28.3333 25.1736 29.8257 26.666 31.6667 26.666H35V19.9993Z" stroke="#5B0A31" stroke-width="2" stroke-linecap="round" stroke-linejoin="round"/>
</svg>
